<?xml version="1.0" encoding="UTF-8" standalone="no"?>
<!DOCTYPE svg PUBLIC "-//W3C//DTD SVG 1.1//EN"
 "http://www.w3.org/Graphics/SVG/1.1/DTD/svg11.dtd">
<!-- Generated by graphviz version 12.1.2 (20240928.0832)
 -->
<!-- Title: allergie_product Pages: 1 -->
<svg width="800pt" height="725pt"
 viewBox="0.00 0.00 800.13 725.20" xmlns="http://www.w3.org/2000/svg" xmlns:xlink="http://www.w3.org/1999/xlink">
<g id="graph0" class="graph" transform="scale(1 1) rotate(0) translate(4 721.2)">
<title>allergie_product</title>
<polygon fill="white" stroke="none" points="-4,4 -4,-721.2 796.13,-721.2 796.13,4 -4,4"/>
<!-- allergie_product -->
<g id="node1" class="node">
<title>allergie_product</title>
<polygon fill="#efefef" stroke="none" points="266.73,-635.4 266.73,-671 523.17,-671 523.17,-635.4 266.73,-635.4"/>
<polygon fill="none" stroke="black" points="266.73,-635.4 266.73,-671 523.17,-671 523.17,-635.4 266.73,-635.4"/>
<text text-anchor="start" x="273.73" y="-648.8" font-family="Arial Bold" font-size="18.00">allergie_product</text>
<text text-anchor="start" x="391.68" y="-648.8" font-family="Arial" font-size="14.00">    </text>
<text text-anchor="start" x="422.8" y="-648.8" font-family="Arial" font-size="14.00" fill="#666666">[BASE TABLE]</text>
<polygon fill="none" stroke="black" points="266.73,-604.6 266.73,-635.4 523.17,-635.4 523.17,-604.6 266.73,-604.6"/>
<text text-anchor="start" x="273.73" y="-616.8" font-family="Arial" font-size="14.00">id </text>
<text text-anchor="start" x="288.52" y="-616.8" font-family="Arial" font-size="14.00" fill="#666666">[bigint unsigned]</text>
<polygon fill="none" stroke="black" points="266.73,-573.8 266.73,-604.6 523.17,-604.6 523.17,-573.8 266.73,-573.8"/>
<text text-anchor="start" x="273.73" y="-586" font-family="Arial" font-size="14.00">allergie_id </text>
<text text-anchor="start" x="341.44" y="-586" font-family="Arial" font-size="14.00" fill="#666666">[bigint unsigned]</text>
<polygon fill="none" stroke="black" points="266.73,-543 266.73,-573.8 523.17,-573.8 523.17,-543 266.73,-543"/>
<text text-anchor="start" x="273.73" y="-555.2" font-family="Arial" font-size="14.00">product_id </text>
<text text-anchor="start" x="343" y="-555.2" font-family="Arial" font-size="14.00" fill="#666666">[bigint unsigned]</text>
<polygon fill="none" stroke="black" points="266.73,-512.2 266.73,-543 523.17,-543 523.17,-512.2 266.73,-512.2"/>
<text text-anchor="start" x="273.73" y="-524.4" font-family="Arial" font-size="14.00">created_at </text>
<text text-anchor="start" x="343.78" y="-524.4" font-family="Arial" font-size="14.00" fill="#666666">[timestamp]</text>
<polygon fill="none" stroke="black" points="266.73,-481.4 266.73,-512.2 523.17,-512.2 523.17,-481.4 266.73,-481.4"/>
<text text-anchor="start" x="273.73" y="-493.6" font-family="Arial" font-size="14.00">updated_at </text>
<text text-anchor="start" x="347.69" y="-493.6" font-family="Arial" font-size="14.00" fill="#666666">[timestamp]</text>
<polygon fill="none" stroke="black" stroke-width="3" points="265.23,-479.9 265.23,-672.5 524.67,-672.5 524.67,-479.9 265.23,-479.9"/>
</g>
<!-- allergies -->
<g id="node2" class="node">
<title>allergies</title>
<polygon fill="#efefef" stroke="none" points="143.22,-258.8 143.22,-294.4 342.68,-294.4 342.68,-258.8 143.22,-258.8"/>
<polygon fill="none" stroke="black" points="143.22,-258.8 143.22,-294.4 342.68,-294.4 342.68,-258.8 143.22,-258.8"/>
<text text-anchor="start" x="150.22" y="-272.2" font-family="Arial Bold" font-size="18.00">allergies</text>
<text text-anchor="start" x="211.19" y="-272.2" font-family="Arial" font-size="14.00">    </text>
<text text-anchor="start" x="242.31" y="-272.2" font-family="Arial" font-size="14.00" fill="#666666">[BASE TABLE]</text>
<polygon fill="none" stroke="black" points="143.22,-228 143.22,-258.8 342.68,-258.8 342.68,-228 143.22,-228"/>
<text text-anchor="start" x="150.22" y="-240.2" font-family="Arial" font-size="14.00">id </text>
<text text-anchor="start" x="165.01" y="-240.2" font-family="Arial" font-size="14.00" fill="#666666">[bigint unsigned]</text>
<polygon fill="none" stroke="black" points="143.22,-197.2 143.22,-228 342.68,-228 342.68,-197.2 143.22,-197.2"/>
<text text-anchor="start" x="150.22" y="-209.4" font-family="Arial" font-size="14.00">kind </text>
<text text-anchor="start" x="179.8" y="-209.4" font-family="Arial" font-size="14.00" fill="#666666">[tinyint]</text>
<polygon fill="none" stroke="black" points="143.22,-166.4 143.22,-197.2 342.68,-197.2 342.68,-166.4 143.22,-166.4"/>
<text text-anchor="start" x="150.22" y="-178.6" font-family="Arial" font-size="14.00">name </text>
<text text-anchor="start" x="189.13" y="-178.6" font-family="Arial" font-size="14.00" fill="#666666">[varchar(255)]</text>
<polygon fill="none" stroke="black" points="143.22,-135.6 143.22,-166.4 342.68,-166.4 342.68,-135.6 143.22,-135.6"/>
<text text-anchor="start" x="150.22" y="-147.8" font-family="Arial" font-size="14.00">created_at </text>
<text text-anchor="start" x="220.27" y="-147.8" font-family="Arial" font-size="14.00" fill="#666666">[timestamp]</text>
<polygon fill="none" stroke="black" points="143.22,-104.8 143.22,-135.6 342.68,-135.6 342.68,-104.8 143.22,-104.8"/>
<text text-anchor="start" x="150.22" y="-117" font-family="Arial" font-size="14.00">updated_at </text>
<text text-anchor="start" x="224.18" y="-117" font-family="Arial" font-size="14.00" fill="#666666">[timestamp]</text>
</g>
<!-- allergie_product&#45;&gt;allergies -->
<g id="edge1" class="edge">
<title>allergie_product:allergie_id&#45;&gt;allergies:id</title>
<path fill="none" stroke="black" d="M255.5,-588.96C87.81,-580.64 334.16,-362 342.68,-337.6 356.48,-298.07 385.55,-243.4 343.68,-243.4"/>
<polygon fill="black" stroke="black" points="255.4,-588.95 265.29,-593.69 260.73,-589.08 265.06,-589.18 265.06,-589.18 265.06,-589.18 260.73,-589.08 265.51,-584.69 255.4,-588.95"/>
<text text-anchor="start" x="7" y="-599.2" font-family="Arial" font-size="10.00">FOREIGN KEY (allergie_id) REFERENCES allergies (id)</text>
</g>
<!-- products -->
<g id="node3" class="node">
<title>products</title>
<polygon fill="#efefef" stroke="none" points="446.71,-320.4 446.71,-356 647.19,-356 647.19,-320.4 446.71,-320.4"/>
<polygon fill="none" stroke="black" points="446.71,-320.4 446.71,-356 647.19,-356 647.19,-320.4 446.71,-320.4"/>
<text text-anchor="start" x="453.71" y="-333.8" font-family="Arial Bold" font-size="18.00">products</text>
<text text-anchor="start" x="515.7" y="-333.8" font-family="Arial" font-size="14.00">    </text>
<text text-anchor="start" x="546.82" y="-333.8" font-family="Arial" font-size="14.00" fill="#666666">[BASE TABLE]</text>
<polygon fill="none" stroke="black" points="446.71,-289.6 446.71,-320.4 647.19,-320.4 647.19,-289.6 446.71,-289.6"/>
<text text-anchor="start" x="453.71" y="-301.8" font-family="Arial" font-size="14.00">id </text>
<text text-anchor="start" x="468.5" y="-301.8" font-family="Arial" font-size="14.00" fill="#666666">[bigint unsigned]</text>
<polygon fill="none" stroke="black" points="446.71,-258.8 446.71,-289.6 647.19,-289.6 647.19,-258.8 446.71,-258.8"/>
<text text-anchor="start" x="453.71" y="-271" font-family="Arial" font-size="14.00">kind </text>
<text text-anchor="start" x="483.29" y="-271" font-family="Arial" font-size="14.00" fill="#666666">[tinyint]</text>
<polygon fill="none" stroke="black" points="446.71,-228 446.71,-258.8 647.19,-258.8 647.19,-228 446.71,-228"/>
<text text-anchor="start" x="453.71" y="-240.2" font-family="Arial" font-size="14.00">name </text>
<text text-anchor="start" x="492.62" y="-240.2" font-family="Arial" font-size="14.00" fill="#666666">[varchar(255)]</text>
<polygon fill="none" stroke="black" points="446.71,-197.2 446.71,-228 647.19,-228 647.19,-197.2 446.71,-197.2"/>
<text text-anchor="start" x="453.71" y="-209.4" font-family="Arial" font-size="14.00">status </text>
<text text-anchor="start" x="494.95" y="-209.4" font-family="Arial" font-size="14.00" fill="#666666">[tinyint]</text>
<polygon fill="none" stroke="black" points="446.71,-166.4 446.71,-197.2 647.19,-197.2 647.19,-166.4 446.71,-166.4"/>
<text text-anchor="start" x="453.71" y="-178.6" font-family="Arial" font-size="14.00">base_price </text>
<text text-anchor="start" x="526.09" y="-178.6" font-family="Arial" font-size="14.00" fill="#666666">[decimal(8,2)]</text>
<polygon fill="none" stroke="black" points="446.71,-135.6 446.71,-166.4 647.19,-166.4 647.19,-135.6 446.71,-135.6"/>
<text text-anchor="start" x="453.71" y="-147.8" font-family="Arial" font-size="14.00">size </text>
<text text-anchor="start" x="482.5" y="-147.8" font-family="Arial" font-size="14.00" fill="#666666">[decimal(5,2)]</text>
<polygon fill="none" stroke="black" points="446.71,-104.8 446.71,-135.6 647.19,-135.6 647.19,-104.8 446.71,-104.8"/>
<text text-anchor="start" x="453.71" y="-117" font-family="Arial" font-size="14.00">created_at </text>
<text text-anchor="start" x="523.76" y="-117" font-family="Arial" font-size="14.00" fill="#666666">[timestamp]</text>
<polygon fill="none" stroke="black" points="446.71,-74 446.71,-104.8 647.19,-104.8 647.19,-74 446.71,-74"/>
<text text-anchor="start" x="453.71" y="-86.2" font-family="Arial" font-size="14.00">updated_at </text>
<text text-anchor="start" x="527.67" y="-86.2" font-family="Arial" font-size="14.00" fill="#666666">[timestamp]</text>
<polygon fill="none" stroke="black" points="446.71,-43.2 446.71,-74 647.19,-74 647.19,-43.2 446.71,-43.2"/>
<text text-anchor="start" x="453.71" y="-55.4" font-family="Arial" font-size="14.00">deleted_at </text>
<text text-anchor="start" x="523" y="-55.4" font-family="Arial" font-size="14.00" fill="#666666">[timestamp]</text>
</g>
<!-- allergie_product&#45;&gt;products -->
<g id="edge2" class="edge">
<title>allergie_product:product_id&#45;&gt;products:id</title>
<path fill="none" stroke="black" d="M534.55,-557.29C575.22,-547.71 550.62,-478.07 523.17,-435.2 502.92,-403.57 467,-430.81 446.71,-399.2 424.1,-363.97 403.84,-305 445.71,-305"/>
<polygon fill="black" stroke="black" points="534.45,-557.3 524.03,-553.89 529.14,-557.87 524.84,-558.33 524.84,-558.33 524.84,-558.33 529.14,-557.87 524.98,-562.84 534.45,-557.3"/>
<text text-anchor="start" x="531.17" y="-568.4" font-family="Arial" font-size="10.00">FOREIGN KEY (product_id) REFERENCES products (id)</text>
</g>
</g>
</svg>
