<?xml version="1.0" encoding="UTF-8" standalone="no"?>
<!DOCTYPE svg PUBLIC "-//W3C//DTD SVG 1.1//EN"
 "http://www.w3.org/Graphics/SVG/1.1/DTD/svg11.dtd">
<!-- Generated by graphviz version 12.1.2 (20240928.0832)
 -->
<!-- Title: cake_infos Pages: 1 -->
<svg width="540pt" height="787pt"
 viewBox="0.00 0.00 539.62 786.80" xmlns="http://www.w3.org/2000/svg" xmlns:xlink="http://www.w3.org/1999/xlink">
<g id="graph0" class="graph" transform="scale(1 1) rotate(0) translate(4 782.8)">
<title>cake_infos</title>
<polygon fill="white" stroke="none" points="-4,4 -4,-782.8 535.62,-782.8 535.62,4 -4,4"/>
<!-- cake_infos -->
<g id="node1" class="node">
<title>cake_infos</title>
<polygon fill="#efefef" stroke="none" points="46.2,-697 46.2,-732.6 262.66,-732.6 262.66,-697 46.2,-697"/>
<polygon fill="none" stroke="black" points="46.2,-697 46.2,-732.6 262.66,-732.6 262.66,-697 46.2,-697"/>
<text text-anchor="start" x="53.2" y="-710.4" font-family="Arial Bold" font-size="18.00">cake_infos</text>
<text text-anchor="start" x="131.17" y="-710.4" font-family="Arial" font-size="14.00">    </text>
<text text-anchor="start" x="162.28" y="-710.4" font-family="Arial" font-size="14.00" fill="#666666">[BASE TABLE]</text>
<polygon fill="none" stroke="black" points="46.2,-666.2 46.2,-697 262.66,-697 262.66,-666.2 46.2,-666.2"/>
<text text-anchor="start" x="53.2" y="-678.4" font-family="Arial" font-size="14.00">id </text>
<text text-anchor="start" x="67.99" y="-678.4" font-family="Arial" font-size="14.00" fill="#666666">[bigint unsigned]</text>
<polygon fill="none" stroke="black" points="46.2,-635.4 46.2,-666.2 262.66,-666.2 262.66,-635.4 46.2,-635.4"/>
<text text-anchor="start" x="53.2" y="-647.6" font-family="Arial" font-size="14.00">product_id </text>
<text text-anchor="start" x="122.47" y="-647.6" font-family="Arial" font-size="14.00" fill="#666666">[bigint unsigned]</text>
<polygon fill="none" stroke="black" points="46.2,-604.6 46.2,-635.4 262.66,-635.4 262.66,-604.6 46.2,-604.6"/>
<text text-anchor="start" x="53.2" y="-616.8" font-family="Arial" font-size="14.00">catchphrase </text>
<text text-anchor="start" x="133.36" y="-616.8" font-family="Arial" font-size="14.00" fill="#666666">[varchar(255)]</text>
<polygon fill="none" stroke="black" points="46.2,-573.8 46.2,-604.6 262.66,-604.6 262.66,-573.8 46.2,-573.8"/>
<text text-anchor="start" x="53.2" y="-586" font-family="Arial" font-size="14.00">calorie </text>
<text text-anchor="start" x="98.33" y="-586" font-family="Arial" font-size="14.00" fill="#666666">[decimal(6,2)]</text>
<polygon fill="none" stroke="black" points="46.2,-543 46.2,-573.8 262.66,-573.8 262.66,-543 46.2,-543"/>
<text text-anchor="start" x="53.2" y="-555.2" font-family="Arial" font-size="14.00">description </text>
<text text-anchor="start" x="124.79" y="-555.2" font-family="Arial" font-size="14.00" fill="#666666">[text]</text>
<polygon fill="none" stroke="black" points="46.2,-512.2 46.2,-543 262.66,-543 262.66,-512.2 46.2,-512.2"/>
<text text-anchor="start" x="53.2" y="-524.4" font-family="Arial" font-size="14.00">created_at </text>
<text text-anchor="start" x="123.25" y="-524.4" font-family="Arial" font-size="14.00" fill="#666666">[timestamp]</text>
<polygon fill="none" stroke="black" points="46.2,-481.4 46.2,-512.2 262.66,-512.2 262.66,-481.4 46.2,-481.4"/>
<text text-anchor="start" x="53.2" y="-493.6" font-family="Arial" font-size="14.00">updated_at </text>
<text text-anchor="start" x="127.16" y="-493.6" font-family="Arial" font-size="14.00" fill="#666666">[timestamp]</text>
<polygon fill="none" stroke="black" stroke-width="3" points="44.7,-479.9 44.7,-734.1 264.16,-734.1 264.16,-479.9 44.7,-479.9"/>
</g>
<!-- products -->
<g id="node2" class="node">
<title>products</title>
<polygon fill="#efefef" stroke="none" points="54.19,-320.4 54.19,-356 254.67,-356 254.67,-320.4 54.19,-320.4"/>
<polygon fill="none" stroke="black" points="54.19,-320.4 54.19,-356 254.67,-356 254.67,-320.4 54.19,-320.4"/>
<text text-anchor="start" x="61.19" y="-333.8" font-family="Arial Bold" font-size="18.00">products</text>
<text text-anchor="start" x="123.18" y="-333.8" font-family="Arial" font-size="14.00">    </text>
<text text-anchor="start" x="154.3" y="-333.8" font-family="Arial" font-size="14.00" fill="#666666">[BASE TABLE]</text>
<polygon fill="none" stroke="black" points="54.19,-289.6 54.19,-320.4 254.67,-320.4 254.67,-289.6 54.19,-289.6"/>
<text text-anchor="start" x="61.19" y="-301.8" font-family="Arial" font-size="14.00">id </text>
<text text-anchor="start" x="75.98" y="-301.8" font-family="Arial" font-size="14.00" fill="#666666">[bigint unsigned]</text>
<polygon fill="none" stroke="black" points="54.19,-258.8 54.19,-289.6 254.67,-289.6 254.67,-258.8 54.19,-258.8"/>
<text text-anchor="start" x="61.19" y="-271" font-family="Arial" font-size="14.00">kind </text>
<text text-anchor="start" x="90.76" y="-271" font-family="Arial" font-size="14.00" fill="#666666">[tinyint]</text>
<polygon fill="none" stroke="black" points="54.19,-228 54.19,-258.8 254.67,-258.8 254.67,-228 54.19,-228"/>
<text text-anchor="start" x="61.19" y="-240.2" font-family="Arial" font-size="14.00">name </text>
<text text-anchor="start" x="100.1" y="-240.2" font-family="Arial" font-size="14.00" fill="#666666">[varchar(255)]</text>
<polygon fill="none" stroke="black" points="54.19,-197.2 54.19,-228 254.67,-228 254.67,-197.2 54.19,-197.2"/>
<text text-anchor="start" x="61.19" y="-209.4" font-family="Arial" font-size="14.00">status </text>
<text text-anchor="start" x="102.43" y="-209.4" font-family="Arial" font-size="14.00" fill="#666666">[tinyint]</text>
<polygon fill="none" stroke="black" points="54.19,-166.4 54.19,-197.2 254.67,-197.2 254.67,-166.4 54.19,-166.4"/>
<text text-anchor="start" x="61.19" y="-178.6" font-family="Arial" font-size="14.00">base_price </text>
<text text-anchor="start" x="133.57" y="-178.6" font-family="Arial" font-size="14.00" fill="#666666">[decimal(8,2)]</text>
<polygon fill="none" stroke="black" points="54.19,-135.6 54.19,-166.4 254.67,-166.4 254.67,-135.6 54.19,-135.6"/>
<text text-anchor="start" x="61.19" y="-147.8" font-family="Arial" font-size="14.00">size </text>
<text text-anchor="start" x="89.98" y="-147.8" font-family="Arial" font-size="14.00" fill="#666666">[decimal(5,2)]</text>
<polygon fill="none" stroke="black" points="54.19,-104.8 54.19,-135.6 254.67,-135.6 254.67,-104.8 54.19,-104.8"/>
<text text-anchor="start" x="61.19" y="-117" font-family="Arial" font-size="14.00">created_at </text>
<text text-anchor="start" x="131.24" y="-117" font-family="Arial" font-size="14.00" fill="#666666">[timestamp]</text>
<polygon fill="none" stroke="black" points="54.19,-74 54.19,-104.8 254.67,-104.8 254.67,-74 54.19,-74"/>
<text text-anchor="start" x="61.19" y="-86.2" font-family="Arial" font-size="14.00">updated_at </text>
<text text-anchor="start" x="135.15" y="-86.2" font-family="Arial" font-size="14.00" fill="#666666">[timestamp]</text>
<polygon fill="none" stroke="black" points="54.19,-43.2 54.19,-74 254.67,-74 254.67,-43.2 54.19,-43.2"/>
<text text-anchor="start" x="61.19" y="-55.4" font-family="Arial" font-size="14.00">deleted_at </text>
<text text-anchor="start" x="130.47" y="-55.4" font-family="Arial" font-size="14.00" fill="#666666">[timestamp]</text>
</g>
<!-- cake_infos&#45;&gt;products -->
<g id="edge1" class="edge">
<title>cake_infos:product_id&#45;&gt;products:id</title>
<path fill="none" stroke="black" d="M273.5,-648.77C339.67,-620.43 329.08,-305 255.67,-305"/>
<polygon fill="black" stroke="black" points="273.78,-648.71 263.08,-646.33 268.55,-649.79 264.31,-650.66 264.31,-650.66 264.31,-650.66 268.55,-649.79 264.89,-655.14 273.78,-648.71"/>
<text text-anchor="start" x="270.66" y="-660.8" font-family="Arial" font-size="10.00">FOREIGN KEY (product_id) REFERENCES products (id)</text>
</g>
</g>
</svg>
