<?xml version="1.0" encoding="UTF-8" standalone="no"?>
<!DOCTYPE svg PUBLIC "-//W3C//DTD SVG 1.1//EN"
 "http://www.w3.org/Graphics/SVG/1.1/DTD/svg11.dtd">
<!-- Generated by graphviz version 12.1.2 (20240928.0832)
 -->
<!-- Title: cart_products Pages: 1 -->
<svg width="755pt" height="756pt"
 viewBox="0.00 0.00 754.57 756.00" xmlns="http://www.w3.org/2000/svg" xmlns:xlink="http://www.w3.org/1999/xlink">
<g id="graph0" class="graph" transform="scale(1 1) rotate(0) translate(4 752)">
<title>cart_products</title>
<polygon fill="white" stroke="none" points="-4,4 -4,-752 750.57,-752 750.57,4 -4,4"/>
<!-- cart_products -->
<g id="node1" class="node">
<title>cart_products</title>
<polygon fill="#efefef" stroke="none" points="241.16,-666.2 241.16,-701.8 477.61,-701.8 477.61,-666.2 241.16,-666.2"/>
<polygon fill="none" stroke="black" points="241.16,-666.2 241.16,-701.8 477.61,-701.8 477.61,-666.2 241.16,-666.2"/>
<text text-anchor="start" x="248.16" y="-679.6" font-family="Arial Bold" font-size="18.00">cart_products</text>
<text text-anchor="start" x="346.12" y="-679.6" font-family="Arial" font-size="14.00">    </text>
<text text-anchor="start" x="377.24" y="-679.6" font-family="Arial" font-size="14.00" fill="#666666">[BASE TABLE]</text>
<polygon fill="none" stroke="black" points="241.16,-635.4 241.16,-666.2 477.61,-666.2 477.61,-635.4 241.16,-635.4"/>
<text text-anchor="start" x="248.16" y="-647.6" font-family="Arial" font-size="14.00">id </text>
<text text-anchor="start" x="262.94" y="-647.6" font-family="Arial" font-size="14.00" fill="#666666">[bigint unsigned]</text>
<polygon fill="none" stroke="black" points="241.16,-604.6 241.16,-635.4 477.61,-635.4 477.61,-604.6 241.16,-604.6"/>
<text text-anchor="start" x="248.16" y="-616.8" font-family="Arial" font-size="14.00">user_id </text>
<text text-anchor="start" x="297.96" y="-616.8" font-family="Arial" font-size="14.00" fill="#666666">[bigint unsigned]</text>
<polygon fill="none" stroke="black" points="241.16,-573.8 241.16,-604.6 477.61,-604.6 477.61,-573.8 241.16,-573.8"/>
<text text-anchor="start" x="248.16" y="-586" font-family="Arial" font-size="14.00">product_id </text>
<text text-anchor="start" x="317.43" y="-586" font-family="Arial" font-size="14.00" fill="#666666">[bigint unsigned]</text>
<polygon fill="none" stroke="black" points="241.16,-543 241.16,-573.8 477.61,-573.8 477.61,-543 241.16,-543"/>
<text text-anchor="start" x="248.16" y="-555.2" font-family="Arial" font-size="14.00">created_at </text>
<text text-anchor="start" x="318.21" y="-555.2" font-family="Arial" font-size="14.00" fill="#666666">[timestamp]</text>
<polygon fill="none" stroke="black" points="241.16,-512.2 241.16,-543 477.61,-543 477.61,-512.2 241.16,-512.2"/>
<text text-anchor="start" x="248.16" y="-524.4" font-family="Arial" font-size="14.00">updated_at </text>
<text text-anchor="start" x="322.12" y="-524.4" font-family="Arial" font-size="14.00" fill="#666666">[timestamp]</text>
<polygon fill="none" stroke="black" stroke-width="3" points="239.66,-510.7 239.66,-703.3 479.11,-703.3 479.11,-510.7 239.66,-510.7"/>
</g>
<!-- users -->
<g id="node2" class="node">
<title>users</title>
<polygon fill="#efefef" stroke="none" points="65.77,-351.2 65.77,-386.8 321,-386.8 321,-351.2 65.77,-351.2"/>
<polygon fill="none" stroke="black" points="65.77,-351.2 65.77,-386.8 321,-386.8 321,-351.2 65.77,-351.2"/>
<text text-anchor="start" x="112.64" y="-364.6" font-family="Arial Bold" font-size="18.00">users</text>
<text text-anchor="start" x="149.64" y="-364.6" font-family="Arial" font-size="14.00">    </text>
<text text-anchor="start" x="180.75" y="-364.6" font-family="Arial" font-size="14.00" fill="#666666">[BASE TABLE]</text>
<polygon fill="none" stroke="black" points="65.77,-320.4 65.77,-351.2 321,-351.2 321,-320.4 65.77,-320.4"/>
<text text-anchor="start" x="72.77" y="-332.6" font-family="Arial" font-size="14.00">id </text>
<text text-anchor="start" x="87.56" y="-332.6" font-family="Arial" font-size="14.00" fill="#666666">[bigint unsigned]</text>
<polygon fill="none" stroke="black" points="65.77,-289.6 65.77,-320.4 321,-320.4 321,-289.6 65.77,-289.6"/>
<text text-anchor="start" x="72.77" y="-301.8" font-family="Arial" font-size="14.00">status </text>
<text text-anchor="start" x="114.01" y="-301.8" font-family="Arial" font-size="14.00" fill="#666666">[tinyint]</text>
<polygon fill="none" stroke="black" points="65.77,-258.8 65.77,-289.6 321,-289.6 321,-258.8 65.77,-258.8"/>
<text text-anchor="start" x="72.77" y="-271" font-family="Arial" font-size="14.00">email </text>
<text text-anchor="start" x="110.11" y="-271" font-family="Arial" font-size="14.00" fill="#666666">[varchar(255)]</text>
<polygon fill="none" stroke="black" points="65.77,-228 65.77,-258.8 321,-258.8 321,-228 65.77,-228"/>
<text text-anchor="start" x="72.77" y="-240.2" font-family="Arial" font-size="14.00">email_verified_at </text>
<text text-anchor="start" x="182.49" y="-240.2" font-family="Arial" font-size="14.00" fill="#666666">[timestamp]</text>
<polygon fill="none" stroke="black" points="65.77,-197.2 65.77,-228 321,-228 321,-197.2 65.77,-197.2"/>
<text text-anchor="start" x="72.77" y="-209.4" font-family="Arial" font-size="14.00">email_verification_token </text>
<text text-anchor="start" x="226.85" y="-209.4" font-family="Arial" font-size="14.00" fill="#666666">[varchar(255)]</text>
<polygon fill="none" stroke="black" points="65.77,-166.4 65.77,-197.2 321,-197.2 321,-166.4 65.77,-166.4"/>
<text text-anchor="start" x="72.77" y="-178.6" font-family="Arial" font-size="14.00">password </text>
<text text-anchor="start" x="136.58" y="-178.6" font-family="Arial" font-size="14.00" fill="#666666">[varchar(255)]</text>
<polygon fill="none" stroke="black" points="65.77,-135.6 65.77,-166.4 321,-166.4 321,-135.6 65.77,-135.6"/>
<text text-anchor="start" x="72.77" y="-147.8" font-family="Arial" font-size="14.00">remember_token </text>
<text text-anchor="start" x="182.49" y="-147.8" font-family="Arial" font-size="14.00" fill="#666666">[varchar(100)]</text>
<polygon fill="none" stroke="black" points="65.77,-104.8 65.77,-135.6 321,-135.6 321,-104.8 65.77,-104.8"/>
<text text-anchor="start" x="72.77" y="-117" font-family="Arial" font-size="14.00">created_at </text>
<text text-anchor="start" x="142.82" y="-117" font-family="Arial" font-size="14.00" fill="#666666">[timestamp]</text>
<polygon fill="none" stroke="black" points="65.77,-74 65.77,-104.8 321,-104.8 321,-74 65.77,-74"/>
<text text-anchor="start" x="72.77" y="-86.2" font-family="Arial" font-size="14.00">updated_at </text>
<text text-anchor="start" x="146.73" y="-86.2" font-family="Arial" font-size="14.00" fill="#666666">[timestamp]</text>
<polygon fill="none" stroke="black" points="65.77,-43.2 65.77,-74 321,-74 321,-43.2 65.77,-43.2"/>
<text text-anchor="start" x="72.77" y="-55.4" font-family="Arial" font-size="14.00">deleted_at </text>
<text text-anchor="start" x="142.05" y="-55.4" font-family="Arial" font-size="14.00" fill="#666666">[timestamp]</text>
</g>
<!-- cart_products&#45;&gt;users -->
<g id="edge1" class="edge">
<title>cart_products:user_id&#45;&gt;users:id</title>
<path fill="none" stroke="black" d="M229.81,-619.16C175.24,-609.55 205.87,-520.23 241.16,-466 262.39,-433.37 299.7,-462.58 321,-430 343.9,-394.95 363.87,-335.8 322,-335.8"/>
<polygon fill="black" stroke="black" points="229.86,-619.16 239.46,-624.46 235.17,-619.59 239.49,-619.95 239.49,-619.95 239.49,-619.95 235.17,-619.59 240.19,-615.49 229.86,-619.16"/>
<text text-anchor="start" x="7" y="-630" font-family="Arial" font-size="10.00">FOREIGN KEY (user_id) REFERENCES users (id)</text>
</g>
<!-- products -->
<g id="node3" class="node">
<title>products</title>
<polygon fill="#efefef" stroke="none" points="425.14,-335.8 425.14,-371.4 625.62,-371.4 625.62,-335.8 425.14,-335.8"/>
<polygon fill="none" stroke="black" points="425.14,-335.8 425.14,-371.4 625.62,-371.4 625.62,-335.8 425.14,-335.8"/>
<text text-anchor="start" x="432.14" y="-349.2" font-family="Arial Bold" font-size="18.00">products</text>
<text text-anchor="start" x="494.13" y="-349.2" font-family="Arial" font-size="14.00">    </text>
<text text-anchor="start" x="525.25" y="-349.2" font-family="Arial" font-size="14.00" fill="#666666">[BASE TABLE]</text>
<polygon fill="none" stroke="black" points="425.14,-305 425.14,-335.8 625.62,-335.8 625.62,-305 425.14,-305"/>
<text text-anchor="start" x="432.14" y="-317.2" font-family="Arial" font-size="14.00">id </text>
<text text-anchor="start" x="446.93" y="-317.2" font-family="Arial" font-size="14.00" fill="#666666">[bigint unsigned]</text>
<polygon fill="none" stroke="black" points="425.14,-274.2 425.14,-305 625.62,-305 625.62,-274.2 425.14,-274.2"/>
<text text-anchor="start" x="432.14" y="-286.4" font-family="Arial" font-size="14.00">kind </text>
<text text-anchor="start" x="461.72" y="-286.4" font-family="Arial" font-size="14.00" fill="#666666">[tinyint]</text>
<polygon fill="none" stroke="black" points="425.14,-243.4 425.14,-274.2 625.62,-274.2 625.62,-243.4 425.14,-243.4"/>
<text text-anchor="start" x="432.14" y="-255.6" font-family="Arial" font-size="14.00">name </text>
<text text-anchor="start" x="471.05" y="-255.6" font-family="Arial" font-size="14.00" fill="#666666">[varchar(255)]</text>
<polygon fill="none" stroke="black" points="425.14,-212.6 425.14,-243.4 625.62,-243.4 625.62,-212.6 425.14,-212.6"/>
<text text-anchor="start" x="432.14" y="-224.8" font-family="Arial" font-size="14.00">status </text>
<text text-anchor="start" x="473.39" y="-224.8" font-family="Arial" font-size="14.00" fill="#666666">[tinyint]</text>
<polygon fill="none" stroke="black" points="425.14,-181.8 425.14,-212.6 625.62,-212.6 625.62,-181.8 425.14,-181.8"/>
<text text-anchor="start" x="432.14" y="-194" font-family="Arial" font-size="14.00">base_price </text>
<text text-anchor="start" x="504.52" y="-194" font-family="Arial" font-size="14.00" fill="#666666">[decimal(8,2)]</text>
<polygon fill="none" stroke="black" points="425.14,-151 425.14,-181.8 625.62,-181.8 625.62,-151 425.14,-151"/>
<text text-anchor="start" x="432.14" y="-163.2" font-family="Arial" font-size="14.00">size </text>
<text text-anchor="start" x="460.93" y="-163.2" font-family="Arial" font-size="14.00" fill="#666666">[decimal(5,2)]</text>
<polygon fill="none" stroke="black" points="425.14,-120.2 425.14,-151 625.62,-151 625.62,-120.2 425.14,-120.2"/>
<text text-anchor="start" x="432.14" y="-132.4" font-family="Arial" font-size="14.00">created_at </text>
<text text-anchor="start" x="502.19" y="-132.4" font-family="Arial" font-size="14.00" fill="#666666">[timestamp]</text>
<polygon fill="none" stroke="black" points="425.14,-89.4 425.14,-120.2 625.62,-120.2 625.62,-89.4 425.14,-89.4"/>
<text text-anchor="start" x="432.14" y="-101.6" font-family="Arial" font-size="14.00">updated_at </text>
<text text-anchor="start" x="506.1" y="-101.6" font-family="Arial" font-size="14.00" fill="#666666">[timestamp]</text>
<polygon fill="none" stroke="black" points="425.14,-58.6 425.14,-89.4 625.62,-89.4 625.62,-58.6 425.14,-58.6"/>
<text text-anchor="start" x="432.14" y="-70.8" font-family="Arial" font-size="14.00">deleted_at </text>
<text text-anchor="start" x="501.43" y="-70.8" font-family="Arial" font-size="14.00" fill="#666666">[timestamp]</text>
</g>
<!-- cart_products&#45;&gt;products -->
<g id="edge2" class="edge">
<title>cart_products:product_id&#45;&gt;products:id</title>
<path fill="none" stroke="black" d="M488.94,-589.02C658.53,-583.01 429.55,-424.93 425.14,-414.6 408.72,-376.09 382.28,-320.4 424.14,-320.4"/>
<polygon fill="black" stroke="black" points="488.94,-589.02 478.87,-584.69 483.61,-589.11 479.28,-589.19 479.28,-589.19 479.28,-589.19 483.61,-589.11 479.02,-593.69 488.94,-589.02"/>
<text text-anchor="start" x="485.61" y="-599.2" font-family="Arial" font-size="10.00">FOREIGN KEY (product_id) REFERENCES products (id)</text>
</g>
</g>
</svg>
