<?xml version="1.0" encoding="UTF-8" standalone="no"?>
<!DOCTYPE svg PUBLIC "-//W3C//DTD SVG 1.1//EN"
 "http://www.w3.org/Graphics/SVG/1.1/DTD/svg11.dtd">
<!-- Generated by graphviz version 12.1.2 (20240928.0832)
 -->
<!-- Title: orders Pages: 1 -->
<svg width="588pt" height="1130pt"
 viewBox="0.00 0.00 587.59 1129.60" xmlns="http://www.w3.org/2000/svg" xmlns:xlink="http://www.w3.org/1999/xlink">
<g id="graph0" class="graph" transform="scale(1 1) rotate(0) translate(4 1125.6)">
<title>orders</title>
<polygon fill="white" stroke="none" points="-4,4 -4,-1125.6 583.59,-1125.6 583.59,4 -4,4"/>
<!-- orders -->
<g id="node1" class="node">
<title>orders</title>
<polygon fill="#efefef" stroke="none" points="95.19,-727.8 95.19,-763.4 278.66,-763.4 278.66,-727.8 95.19,-727.8"/>
<polygon fill="none" stroke="black" points="95.19,-727.8 95.19,-763.4 278.66,-763.4 278.66,-727.8 95.19,-727.8"/>
<text text-anchor="start" x="102.19" y="-741.2" font-family="Arial Bold" font-size="18.00">orders</text>
<text text-anchor="start" x="147.17" y="-741.2" font-family="Arial" font-size="14.00">    </text>
<text text-anchor="start" x="178.29" y="-741.2" font-family="Arial" font-size="14.00" fill="#666666">[BASE TABLE]</text>
<polygon fill="none" stroke="black" points="95.19,-697 95.19,-727.8 278.66,-727.8 278.66,-697 95.19,-697"/>
<text text-anchor="start" x="102.19" y="-709.2" font-family="Arial" font-size="14.00">id </text>
<text text-anchor="start" x="116.97" y="-709.2" font-family="Arial" font-size="14.00" fill="#666666">[bigint unsigned]</text>
<polygon fill="none" stroke="black" points="95.19,-666.2 95.19,-697 278.66,-697 278.66,-666.2 95.19,-666.2"/>
<text text-anchor="start" x="102.19" y="-678.4" font-family="Arial" font-size="14.00">user_id </text>
<text text-anchor="start" x="151.99" y="-678.4" font-family="Arial" font-size="14.00" fill="#666666">[bigint unsigned]</text>
<polygon fill="none" stroke="black" points="95.19,-635.4 95.19,-666.2 278.66,-666.2 278.66,-635.4 95.19,-635.4"/>
<text text-anchor="start" x="102.19" y="-647.6" font-family="Arial" font-size="14.00">status </text>
<text text-anchor="start" x="143.43" y="-647.6" font-family="Arial" font-size="14.00" fill="#666666">[tinyint]</text>
<polygon fill="none" stroke="black" points="95.19,-604.6 95.19,-635.4 278.66,-635.4 278.66,-604.6 95.19,-604.6"/>
<text text-anchor="start" x="102.19" y="-616.8" font-family="Arial" font-size="14.00">order_at </text>
<text text-anchor="start" x="158.22" y="-616.8" font-family="Arial" font-size="14.00" fill="#666666">[datetime]</text>
<polygon fill="none" stroke="black" points="95.19,-573.8 95.19,-604.6 278.66,-604.6 278.66,-573.8 95.19,-573.8"/>
<text text-anchor="start" x="102.19" y="-586" font-family="Arial" font-size="14.00">note </text>
<text text-anchor="start" x="133.32" y="-586" font-family="Arial" font-size="14.00" fill="#666666">[text]</text>
<polygon fill="none" stroke="black" points="95.19,-543 95.19,-573.8 278.66,-573.8 278.66,-543 95.19,-543"/>
<text text-anchor="start" x="102.19" y="-555.2" font-family="Arial" font-size="14.00">created_at </text>
<text text-anchor="start" x="172.24" y="-555.2" font-family="Arial" font-size="14.00" fill="#666666">[timestamp]</text>
<polygon fill="none" stroke="black" points="95.19,-512.2 95.19,-543 278.66,-543 278.66,-512.2 95.19,-512.2"/>
<text text-anchor="start" x="102.19" y="-524.4" font-family="Arial" font-size="14.00">updated_at </text>
<text text-anchor="start" x="176.15" y="-524.4" font-family="Arial" font-size="14.00" fill="#666666">[timestamp]</text>
<polygon fill="none" stroke="black" stroke-width="3" points="93.69,-510.7 93.69,-764.9 280.16,-764.9 280.16,-510.7 93.69,-510.7"/>
</g>
<!-- users -->
<g id="node3" class="node">
<title>users</title>
<polygon fill="#efefef" stroke="none" points="59.31,-351.2 59.31,-386.8 314.54,-386.8 314.54,-351.2 59.31,-351.2"/>
<polygon fill="none" stroke="black" points="59.31,-351.2 59.31,-386.8 314.54,-386.8 314.54,-351.2 59.31,-351.2"/>
<text text-anchor="start" x="106.18" y="-364.6" font-family="Arial Bold" font-size="18.00">users</text>
<text text-anchor="start" x="143.18" y="-364.6" font-family="Arial" font-size="14.00">    </text>
<text text-anchor="start" x="174.29" y="-364.6" font-family="Arial" font-size="14.00" fill="#666666">[BASE TABLE]</text>
<polygon fill="none" stroke="black" points="59.31,-320.4 59.31,-351.2 314.54,-351.2 314.54,-320.4 59.31,-320.4"/>
<text text-anchor="start" x="66.31" y="-332.6" font-family="Arial" font-size="14.00">id </text>
<text text-anchor="start" x="81.1" y="-332.6" font-family="Arial" font-size="14.00" fill="#666666">[bigint unsigned]</text>
<polygon fill="none" stroke="black" points="59.31,-289.6 59.31,-320.4 314.54,-320.4 314.54,-289.6 59.31,-289.6"/>
<text text-anchor="start" x="66.31" y="-301.8" font-family="Arial" font-size="14.00">status </text>
<text text-anchor="start" x="107.55" y="-301.8" font-family="Arial" font-size="14.00" fill="#666666">[tinyint]</text>
<polygon fill="none" stroke="black" points="59.31,-258.8 59.31,-289.6 314.54,-289.6 314.54,-258.8 59.31,-258.8"/>
<text text-anchor="start" x="66.31" y="-271" font-family="Arial" font-size="14.00">email </text>
<text text-anchor="start" x="103.65" y="-271" font-family="Arial" font-size="14.00" fill="#666666">[varchar(255)]</text>
<polygon fill="none" stroke="black" points="59.31,-228 59.31,-258.8 314.54,-258.8 314.54,-228 59.31,-228"/>
<text text-anchor="start" x="66.31" y="-240.2" font-family="Arial" font-size="14.00">email_verified_at </text>
<text text-anchor="start" x="176.03" y="-240.2" font-family="Arial" font-size="14.00" fill="#666666">[timestamp]</text>
<polygon fill="none" stroke="black" points="59.31,-197.2 59.31,-228 314.54,-228 314.54,-197.2 59.31,-197.2"/>
<text text-anchor="start" x="66.31" y="-209.4" font-family="Arial" font-size="14.00">email_verification_token </text>
<text text-anchor="start" x="220.39" y="-209.4" font-family="Arial" font-size="14.00" fill="#666666">[varchar(255)]</text>
<polygon fill="none" stroke="black" points="59.31,-166.4 59.31,-197.2 314.54,-197.2 314.54,-166.4 59.31,-166.4"/>
<text text-anchor="start" x="66.31" y="-178.6" font-family="Arial" font-size="14.00">password </text>
<text text-anchor="start" x="130.12" y="-178.6" font-family="Arial" font-size="14.00" fill="#666666">[varchar(255)]</text>
<polygon fill="none" stroke="black" points="59.31,-135.6 59.31,-166.4 314.54,-166.4 314.54,-135.6 59.31,-135.6"/>
<text text-anchor="start" x="66.31" y="-147.8" font-family="Arial" font-size="14.00">remember_token </text>
<text text-anchor="start" x="176.03" y="-147.8" font-family="Arial" font-size="14.00" fill="#666666">[varchar(100)]</text>
<polygon fill="none" stroke="black" points="59.31,-104.8 59.31,-135.6 314.54,-135.6 314.54,-104.8 59.31,-104.8"/>
<text text-anchor="start" x="66.31" y="-117" font-family="Arial" font-size="14.00">created_at </text>
<text text-anchor="start" x="136.36" y="-117" font-family="Arial" font-size="14.00" fill="#666666">[timestamp]</text>
<polygon fill="none" stroke="black" points="59.31,-74 59.31,-104.8 314.54,-104.8 314.54,-74 59.31,-74"/>
<text text-anchor="start" x="66.31" y="-86.2" font-family="Arial" font-size="14.00">updated_at </text>
<text text-anchor="start" x="140.27" y="-86.2" font-family="Arial" font-size="14.00" fill="#666666">[timestamp]</text>
<polygon fill="none" stroke="black" points="59.31,-43.2 59.31,-74 314.54,-74 314.54,-43.2 59.31,-43.2"/>
<text text-anchor="start" x="66.31" y="-55.4" font-family="Arial" font-size="14.00">deleted_at </text>
<text text-anchor="start" x="135.59" y="-55.4" font-family="Arial" font-size="14.00" fill="#666666">[timestamp]</text>
</g>
<!-- orders&#45;&gt;users -->
<g id="edge2" class="edge">
<title>orders:user_id&#45;&gt;users:id</title>
<path fill="none" stroke="black" d="M289.89,-681.08C435.69,-666.24 466.58,-335.8 315.54,-335.8"/>
<polygon fill="black" stroke="black" points="289.98,-681.08 279.77,-677.09 284.65,-681.35 280.33,-681.57 280.33,-681.57 280.33,-681.57 284.65,-681.35 280.22,-686.08 289.98,-681.08"/>
<text text-anchor="start" x="286.66" y="-691.6" font-family="Arial" font-size="10.00">FOREIGN KEY (user_id) REFERENCES users (id)</text>
</g>
<!-- order_product_stock -->
<g id="node2" class="node">
<title>order_product_stock</title>
<polygon fill="#efefef" stroke="none" points="43.2,-1042.8 43.2,-1078.4 330.65,-1078.4 330.65,-1042.8 43.2,-1042.8"/>
<polygon fill="none" stroke="black" points="43.2,-1042.8 43.2,-1078.4 330.65,-1078.4 330.65,-1042.8 43.2,-1042.8"/>
<text text-anchor="start" x="50.2" y="-1056.2" font-family="Arial Bold" font-size="18.00">order_product_stock</text>
<text text-anchor="start" x="199.16" y="-1056.2" font-family="Arial" font-size="14.00">    </text>
<text text-anchor="start" x="230.27" y="-1056.2" font-family="Arial" font-size="14.00" fill="#666666">[BASE TABLE]</text>
<polygon fill="none" stroke="black" points="43.2,-1012 43.2,-1042.8 330.65,-1042.8 330.65,-1012 43.2,-1012"/>
<text text-anchor="start" x="50.2" y="-1024.2" font-family="Arial" font-size="14.00">id </text>
<text text-anchor="start" x="64.99" y="-1024.2" font-family="Arial" font-size="14.00" fill="#666666">[bigint unsigned]</text>
<polygon fill="none" stroke="black" points="43.2,-981.2 43.2,-1012 330.65,-1012 330.65,-981.2 43.2,-981.2"/>
<text text-anchor="start" x="50.2" y="-993.4" font-family="Arial" font-size="14.00">order_id </text>
<text text-anchor="start" x="105.45" y="-993.4" font-family="Arial" font-size="14.00" fill="#666666">[bigint unsigned]</text>
<polygon fill="none" stroke="black" points="43.2,-950.4 43.2,-981.2 330.65,-981.2 330.65,-950.4 43.2,-950.4"/>
<text text-anchor="start" x="50.2" y="-962.6" font-family="Arial" font-size="14.00">product_stock_id </text>
<text text-anchor="start" x="159.93" y="-962.6" font-family="Arial" font-size="14.00" fill="#666666">[bigint unsigned]</text>
<polygon fill="none" stroke="black" points="43.2,-919.6 43.2,-950.4 330.65,-950.4 330.65,-919.6 43.2,-919.6"/>
<text text-anchor="start" x="50.2" y="-931.8" font-family="Arial" font-size="14.00">created_at </text>
<text text-anchor="start" x="120.25" y="-931.8" font-family="Arial" font-size="14.00" fill="#666666">[timestamp]</text>
<polygon fill="none" stroke="black" points="43.2,-888.8 43.2,-919.6 330.65,-919.6 330.65,-888.8 43.2,-888.8"/>
<text text-anchor="start" x="50.2" y="-901" font-family="Arial" font-size="14.00">updated_at </text>
<text text-anchor="start" x="124.16" y="-901" font-family="Arial" font-size="14.00" fill="#666666">[timestamp]</text>
</g>
<!-- order_product_stock&#45;&gt;orders -->
<g id="edge1" class="edge">
<title>order_product_stock:order_id&#45;&gt;orders:id</title>
<path fill="none" stroke="black" d="M341.78,-995.97C457.15,-981.27 404.55,-712.4 279.66,-712.4"/>
<polygon fill="black" stroke="black" points="341.96,-995.96 331.7,-992.09 336.64,-996.29 332.31,-996.56 332.31,-996.56 332.31,-996.56 336.64,-996.29 332.26,-1001.07 341.96,-995.96"/>
<text text-anchor="start" x="338.65" y="-1006.6" font-family="Arial" font-size="10.00">FOREIGN KEY (order_id) REFERENCES orders (id)</text>
</g>
</g>
</svg>
