<?xml version="1.0" encoding="UTF-8" standalone="no"?>
<!DOCTYPE svg PUBLIC "-//W3C//DTD SVG 1.1//EN"
 "http://www.w3.org/Graphics/SVG/1.1/DTD/svg11.dtd">
<!-- Generated by graphviz version 12.1.2 (20240928.0832)
 -->
<!-- Title: product_images Pages: 1 -->
<svg width="577pt" height="725pt"
 viewBox="0.00 0.00 576.62 725.20" xmlns="http://www.w3.org/2000/svg" xmlns:xlink="http://www.w3.org/1999/xlink">
<g id="graph0" class="graph" transform="scale(1 1) rotate(0) translate(4 721.2)">
<title>product_images</title>
<polygon fill="white" stroke="none" points="-4,4 -4,-721.2 572.62,-721.2 572.62,4 -4,4"/>
<!-- product_images -->
<g id="node1" class="node">
<title>product_images</title>
<polygon fill="#efefef" stroke="none" points="46.2,-635.4 46.2,-671 299.66,-671 299.66,-635.4 46.2,-635.4"/>
<polygon fill="none" stroke="black" points="46.2,-635.4 46.2,-671 299.66,-671 299.66,-635.4 46.2,-635.4"/>
<text text-anchor="start" x="53.2" y="-648.8" font-family="Arial Bold" font-size="18.00">product_images</text>
<text text-anchor="start" x="168.17" y="-648.8" font-family="Arial" font-size="14.00">    </text>
<text text-anchor="start" x="199.29" y="-648.8" font-family="Arial" font-size="14.00" fill="#666666">[BASE TABLE]</text>
<polygon fill="none" stroke="black" points="46.2,-604.6 46.2,-635.4 299.66,-635.4 299.66,-604.6 46.2,-604.6"/>
<text text-anchor="start" x="53.2" y="-616.8" font-family="Arial" font-size="14.00">id </text>
<text text-anchor="start" x="67.99" y="-616.8" font-family="Arial" font-size="14.00" fill="#666666">[bigint unsigned]</text>
<polygon fill="none" stroke="black" points="46.2,-573.8 46.2,-604.6 299.66,-604.6 299.66,-573.8 46.2,-573.8"/>
<text text-anchor="start" x="53.2" y="-586" font-family="Arial" font-size="14.00">product_id </text>
<text text-anchor="start" x="122.47" y="-586" font-family="Arial" font-size="14.00" fill="#666666">[bigint unsigned]</text>
<polygon fill="none" stroke="black" points="46.2,-543 46.2,-573.8 299.66,-573.8 299.66,-543 46.2,-543"/>
<text text-anchor="start" x="53.2" y="-555.2" font-family="Arial" font-size="14.00">image </text>
<text text-anchor="start" x="95.22" y="-555.2" font-family="Arial" font-size="14.00" fill="#666666">[varchar(255)]</text>
<polygon fill="none" stroke="black" points="46.2,-512.2 46.2,-543 299.66,-543 299.66,-512.2 46.2,-512.2"/>
<text text-anchor="start" x="53.2" y="-524.4" font-family="Arial" font-size="14.00">created_at </text>
<text text-anchor="start" x="123.25" y="-524.4" font-family="Arial" font-size="14.00" fill="#666666">[timestamp]</text>
<polygon fill="none" stroke="black" points="46.2,-481.4 46.2,-512.2 299.66,-512.2 299.66,-481.4 46.2,-481.4"/>
<text text-anchor="start" x="53.2" y="-493.6" font-family="Arial" font-size="14.00">updated_at </text>
<text text-anchor="start" x="127.16" y="-493.6" font-family="Arial" font-size="14.00" fill="#666666">[timestamp]</text>
<polygon fill="none" stroke="black" stroke-width="3" points="44.7,-479.9 44.7,-672.5 301.16,-672.5 301.16,-479.9 44.7,-479.9"/>
</g>
<!-- products -->
<g id="node2" class="node">
<title>products</title>
<polygon fill="#efefef" stroke="none" points="72.69,-320.4 72.69,-356 273.17,-356 273.17,-320.4 72.69,-320.4"/>
<polygon fill="none" stroke="black" points="72.69,-320.4 72.69,-356 273.17,-356 273.17,-320.4 72.69,-320.4"/>
<text text-anchor="start" x="79.69" y="-333.8" font-family="Arial Bold" font-size="18.00">products</text>
<text text-anchor="start" x="141.68" y="-333.8" font-family="Arial" font-size="14.00">    </text>
<text text-anchor="start" x="172.8" y="-333.8" font-family="Arial" font-size="14.00" fill="#666666">[BASE TABLE]</text>
<polygon fill="none" stroke="black" points="72.69,-289.6 72.69,-320.4 273.17,-320.4 273.17,-289.6 72.69,-289.6"/>
<text text-anchor="start" x="79.69" y="-301.8" font-family="Arial" font-size="14.00">id </text>
<text text-anchor="start" x="94.48" y="-301.8" font-family="Arial" font-size="14.00" fill="#666666">[bigint unsigned]</text>
<polygon fill="none" stroke="black" points="72.69,-258.8 72.69,-289.6 273.17,-289.6 273.17,-258.8 72.69,-258.8"/>
<text text-anchor="start" x="79.69" y="-271" font-family="Arial" font-size="14.00">kind </text>
<text text-anchor="start" x="109.26" y="-271" font-family="Arial" font-size="14.00" fill="#666666">[tinyint]</text>
<polygon fill="none" stroke="black" points="72.69,-228 72.69,-258.8 273.17,-258.8 273.17,-228 72.69,-228"/>
<text text-anchor="start" x="79.69" y="-240.2" font-family="Arial" font-size="14.00">name </text>
<text text-anchor="start" x="118.6" y="-240.2" font-family="Arial" font-size="14.00" fill="#666666">[varchar(255)]</text>
<polygon fill="none" stroke="black" points="72.69,-197.2 72.69,-228 273.17,-228 273.17,-197.2 72.69,-197.2"/>
<text text-anchor="start" x="79.69" y="-209.4" font-family="Arial" font-size="14.00">status </text>
<text text-anchor="start" x="120.93" y="-209.4" font-family="Arial" font-size="14.00" fill="#666666">[tinyint]</text>
<polygon fill="none" stroke="black" points="72.69,-166.4 72.69,-197.2 273.17,-197.2 273.17,-166.4 72.69,-166.4"/>
<text text-anchor="start" x="79.69" y="-178.6" font-family="Arial" font-size="14.00">base_price </text>
<text text-anchor="start" x="152.07" y="-178.6" font-family="Arial" font-size="14.00" fill="#666666">[decimal(8,2)]</text>
<polygon fill="none" stroke="black" points="72.69,-135.6 72.69,-166.4 273.17,-166.4 273.17,-135.6 72.69,-135.6"/>
<text text-anchor="start" x="79.69" y="-147.8" font-family="Arial" font-size="14.00">size </text>
<text text-anchor="start" x="108.48" y="-147.8" font-family="Arial" font-size="14.00" fill="#666666">[decimal(5,2)]</text>
<polygon fill="none" stroke="black" points="72.69,-104.8 72.69,-135.6 273.17,-135.6 273.17,-104.8 72.69,-104.8"/>
<text text-anchor="start" x="79.69" y="-117" font-family="Arial" font-size="14.00">created_at </text>
<text text-anchor="start" x="149.74" y="-117" font-family="Arial" font-size="14.00" fill="#666666">[timestamp]</text>
<polygon fill="none" stroke="black" points="72.69,-74 72.69,-104.8 273.17,-104.8 273.17,-74 72.69,-74"/>
<text text-anchor="start" x="79.69" y="-86.2" font-family="Arial" font-size="14.00">updated_at </text>
<text text-anchor="start" x="153.65" y="-86.2" font-family="Arial" font-size="14.00" fill="#666666">[timestamp]</text>
<polygon fill="none" stroke="black" points="72.69,-43.2 72.69,-74 273.17,-74 273.17,-43.2 72.69,-43.2"/>
<text text-anchor="start" x="79.69" y="-55.4" font-family="Arial" font-size="14.00">deleted_at </text>
<text text-anchor="start" x="148.97" y="-55.4" font-family="Arial" font-size="14.00" fill="#666666">[timestamp]</text>
</g>
<!-- product_images&#45;&gt;products -->
<g id="edge1" class="edge">
<title>product_images:product_id&#45;&gt;products:id</title>
<path fill="none" stroke="black" d="M310.58,-586.57C360.97,-557.92 334.01,-305 274.17,-305"/>
<polygon fill="black" stroke="black" points="310.65,-586.55 299.83,-584.76 305.49,-587.92 301.31,-589.03 301.31,-589.03 301.31,-589.03 305.49,-587.92 302.14,-593.46 310.65,-586.55"/>
<text text-anchor="start" x="307.66" y="-599.2" font-family="Arial" font-size="10.00">FOREIGN KEY (product_id) REFERENCES products (id)</text>
</g>
</g>
</svg>
