<?xml version="1.0" encoding="UTF-8" standalone="no"?>
<!DOCTYPE svg PUBLIC "-//W3C//DTD SVG 1.1//EN"
 "http://www.w3.org/Graphics/SVG/1.1/DTD/svg11.dtd">
<!-- Generated by graphviz version 12.1.2 (20240928.0832)
 -->
<!-- Title: product_tag Pages: 1 -->
<svg width="731pt" height="725pt"
 viewBox="0.00 0.00 731.48 725.20" xmlns="http://www.w3.org/2000/svg" xmlns:xlink="http://www.w3.org/1999/xlink">
<g id="graph0" class="graph" transform="scale(1 1) rotate(0) translate(4 721.2)">
<title>product_tag</title>
<polygon fill="white" stroke="none" points="-4,4 -4,-721.2 727.48,-721.2 727.48,4 -4,4"/>
<!-- product_tag -->
<g id="node1" class="node">
<title>product_tag</title>
<polygon fill="#efefef" stroke="none" points="268.96,-635.4 268.96,-671 493.42,-671 493.42,-635.4 268.96,-635.4"/>
<polygon fill="none" stroke="black" points="268.96,-635.4 268.96,-671 493.42,-671 493.42,-635.4 268.96,-635.4"/>
<text text-anchor="start" x="275.96" y="-648.8" font-family="Arial Bold" font-size="18.00">product_tag</text>
<text text-anchor="start" x="361.93" y="-648.8" font-family="Arial" font-size="14.00">    </text>
<text text-anchor="start" x="393.05" y="-648.8" font-family="Arial" font-size="14.00" fill="#666666">[BASE TABLE]</text>
<polygon fill="none" stroke="black" points="268.96,-604.6 268.96,-635.4 493.42,-635.4 493.42,-604.6 268.96,-604.6"/>
<text text-anchor="start" x="275.96" y="-616.8" font-family="Arial" font-size="14.00">id </text>
<text text-anchor="start" x="290.75" y="-616.8" font-family="Arial" font-size="14.00" fill="#666666">[bigint unsigned]</text>
<polygon fill="none" stroke="black" points="268.96,-573.8 268.96,-604.6 493.42,-604.6 493.42,-573.8 268.96,-573.8"/>
<text text-anchor="start" x="275.96" y="-586" font-family="Arial" font-size="14.00">product_id </text>
<text text-anchor="start" x="345.23" y="-586" font-family="Arial" font-size="14.00" fill="#666666">[bigint unsigned]</text>
<polygon fill="none" stroke="black" points="268.96,-543 268.96,-573.8 493.42,-573.8 493.42,-543 268.96,-543"/>
<text text-anchor="start" x="275.96" y="-555.2" font-family="Arial" font-size="14.00">tag_id </text>
<text text-anchor="start" x="317.99" y="-555.2" font-family="Arial" font-size="14.00" fill="#666666">[bigint unsigned]</text>
<polygon fill="none" stroke="black" points="268.96,-512.2 268.96,-543 493.42,-543 493.42,-512.2 268.96,-512.2"/>
<text text-anchor="start" x="275.96" y="-524.4" font-family="Arial" font-size="14.00">created_at </text>
<text text-anchor="start" x="346.01" y="-524.4" font-family="Arial" font-size="14.00" fill="#666666">[timestamp]</text>
<polygon fill="none" stroke="black" points="268.96,-481.4 268.96,-512.2 493.42,-512.2 493.42,-481.4 268.96,-481.4"/>
<text text-anchor="start" x="275.96" y="-493.6" font-family="Arial" font-size="14.00">updated_at </text>
<text text-anchor="start" x="349.92" y="-493.6" font-family="Arial" font-size="14.00" fill="#666666">[timestamp]</text>
<polygon fill="none" stroke="black" stroke-width="3" points="267.46,-479.9 267.46,-672.5 494.92,-672.5 494.92,-479.9 267.46,-479.9"/>
</g>
<!-- products -->
<g id="node2" class="node">
<title>products</title>
<polygon fill="#efefef" stroke="none" points="136.95,-320.4 136.95,-356 337.43,-356 337.43,-320.4 136.95,-320.4"/>
<polygon fill="none" stroke="black" points="136.95,-320.4 136.95,-356 337.43,-356 337.43,-320.4 136.95,-320.4"/>
<text text-anchor="start" x="143.95" y="-333.8" font-family="Arial Bold" font-size="18.00">products</text>
<text text-anchor="start" x="205.94" y="-333.8" font-family="Arial" font-size="14.00">    </text>
<text text-anchor="start" x="237.06" y="-333.8" font-family="Arial" font-size="14.00" fill="#666666">[BASE TABLE]</text>
<polygon fill="none" stroke="black" points="136.95,-289.6 136.95,-320.4 337.43,-320.4 337.43,-289.6 136.95,-289.6"/>
<text text-anchor="start" x="143.95" y="-301.8" font-family="Arial" font-size="14.00">id </text>
<text text-anchor="start" x="158.74" y="-301.8" font-family="Arial" font-size="14.00" fill="#666666">[bigint unsigned]</text>
<polygon fill="none" stroke="black" points="136.95,-258.8 136.95,-289.6 337.43,-289.6 337.43,-258.8 136.95,-258.8"/>
<text text-anchor="start" x="143.95" y="-271" font-family="Arial" font-size="14.00">kind </text>
<text text-anchor="start" x="173.52" y="-271" font-family="Arial" font-size="14.00" fill="#666666">[tinyint]</text>
<polygon fill="none" stroke="black" points="136.95,-228 136.95,-258.8 337.43,-258.8 337.43,-228 136.95,-228"/>
<text text-anchor="start" x="143.95" y="-240.2" font-family="Arial" font-size="14.00">name </text>
<text text-anchor="start" x="182.86" y="-240.2" font-family="Arial" font-size="14.00" fill="#666666">[varchar(255)]</text>
<polygon fill="none" stroke="black" points="136.95,-197.2 136.95,-228 337.43,-228 337.43,-197.2 136.95,-197.2"/>
<text text-anchor="start" x="143.95" y="-209.4" font-family="Arial" font-size="14.00">status </text>
<text text-anchor="start" x="185.19" y="-209.4" font-family="Arial" font-size="14.00" fill="#666666">[tinyint]</text>
<polygon fill="none" stroke="black" points="136.95,-166.4 136.95,-197.2 337.43,-197.2 337.43,-166.4 136.95,-166.4"/>
<text text-anchor="start" x="143.95" y="-178.6" font-family="Arial" font-size="14.00">base_price </text>
<text text-anchor="start" x="216.33" y="-178.6" font-family="Arial" font-size="14.00" fill="#666666">[decimal(8,2)]</text>
<polygon fill="none" stroke="black" points="136.95,-135.6 136.95,-166.4 337.43,-166.4 337.43,-135.6 136.95,-135.6"/>
<text text-anchor="start" x="143.95" y="-147.8" font-family="Arial" font-size="14.00">size </text>
<text text-anchor="start" x="172.74" y="-147.8" font-family="Arial" font-size="14.00" fill="#666666">[decimal(5,2)]</text>
<polygon fill="none" stroke="black" points="136.95,-104.8 136.95,-135.6 337.43,-135.6 337.43,-104.8 136.95,-104.8"/>
<text text-anchor="start" x="143.95" y="-117" font-family="Arial" font-size="14.00">created_at </text>
<text text-anchor="start" x="214" y="-117" font-family="Arial" font-size="14.00" fill="#666666">[timestamp]</text>
<polygon fill="none" stroke="black" points="136.95,-74 136.95,-104.8 337.43,-104.8 337.43,-74 136.95,-74"/>
<text text-anchor="start" x="143.95" y="-86.2" font-family="Arial" font-size="14.00">updated_at </text>
<text text-anchor="start" x="217.91" y="-86.2" font-family="Arial" font-size="14.00" fill="#666666">[timestamp]</text>
<polygon fill="none" stroke="black" points="136.95,-43.2 136.95,-74 337.43,-74 337.43,-43.2 136.95,-43.2"/>
<text text-anchor="start" x="143.95" y="-55.4" font-family="Arial" font-size="14.00">deleted_at </text>
<text text-anchor="start" x="213.23" y="-55.4" font-family="Arial" font-size="14.00" fill="#666666">[timestamp]</text>
</g>
<!-- product_tag&#45;&gt;products -->
<g id="edge1" class="edge">
<title>product_tag:product_id&#45;&gt;products:id</title>
<path fill="none" stroke="black" d="M257.63,-588.36C203.22,-578.86 235.33,-490.47 268.96,-435.2 286.83,-405.83 319.5,-428.53 337.43,-399.2 359.27,-363.48 380.3,-305 338.43,-305"/>
<polygon fill="black" stroke="black" points="257.66,-588.37 267.26,-593.66 262.98,-588.8 267.29,-589.15 267.29,-589.15 267.29,-589.15 262.98,-588.8 267.99,-584.69 257.66,-588.37"/>
<text text-anchor="start" x="7" y="-599.2" font-family="Arial" font-size="10.00">FOREIGN KEY (product_id) REFERENCES products (id)</text>
</g>
<!-- tags -->
<g id="node3" class="node">
<title>tags</title>
<polygon fill="#efefef" stroke="none" points="441.45,-243.4 441.45,-279 608.93,-279 608.93,-243.4 441.45,-243.4"/>
<polygon fill="none" stroke="black" points="441.45,-243.4 441.45,-279 608.93,-279 608.93,-243.4 441.45,-243.4"/>
<text text-anchor="start" x="448.45" y="-256.8" font-family="Arial Bold" font-size="18.00">tags</text>
<text text-anchor="start" x="477.44" y="-256.8" font-family="Arial" font-size="14.00">    </text>
<text text-anchor="start" x="508.56" y="-256.8" font-family="Arial" font-size="14.00" fill="#666666">[BASE TABLE]</text>
<polygon fill="none" stroke="black" points="441.45,-212.6 441.45,-243.4 608.93,-243.4 608.93,-212.6 441.45,-212.6"/>
<text text-anchor="start" x="448.45" y="-224.8" font-family="Arial" font-size="14.00">id </text>
<text text-anchor="start" x="463.24" y="-224.8" font-family="Arial" font-size="14.00" fill="#666666">[bigint unsigned]</text>
<polygon fill="none" stroke="black" points="441.45,-181.8 441.45,-212.6 608.93,-212.6 608.93,-181.8 441.45,-181.8"/>
<text text-anchor="start" x="448.45" y="-194" font-family="Arial" font-size="14.00">name </text>
<text text-anchor="start" x="487.36" y="-194" font-family="Arial" font-size="14.00" fill="#666666">[varchar(255)]</text>
<polygon fill="none" stroke="black" points="441.45,-151 441.45,-181.8 608.93,-181.8 608.93,-151 441.45,-151"/>
<text text-anchor="start" x="448.45" y="-163.2" font-family="Arial" font-size="14.00">created_at </text>
<text text-anchor="start" x="518.5" y="-163.2" font-family="Arial" font-size="14.00" fill="#666666">[timestamp]</text>
<polygon fill="none" stroke="black" points="441.45,-120.2 441.45,-151 608.93,-151 608.93,-120.2 441.45,-120.2"/>
<text text-anchor="start" x="448.45" y="-132.4" font-family="Arial" font-size="14.00">updated_at </text>
<text text-anchor="start" x="522.41" y="-132.4" font-family="Arial" font-size="14.00" fill="#666666">[timestamp]</text>
</g>
<!-- product_tag&#45;&gt;tags -->
<g id="edge2" class="edge">
<title>product_tag:tag_id&#45;&gt;tags:id</title>
<path fill="none" stroke="black" d="M504.41,-557.44C577.75,-541.9 446.03,-342.6 441.45,-322.2 432.28,-281.35 398.58,-228 440.45,-228"/>
<polygon fill="black" stroke="black" points="504.71,-557.41 494.33,-553.89 499.4,-557.92 495.09,-558.34 495.09,-558.34 495.09,-558.34 499.4,-557.92 495.19,-562.85 504.71,-557.41"/>
<text text-anchor="start" x="501.42" y="-568.4" font-family="Arial" font-size="10.00">FOREIGN KEY (tag_id) REFERENCES tags (id)</text>
</g>
</g>
</svg>
