<?xml version="1.0" encoding="UTF-8" standalone="no"?>
<!DOCTYPE svg PUBLIC "-//W3C//DTD SVG 1.1//EN"
 "http://www.w3.org/Graphics/SVG/1.1/DTD/svg11.dtd">
<!-- Generated by graphviz version 12.1.2 (20240928.0832)
 -->
<!-- Title: shops Pages: 1 -->
<svg width="533pt" height="725pt"
 viewBox="0.00 0.00 533.30 725.20" xmlns="http://www.w3.org/2000/svg" xmlns:xlink="http://www.w3.org/1999/xlink">
<g id="graph0" class="graph" transform="scale(1 1) rotate(0) translate(4 721.2)">
<title>shops</title>
<polygon fill="white" stroke="none" points="-4,4 -4,-721.2 529.3,-721.2 529.3,4 -4,4"/>
<!-- shops -->
<g id="node1" class="node">
<title>shops</title>
<polygon fill="#efefef" stroke="none" points="71.69,-323.4 71.69,-359 251.19,-359 251.19,-323.4 71.69,-323.4"/>
<polygon fill="none" stroke="black" points="71.69,-323.4 71.69,-359 251.19,-359 251.19,-323.4 71.69,-323.4"/>
<text text-anchor="start" x="78.69" y="-336.8" font-family="Arial Bold" font-size="18.00">shops</text>
<text text-anchor="start" x="119.7" y="-336.8" font-family="Arial" font-size="14.00">    </text>
<text text-anchor="start" x="150.82" y="-336.8" font-family="Arial" font-size="14.00" fill="#666666">[BASE TABLE]</text>
<polygon fill="none" stroke="black" points="71.69,-292.6 71.69,-323.4 251.19,-323.4 251.19,-292.6 71.69,-292.6"/>
<text text-anchor="start" x="78.69" y="-304.8" font-family="Arial" font-size="14.00">id </text>
<text text-anchor="start" x="93.48" y="-304.8" font-family="Arial" font-size="14.00" fill="#666666">[bigint unsigned]</text>
<polygon fill="none" stroke="black" points="71.69,-261.8 71.69,-292.6 251.19,-292.6 251.19,-261.8 71.69,-261.8"/>
<text text-anchor="start" x="78.69" y="-274" font-family="Arial" font-size="14.00">kind </text>
<text text-anchor="start" x="108.26" y="-274" font-family="Arial" font-size="14.00" fill="#666666">[tinyint]</text>
<polygon fill="none" stroke="black" points="71.69,-231 71.69,-261.8 251.19,-261.8 251.19,-231 71.69,-231"/>
<text text-anchor="start" x="78.69" y="-243.2" font-family="Arial" font-size="14.00">name </text>
<text text-anchor="start" x="117.6" y="-243.2" font-family="Arial" font-size="14.00" fill="#666666">[varchar(255)]</text>
<polygon fill="none" stroke="black" points="71.69,-200.2 71.69,-231 251.19,-231 251.19,-200.2 71.69,-200.2"/>
<text text-anchor="start" x="78.69" y="-212.4" font-family="Arial" font-size="14.00">tel1 </text>
<text text-anchor="start" x="105.15" y="-212.4" font-family="Arial" font-size="14.00" fill="#666666">[varchar(255)]</text>
<polygon fill="none" stroke="black" points="71.69,-169.4 71.69,-200.2 251.19,-200.2 251.19,-169.4 71.69,-169.4"/>
<text text-anchor="start" x="78.69" y="-181.6" font-family="Arial" font-size="14.00">tel2 </text>
<text text-anchor="start" x="105.15" y="-181.6" font-family="Arial" font-size="14.00" fill="#666666">[varchar(255)]</text>
<polygon fill="none" stroke="black" points="71.69,-138.6 71.69,-169.4 251.19,-169.4 251.19,-138.6 71.69,-138.6"/>
<text text-anchor="start" x="78.69" y="-150.8" font-family="Arial" font-size="14.00">tel3 </text>
<text text-anchor="start" x="105.15" y="-150.8" font-family="Arial" font-size="14.00" fill="#666666">[varchar(255)]</text>
<polygon fill="none" stroke="black" points="71.69,-107.8 71.69,-138.6 251.19,-138.6 251.19,-107.8 71.69,-107.8"/>
<text text-anchor="start" x="78.69" y="-120" font-family="Arial" font-size="14.00">created_at </text>
<text text-anchor="start" x="148.74" y="-120" font-family="Arial" font-size="14.00" fill="#666666">[timestamp]</text>
<polygon fill="none" stroke="black" points="71.69,-77 71.69,-107.8 251.19,-107.8 251.19,-77 71.69,-77"/>
<text text-anchor="start" x="78.69" y="-89.2" font-family="Arial" font-size="14.00">updated_at </text>
<text text-anchor="start" x="152.65" y="-89.2" font-family="Arial" font-size="14.00" fill="#666666">[timestamp]</text>
<polygon fill="none" stroke="black" points="71.69,-46.2 71.69,-77 251.19,-77 251.19,-46.2 71.69,-46.2"/>
<text text-anchor="start" x="78.69" y="-58.4" font-family="Arial" font-size="14.00">deleted_at </text>
<text text-anchor="start" x="147.97" y="-58.4" font-family="Arial" font-size="14.00" fill="#666666">[timestamp]</text>
<polygon fill="none" stroke="black" stroke-width="3" points="70.19,-44.7 70.19,-360.5 252.69,-360.5 252.69,-44.7 70.19,-44.7"/>
</g>
<!-- shop_product -->
<g id="node2" class="node">
<title>shop_product</title>
<polygon fill="#efefef" stroke="none" points="43.2,-638.4 43.2,-674 279.68,-674 279.68,-638.4 43.2,-638.4"/>
<polygon fill="none" stroke="black" points="43.2,-638.4 43.2,-674 279.68,-674 279.68,-638.4 43.2,-638.4"/>
<text text-anchor="start" x="50.2" y="-651.8" font-family="Arial Bold" font-size="18.00">shop_product</text>
<text text-anchor="start" x="148.19" y="-651.8" font-family="Arial" font-size="14.00">    </text>
<text text-anchor="start" x="179.31" y="-651.8" font-family="Arial" font-size="14.00" fill="#666666">[BASE TABLE]</text>
<polygon fill="none" stroke="black" points="43.2,-607.6 43.2,-638.4 279.68,-638.4 279.68,-607.6 43.2,-607.6"/>
<text text-anchor="start" x="50.2" y="-619.8" font-family="Arial" font-size="14.00">id </text>
<text text-anchor="start" x="64.99" y="-619.8" font-family="Arial" font-size="14.00" fill="#666666">[bigint unsigned]</text>
<polygon fill="none" stroke="black" points="43.2,-576.8 43.2,-607.6 279.68,-607.6 279.68,-576.8 43.2,-576.8"/>
<text text-anchor="start" x="50.2" y="-589" font-family="Arial" font-size="14.00">shop_id </text>
<text text-anchor="start" x="103.13" y="-589" font-family="Arial" font-size="14.00" fill="#666666">[bigint unsigned]</text>
<polygon fill="none" stroke="black" points="43.2,-546 43.2,-576.8 279.68,-576.8 279.68,-546 43.2,-546"/>
<text text-anchor="start" x="50.2" y="-558.2" font-family="Arial" font-size="14.00">product_id </text>
<text text-anchor="start" x="119.47" y="-558.2" font-family="Arial" font-size="14.00" fill="#666666">[bigint unsigned]</text>
<polygon fill="none" stroke="black" points="43.2,-515.2 43.2,-546 279.68,-546 279.68,-515.2 43.2,-515.2"/>
<text text-anchor="start" x="50.2" y="-527.4" font-family="Arial" font-size="14.00">created_at </text>
<text text-anchor="start" x="120.25" y="-527.4" font-family="Arial" font-size="14.00" fill="#666666">[timestamp]</text>
<polygon fill="none" stroke="black" points="43.2,-484.4 43.2,-515.2 279.68,-515.2 279.68,-484.4 43.2,-484.4"/>
<text text-anchor="start" x="50.2" y="-496.6" font-family="Arial" font-size="14.00">updated_at </text>
<text text-anchor="start" x="124.16" y="-496.6" font-family="Arial" font-size="14.00" fill="#666666">[timestamp]</text>
</g>
<!-- shop_product&#45;&gt;shops -->
<g id="edge1" class="edge">
<title>shop_product:shop_id&#45;&gt;shops:id</title>
<path fill="none" stroke="black" d="M290.59,-589.57C340.81,-560.92 312.07,-308 252.19,-308"/>
<polygon fill="black" stroke="black" points="290.67,-589.55 279.85,-587.76 285.51,-590.92 281.33,-592.03 281.33,-592.03 281.33,-592.03 285.51,-590.92 282.16,-596.46 290.67,-589.55"/>
<text text-anchor="start" x="287.68" y="-602.2" font-family="Arial" font-size="10.00">FOREIGN KEY (shop_id) REFERENCES shops (id)</text>
</g>
</g>
</svg>
