<?xml version="1.0" encoding="UTF-8" standalone="no"?>
<!DOCTYPE svg PUBLIC "-//W3C//DTD SVG 1.1//EN"
 "http://www.w3.org/Graphics/SVG/1.1/DTD/svg11.dtd">
<!-- Generated by graphviz version 12.1.2 (20240928.0832)
 -->
<!-- Title: shop_product Pages: 1 -->
<svg width="759pt" height="725pt"
 viewBox="0.00 0.00 759.06 725.20" xmlns="http://www.w3.org/2000/svg" xmlns:xlink="http://www.w3.org/1999/xlink">
<g id="graph0" class="graph" transform="scale(1 1) rotate(0) translate(4 721.2)">
<title>shop_product</title>
<polygon fill="white" stroke="none" points="-4,4 -4,-721.2 755.06,-721.2 755.06,4 -4,4"/>
<!-- shop_product -->
<g id="node1" class="node">
<title>shop_product</title>
<polygon fill="#efefef" stroke="none" points="245.62,-635.4 245.62,-671 482.1,-671 482.1,-635.4 245.62,-635.4"/>
<polygon fill="none" stroke="black" points="245.62,-635.4 245.62,-671 482.1,-671 482.1,-635.4 245.62,-635.4"/>
<text text-anchor="start" x="252.62" y="-648.8" font-family="Arial Bold" font-size="18.00">shop_product</text>
<text text-anchor="start" x="350.61" y="-648.8" font-family="Arial" font-size="14.00">    </text>
<text text-anchor="start" x="381.73" y="-648.8" font-family="Arial" font-size="14.00" fill="#666666">[BASE TABLE]</text>
<polygon fill="none" stroke="black" points="245.62,-604.6 245.62,-635.4 482.1,-635.4 482.1,-604.6 245.62,-604.6"/>
<text text-anchor="start" x="252.62" y="-616.8" font-family="Arial" font-size="14.00">id </text>
<text text-anchor="start" x="267.41" y="-616.8" font-family="Arial" font-size="14.00" fill="#666666">[bigint unsigned]</text>
<polygon fill="none" stroke="black" points="245.62,-573.8 245.62,-604.6 482.1,-604.6 482.1,-573.8 245.62,-573.8"/>
<text text-anchor="start" x="252.62" y="-586" font-family="Arial" font-size="14.00">shop_id </text>
<text text-anchor="start" x="305.55" y="-586" font-family="Arial" font-size="14.00" fill="#666666">[bigint unsigned]</text>
<polygon fill="none" stroke="black" points="245.62,-543 245.62,-573.8 482.1,-573.8 482.1,-543 245.62,-543"/>
<text text-anchor="start" x="252.62" y="-555.2" font-family="Arial" font-size="14.00">product_id </text>
<text text-anchor="start" x="321.89" y="-555.2" font-family="Arial" font-size="14.00" fill="#666666">[bigint unsigned]</text>
<polygon fill="none" stroke="black" points="245.62,-512.2 245.62,-543 482.1,-543 482.1,-512.2 245.62,-512.2"/>
<text text-anchor="start" x="252.62" y="-524.4" font-family="Arial" font-size="14.00">created_at </text>
<text text-anchor="start" x="322.67" y="-524.4" font-family="Arial" font-size="14.00" fill="#666666">[timestamp]</text>
<polygon fill="none" stroke="black" points="245.62,-481.4 245.62,-512.2 482.1,-512.2 482.1,-481.4 245.62,-481.4"/>
<text text-anchor="start" x="252.62" y="-493.6" font-family="Arial" font-size="14.00">updated_at </text>
<text text-anchor="start" x="326.58" y="-493.6" font-family="Arial" font-size="14.00" fill="#666666">[timestamp]</text>
<polygon fill="none" stroke="black" stroke-width="3" points="244.12,-479.9 244.12,-672.5 483.6,-672.5 483.6,-479.9 244.12,-479.9"/>
</g>
<!-- shops -->
<g id="node2" class="node">
<title>shops</title>
<polygon fill="#efefef" stroke="none" points="127.11,-320.4 127.11,-356 306.61,-356 306.61,-320.4 127.11,-320.4"/>
<polygon fill="none" stroke="black" points="127.11,-320.4 127.11,-356 306.61,-356 306.61,-320.4 127.11,-320.4"/>
<text text-anchor="start" x="134.11" y="-333.8" font-family="Arial Bold" font-size="18.00">shops</text>
<text text-anchor="start" x="175.12" y="-333.8" font-family="Arial" font-size="14.00">    </text>
<text text-anchor="start" x="206.24" y="-333.8" font-family="Arial" font-size="14.00" fill="#666666">[BASE TABLE]</text>
<polygon fill="none" stroke="black" points="127.11,-289.6 127.11,-320.4 306.61,-320.4 306.61,-289.6 127.11,-289.6"/>
<text text-anchor="start" x="134.11" y="-301.8" font-family="Arial" font-size="14.00">id </text>
<text text-anchor="start" x="148.9" y="-301.8" font-family="Arial" font-size="14.00" fill="#666666">[bigint unsigned]</text>
<polygon fill="none" stroke="black" points="127.11,-258.8 127.11,-289.6 306.61,-289.6 306.61,-258.8 127.11,-258.8"/>
<text text-anchor="start" x="134.11" y="-271" font-family="Arial" font-size="14.00">kind </text>
<text text-anchor="start" x="163.68" y="-271" font-family="Arial" font-size="14.00" fill="#666666">[tinyint]</text>
<polygon fill="none" stroke="black" points="127.11,-228 127.11,-258.8 306.61,-258.8 306.61,-228 127.11,-228"/>
<text text-anchor="start" x="134.11" y="-240.2" font-family="Arial" font-size="14.00">name </text>
<text text-anchor="start" x="173.02" y="-240.2" font-family="Arial" font-size="14.00" fill="#666666">[varchar(255)]</text>
<polygon fill="none" stroke="black" points="127.11,-197.2 127.11,-228 306.61,-228 306.61,-197.2 127.11,-197.2"/>
<text text-anchor="start" x="134.11" y="-209.4" font-family="Arial" font-size="14.00">tel1 </text>
<text text-anchor="start" x="160.57" y="-209.4" font-family="Arial" font-size="14.00" fill="#666666">[varchar(255)]</text>
<polygon fill="none" stroke="black" points="127.11,-166.4 127.11,-197.2 306.61,-197.2 306.61,-166.4 127.11,-166.4"/>
<text text-anchor="start" x="134.11" y="-178.6" font-family="Arial" font-size="14.00">tel2 </text>
<text text-anchor="start" x="160.57" y="-178.6" font-family="Arial" font-size="14.00" fill="#666666">[varchar(255)]</text>
<polygon fill="none" stroke="black" points="127.11,-135.6 127.11,-166.4 306.61,-166.4 306.61,-135.6 127.11,-135.6"/>
<text text-anchor="start" x="134.11" y="-147.8" font-family="Arial" font-size="14.00">tel3 </text>
<text text-anchor="start" x="160.57" y="-147.8" font-family="Arial" font-size="14.00" fill="#666666">[varchar(255)]</text>
<polygon fill="none" stroke="black" points="127.11,-104.8 127.11,-135.6 306.61,-135.6 306.61,-104.8 127.11,-104.8"/>
<text text-anchor="start" x="134.11" y="-117" font-family="Arial" font-size="14.00">created_at </text>
<text text-anchor="start" x="204.16" y="-117" font-family="Arial" font-size="14.00" fill="#666666">[timestamp]</text>
<polygon fill="none" stroke="black" points="127.11,-74 127.11,-104.8 306.61,-104.8 306.61,-74 127.11,-74"/>
<text text-anchor="start" x="134.11" y="-86.2" font-family="Arial" font-size="14.00">updated_at </text>
<text text-anchor="start" x="208.07" y="-86.2" font-family="Arial" font-size="14.00" fill="#666666">[timestamp]</text>
<polygon fill="none" stroke="black" points="127.11,-43.2 127.11,-74 306.61,-74 306.61,-43.2 127.11,-43.2"/>
<text text-anchor="start" x="134.11" y="-55.4" font-family="Arial" font-size="14.00">deleted_at </text>
<text text-anchor="start" x="203.39" y="-55.4" font-family="Arial" font-size="14.00" fill="#666666">[timestamp]</text>
</g>
<!-- shop_product&#45;&gt;shops -->
<g id="edge1" class="edge">
<title>shop_product:shop_id&#45;&gt;shops:id</title>
<path fill="none" stroke="black" d="M234.3,-588.37C180.03,-578.95 213.36,-491.29 245.62,-435.2 261.32,-407.92 290.86,-426.45 306.61,-399.2 327.56,-362.95 349.48,-305 307.61,-305"/>
<polygon fill="black" stroke="black" points="234.32,-588.37 243.93,-593.66 239.64,-588.8 243.95,-589.15 243.95,-589.15 243.95,-589.15 239.64,-588.8 244.65,-584.69 234.32,-588.37"/>
<text text-anchor="start" x="7" y="-599.2" font-family="Arial" font-size="10.00">FOREIGN KEY (shop_id) REFERENCES shops (id)</text>
</g>
<!-- products -->
<g id="node3" class="node">
<title>products</title>
<polygon fill="#efefef" stroke="none" points="410.62,-320.4 410.62,-356 611.1,-356 611.1,-320.4 410.62,-320.4"/>
<polygon fill="none" stroke="black" points="410.62,-320.4 410.62,-356 611.1,-356 611.1,-320.4 410.62,-320.4"/>
<text text-anchor="start" x="417.62" y="-333.8" font-family="Arial Bold" font-size="18.00">products</text>
<text text-anchor="start" x="479.61" y="-333.8" font-family="Arial" font-size="14.00">    </text>
<text text-anchor="start" x="510.73" y="-333.8" font-family="Arial" font-size="14.00" fill="#666666">[BASE TABLE]</text>
<polygon fill="none" stroke="black" points="410.62,-289.6 410.62,-320.4 611.1,-320.4 611.1,-289.6 410.62,-289.6"/>
<text text-anchor="start" x="417.62" y="-301.8" font-family="Arial" font-size="14.00">id </text>
<text text-anchor="start" x="432.41" y="-301.8" font-family="Arial" font-size="14.00" fill="#666666">[bigint unsigned]</text>
<polygon fill="none" stroke="black" points="410.62,-258.8 410.62,-289.6 611.1,-289.6 611.1,-258.8 410.62,-258.8"/>
<text text-anchor="start" x="417.62" y="-271" font-family="Arial" font-size="14.00">kind </text>
<text text-anchor="start" x="447.19" y="-271" font-family="Arial" font-size="14.00" fill="#666666">[tinyint]</text>
<polygon fill="none" stroke="black" points="410.62,-228 410.62,-258.8 611.1,-258.8 611.1,-228 410.62,-228"/>
<text text-anchor="start" x="417.62" y="-240.2" font-family="Arial" font-size="14.00">name </text>
<text text-anchor="start" x="456.53" y="-240.2" font-family="Arial" font-size="14.00" fill="#666666">[varchar(255)]</text>
<polygon fill="none" stroke="black" points="410.62,-197.2 410.62,-228 611.1,-228 611.1,-197.2 410.62,-197.2"/>
<text text-anchor="start" x="417.62" y="-209.4" font-family="Arial" font-size="14.00">status </text>
<text text-anchor="start" x="458.86" y="-209.4" font-family="Arial" font-size="14.00" fill="#666666">[tinyint]</text>
<polygon fill="none" stroke="black" points="410.62,-166.4 410.62,-197.2 611.1,-197.2 611.1,-166.4 410.62,-166.4"/>
<text text-anchor="start" x="417.62" y="-178.6" font-family="Arial" font-size="14.00">base_price </text>
<text text-anchor="start" x="490" y="-178.6" font-family="Arial" font-size="14.00" fill="#666666">[decimal(8,2)]</text>
<polygon fill="none" stroke="black" points="410.62,-135.6 410.62,-166.4 611.1,-166.4 611.1,-135.6 410.62,-135.6"/>
<text text-anchor="start" x="417.62" y="-147.8" font-family="Arial" font-size="14.00">size </text>
<text text-anchor="start" x="446.41" y="-147.8" font-family="Arial" font-size="14.00" fill="#666666">[decimal(5,2)]</text>
<polygon fill="none" stroke="black" points="410.62,-104.8 410.62,-135.6 611.1,-135.6 611.1,-104.8 410.62,-104.8"/>
<text text-anchor="start" x="417.62" y="-117" font-family="Arial" font-size="14.00">created_at </text>
<text text-anchor="start" x="487.67" y="-117" font-family="Arial" font-size="14.00" fill="#666666">[timestamp]</text>
<polygon fill="none" stroke="black" points="410.62,-74 410.62,-104.8 611.1,-104.8 611.1,-74 410.62,-74"/>
<text text-anchor="start" x="417.62" y="-86.2" font-family="Arial" font-size="14.00">updated_at </text>
<text text-anchor="start" x="491.58" y="-86.2" font-family="Arial" font-size="14.00" fill="#666666">[timestamp]</text>
<polygon fill="none" stroke="black" points="410.62,-43.2 410.62,-74 611.1,-74 611.1,-43.2 410.62,-43.2"/>
<text text-anchor="start" x="417.62" y="-55.4" font-family="Arial" font-size="14.00">deleted_at </text>
<text text-anchor="start" x="486.9" y="-55.4" font-family="Arial" font-size="14.00" fill="#666666">[timestamp]</text>
</g>
<!-- shop_product&#45;&gt;products -->
<g id="edge2" class="edge">
<title>shop_product:product_id&#45;&gt;products:id</title>
<path fill="none" stroke="black" d="M493.47,-557.3C534.07,-547.76 508.97,-478.43 482.1,-435.2 463.32,-404.99 429.44,-429.39 410.62,-399.2 388.47,-363.67 367.75,-305 409.62,-305"/>
<polygon fill="black" stroke="black" points="493.38,-557.31 482.96,-553.89 488.07,-557.87 483.76,-558.33 483.76,-558.33 483.76,-558.33 488.07,-557.87 483.91,-562.84 493.38,-557.31"/>
<text text-anchor="start" x="490.1" y="-568.4" font-family="Arial" font-size="10.00">FOREIGN KEY (product_id) REFERENCES products (id)</text>
</g>
</g>
</svg>
