<?xml version="1.0" encoding="UTF-8" standalone="no"?>
<!DOCTYPE svg PUBLIC "-//W3C//DTD SVG 1.1//EN"
 "http://www.w3.org/Graphics/SVG/1.1/DTD/svg11.dtd">
<!-- Generated by graphviz version 12.1.2 (20240928.0832)
 -->
<!-- Title: users Pages: 1 -->
<svg width="1692pt" height="910pt"
 viewBox="0.00 0.00 1692.35 910.00" xmlns="http://www.w3.org/2000/svg" xmlns:xlink="http://www.w3.org/1999/xlink">
<g id="graph0" class="graph" transform="scale(1 1) rotate(0) translate(4 906)">
<title>users</title>
<polygon fill="white" stroke="none" points="-4,4 -4,-906 1688.35,-906 1688.35,4 -4,4"/>
<!-- users -->
<g id="node1" class="node">
<title>users</title>
<polygon fill="#efefef" stroke="none" points="666.81,-354.2 666.81,-389.8 922.04,-389.8 922.04,-354.2 666.81,-354.2"/>
<polygon fill="none" stroke="black" points="666.81,-354.2 666.81,-389.8 922.04,-389.8 922.04,-354.2 666.81,-354.2"/>
<text text-anchor="start" x="713.68" y="-367.6" font-family="Arial Bold" font-size="18.00">users</text>
<text text-anchor="start" x="750.68" y="-367.6" font-family="Arial" font-size="14.00">    </text>
<text text-anchor="start" x="781.8" y="-367.6" font-family="Arial" font-size="14.00" fill="#666666">[BASE TABLE]</text>
<polygon fill="none" stroke="black" points="666.81,-323.4 666.81,-354.2 922.04,-354.2 922.04,-323.4 666.81,-323.4"/>
<text text-anchor="start" x="673.81" y="-335.6" font-family="Arial" font-size="14.00">id </text>
<text text-anchor="start" x="688.6" y="-335.6" font-family="Arial" font-size="14.00" fill="#666666">[bigint unsigned]</text>
<polygon fill="none" stroke="black" points="666.81,-292.6 666.81,-323.4 922.04,-323.4 922.04,-292.6 666.81,-292.6"/>
<text text-anchor="start" x="673.81" y="-304.8" font-family="Arial" font-size="14.00">status </text>
<text text-anchor="start" x="715.05" y="-304.8" font-family="Arial" font-size="14.00" fill="#666666">[tinyint]</text>
<polygon fill="none" stroke="black" points="666.81,-261.8 666.81,-292.6 922.04,-292.6 922.04,-261.8 666.81,-261.8"/>
<text text-anchor="start" x="673.81" y="-274" font-family="Arial" font-size="14.00">email </text>
<text text-anchor="start" x="711.16" y="-274" font-family="Arial" font-size="14.00" fill="#666666">[varchar(255)]</text>
<polygon fill="none" stroke="black" points="666.81,-231 666.81,-261.8 922.04,-261.8 922.04,-231 666.81,-231"/>
<text text-anchor="start" x="673.81" y="-243.2" font-family="Arial" font-size="14.00">email_verified_at </text>
<text text-anchor="start" x="783.54" y="-243.2" font-family="Arial" font-size="14.00" fill="#666666">[timestamp]</text>
<polygon fill="none" stroke="black" points="666.81,-200.2 666.81,-231 922.04,-231 922.04,-200.2 666.81,-200.2"/>
<text text-anchor="start" x="673.81" y="-212.4" font-family="Arial" font-size="14.00">email_verification_token </text>
<text text-anchor="start" x="827.89" y="-212.4" font-family="Arial" font-size="14.00" fill="#666666">[varchar(255)]</text>
<polygon fill="none" stroke="black" points="666.81,-169.4 666.81,-200.2 922.04,-200.2 922.04,-169.4 666.81,-169.4"/>
<text text-anchor="start" x="673.81" y="-181.6" font-family="Arial" font-size="14.00">password </text>
<text text-anchor="start" x="737.62" y="-181.6" font-family="Arial" font-size="14.00" fill="#666666">[varchar(255)]</text>
<polygon fill="none" stroke="black" points="666.81,-138.6 666.81,-169.4 922.04,-169.4 922.04,-138.6 666.81,-138.6"/>
<text text-anchor="start" x="673.81" y="-150.8" font-family="Arial" font-size="14.00">remember_token </text>
<text text-anchor="start" x="783.53" y="-150.8" font-family="Arial" font-size="14.00" fill="#666666">[varchar(100)]</text>
<polygon fill="none" stroke="black" points="666.81,-107.8 666.81,-138.6 922.04,-138.6 922.04,-107.8 666.81,-107.8"/>
<text text-anchor="start" x="673.81" y="-120" font-family="Arial" font-size="14.00">created_at </text>
<text text-anchor="start" x="743.86" y="-120" font-family="Arial" font-size="14.00" fill="#666666">[timestamp]</text>
<polygon fill="none" stroke="black" points="666.81,-77 666.81,-107.8 922.04,-107.8 922.04,-77 666.81,-77"/>
<text text-anchor="start" x="673.81" y="-89.2" font-family="Arial" font-size="14.00">updated_at </text>
<text text-anchor="start" x="747.77" y="-89.2" font-family="Arial" font-size="14.00" fill="#666666">[timestamp]</text>
<polygon fill="none" stroke="black" points="666.81,-46.2 666.81,-77 922.04,-77 922.04,-46.2 666.81,-46.2"/>
<text text-anchor="start" x="673.81" y="-58.4" font-family="Arial" font-size="14.00">deleted_at </text>
<text text-anchor="start" x="743.1" y="-58.4" font-family="Arial" font-size="14.00" fill="#666666">[timestamp]</text>
<polygon fill="none" stroke="black" stroke-width="3" points="665.31,-44.7 665.31,-391.3 923.54,-391.3 923.54,-44.7 665.31,-44.7"/>
</g>
<!-- cart_products -->
<g id="node2" class="node">
<title>cart_products</title>
<polygon fill="#efefef" stroke="none" points="43.2,-746.2 43.2,-781.8 279.65,-781.8 279.65,-746.2 43.2,-746.2"/>
<polygon fill="none" stroke="black" points="43.2,-746.2 43.2,-781.8 279.65,-781.8 279.65,-746.2 43.2,-746.2"/>
<text text-anchor="start" x="50.2" y="-759.6" font-family="Arial Bold" font-size="18.00">cart_products</text>
<text text-anchor="start" x="148.16" y="-759.6" font-family="Arial" font-size="14.00">    </text>
<text text-anchor="start" x="179.28" y="-759.6" font-family="Arial" font-size="14.00" fill="#666666">[BASE TABLE]</text>
<polygon fill="none" stroke="black" points="43.2,-715.4 43.2,-746.2 279.65,-746.2 279.65,-715.4 43.2,-715.4"/>
<text text-anchor="start" x="50.2" y="-727.6" font-family="Arial" font-size="14.00">id </text>
<text text-anchor="start" x="64.99" y="-727.6" font-family="Arial" font-size="14.00" fill="#666666">[bigint unsigned]</text>
<polygon fill="none" stroke="black" points="43.2,-684.6 43.2,-715.4 279.65,-715.4 279.65,-684.6 43.2,-684.6"/>
<text text-anchor="start" x="50.2" y="-696.8" font-family="Arial" font-size="14.00">user_id </text>
<text text-anchor="start" x="100.01" y="-696.8" font-family="Arial" font-size="14.00" fill="#666666">[bigint unsigned]</text>
<polygon fill="none" stroke="black" points="43.2,-653.8 43.2,-684.6 279.65,-684.6 279.65,-653.8 43.2,-653.8"/>
<text text-anchor="start" x="50.2" y="-666" font-family="Arial" font-size="14.00">product_id </text>
<text text-anchor="start" x="119.47" y="-666" font-family="Arial" font-size="14.00" fill="#666666">[bigint unsigned]</text>
<polygon fill="none" stroke="black" points="43.2,-623 43.2,-653.8 279.65,-653.8 279.65,-623 43.2,-623"/>
<text text-anchor="start" x="50.2" y="-635.2" font-family="Arial" font-size="14.00">created_at </text>
<text text-anchor="start" x="120.25" y="-635.2" font-family="Arial" font-size="14.00" fill="#666666">[timestamp]</text>
<polygon fill="none" stroke="black" points="43.2,-592.2 43.2,-623 279.65,-623 279.65,-592.2 43.2,-592.2"/>
<text text-anchor="start" x="50.2" y="-604.4" font-family="Arial" font-size="14.00">updated_at </text>
<text text-anchor="start" x="124.16" y="-604.4" font-family="Arial" font-size="14.00" fill="#666666">[timestamp]</text>
</g>
<!-- cart_products&#45;&gt;users -->
<g id="edge1" class="edge">
<title>cart_products:user_id&#45;&gt;users:id</title>
<path fill="none" stroke="black" d="M291.05,-699.43C376.02,-689.33 266.55,-548.18 331.43,-472 435.15,-350.21 505.84,-338.8 665.81,-338.8"/>
<polygon fill="black" stroke="black" points="290.97,-699.43 280.74,-695.49 285.64,-699.72 281.32,-699.96 281.32,-699.96 281.32,-699.96 285.64,-699.72 281.23,-704.47 290.97,-699.43"/>
<text text-anchor="start" x="167.57" y="-684" font-family="Arial" font-size="10.00">FOREIGN KEY (user_id) REFERENCES users (id)</text>
</g>
<!-- orders -->
<g id="node3" class="node">
<title>orders</title>
<polygon fill="#efefef" stroke="none" points="383.69,-777 383.69,-812.6 567.16,-812.6 567.16,-777 383.69,-777"/>
<polygon fill="none" stroke="black" points="383.69,-777 383.69,-812.6 567.16,-812.6 567.16,-777 383.69,-777"/>
<text text-anchor="start" x="390.69" y="-790.4" font-family="Arial Bold" font-size="18.00">orders</text>
<text text-anchor="start" x="435.67" y="-790.4" font-family="Arial" font-size="14.00">    </text>
<text text-anchor="start" x="466.79" y="-790.4" font-family="Arial" font-size="14.00" fill="#666666">[BASE TABLE]</text>
<polygon fill="none" stroke="black" points="383.69,-746.2 383.69,-777 567.16,-777 567.16,-746.2 383.69,-746.2"/>
<text text-anchor="start" x="390.69" y="-758.4" font-family="Arial" font-size="14.00">id </text>
<text text-anchor="start" x="405.48" y="-758.4" font-family="Arial" font-size="14.00" fill="#666666">[bigint unsigned]</text>
<polygon fill="none" stroke="black" points="383.69,-715.4 383.69,-746.2 567.16,-746.2 567.16,-715.4 383.69,-715.4"/>
<text text-anchor="start" x="390.69" y="-727.6" font-family="Arial" font-size="14.00">user_id </text>
<text text-anchor="start" x="440.5" y="-727.6" font-family="Arial" font-size="14.00" fill="#666666">[bigint unsigned]</text>
<polygon fill="none" stroke="black" points="383.69,-684.6 383.69,-715.4 567.16,-715.4 567.16,-684.6 383.69,-684.6"/>
<text text-anchor="start" x="390.69" y="-696.8" font-family="Arial" font-size="14.00">status </text>
<text text-anchor="start" x="431.93" y="-696.8" font-family="Arial" font-size="14.00" fill="#666666">[tinyint]</text>
<polygon fill="none" stroke="black" points="383.69,-653.8 383.69,-684.6 567.16,-684.6 567.16,-653.8 383.69,-653.8"/>
<text text-anchor="start" x="390.69" y="-666" font-family="Arial" font-size="14.00">order_at </text>
<text text-anchor="start" x="446.72" y="-666" font-family="Arial" font-size="14.00" fill="#666666">[datetime]</text>
<polygon fill="none" stroke="black" points="383.69,-623 383.69,-653.8 567.16,-653.8 567.16,-623 383.69,-623"/>
<text text-anchor="start" x="390.69" y="-635.2" font-family="Arial" font-size="14.00">note </text>
<text text-anchor="start" x="421.83" y="-635.2" font-family="Arial" font-size="14.00" fill="#666666">[text]</text>
<polygon fill="none" stroke="black" points="383.69,-592.2 383.69,-623 567.16,-623 567.16,-592.2 383.69,-592.2"/>
<text text-anchor="start" x="390.69" y="-604.4" font-family="Arial" font-size="14.00">created_at </text>
<text text-anchor="start" x="460.74" y="-604.4" font-family="Arial" font-size="14.00" fill="#666666">[timestamp]</text>
<polygon fill="none" stroke="black" points="383.69,-561.4 383.69,-592.2 567.16,-592.2 567.16,-561.4 383.69,-561.4"/>
<text text-anchor="start" x="390.69" y="-573.6" font-family="Arial" font-size="14.00">updated_at </text>
<text text-anchor="start" x="464.65" y="-573.6" font-family="Arial" font-size="14.00" fill="#666666">[timestamp]</text>
</g>
<!-- orders&#45;&gt;users -->
<g id="edge2" class="edge">
<title>orders:user_id&#45;&gt;users:id</title>
<path fill="none" stroke="black" d="M578.37,-728.88C651.51,-699.3 579.72,-338.8 665.81,-338.8"/>
<polygon fill="black" stroke="black" points="578.32,-728.88 567.66,-726.32 573.08,-729.87 568.82,-730.68 568.82,-730.68 568.82,-730.68 573.08,-729.87 569.32,-735.16 578.32,-728.88"/>
<text text-anchor="start" x="575.16" y="-740.8" font-family="Arial" font-size="10.00">FOREIGN KEY (user_id) REFERENCES users (id)</text>
</g>
<!-- user_addresses -->
<g id="node4" class="node">
<title>user_addresses</title>
<polygon fill="#efefef" stroke="none" points="671.2,-807.8 671.2,-843.4 917.65,-843.4 917.65,-807.8 671.2,-807.8"/>
<polygon fill="none" stroke="black" points="671.2,-807.8 671.2,-843.4 917.65,-843.4 917.65,-807.8 671.2,-807.8"/>
<text text-anchor="start" x="678.2" y="-821.2" font-family="Arial Bold" font-size="18.00">user_addresses</text>
<text text-anchor="start" x="786.16" y="-821.2" font-family="Arial" font-size="14.00">    </text>
<text text-anchor="start" x="817.28" y="-821.2" font-family="Arial" font-size="14.00" fill="#666666">[BASE TABLE]</text>
<polygon fill="none" stroke="black" points="671.2,-777 671.2,-807.8 917.65,-807.8 917.65,-777 671.2,-777"/>
<text text-anchor="start" x="678.2" y="-789.2" font-family="Arial" font-size="14.00">id </text>
<text text-anchor="start" x="692.99" y="-789.2" font-family="Arial" font-size="14.00" fill="#666666">[bigint unsigned]</text>
<polygon fill="none" stroke="black" points="671.2,-746.2 671.2,-777 917.65,-777 917.65,-746.2 671.2,-746.2"/>
<text text-anchor="start" x="678.2" y="-758.4" font-family="Arial" font-size="14.00">user_id </text>
<text text-anchor="start" x="728.01" y="-758.4" font-family="Arial" font-size="14.00" fill="#666666">[bigint unsigned]</text>
<polygon fill="none" stroke="black" points="671.2,-715.4 671.2,-746.2 917.65,-746.2 917.65,-715.4 671.2,-715.4"/>
<text text-anchor="start" x="678.2" y="-727.6" font-family="Arial" font-size="14.00">zip_code </text>
<text text-anchor="start" x="738.13" y="-727.6" font-family="Arial" font-size="14.00" fill="#666666">[varchar(255)]</text>
<polygon fill="none" stroke="black" points="671.2,-684.6 671.2,-715.4 917.65,-715.4 917.65,-684.6 671.2,-684.6"/>
<text text-anchor="start" x="678.2" y="-696.8" font-family="Arial" font-size="14.00">prefecture </text>
<text text-anchor="start" x="745.12" y="-696.8" font-family="Arial" font-size="14.00" fill="#666666">[varchar(255)]</text>
<polygon fill="none" stroke="black" points="671.2,-653.8 671.2,-684.6 917.65,-684.6 917.65,-653.8 671.2,-653.8"/>
<text text-anchor="start" x="678.2" y="-666" font-family="Arial" font-size="14.00">municipality </text>
<text text-anchor="start" x="755.23" y="-666" font-family="Arial" font-size="14.00" fill="#666666">[varchar(255)]</text>
<polygon fill="none" stroke="black" points="671.2,-623 671.2,-653.8 917.65,-653.8 917.65,-623 671.2,-623"/>
<text text-anchor="start" x="678.2" y="-635.2" font-family="Arial" font-size="14.00">town </text>
<text text-anchor="start" x="711.66" y="-635.2" font-family="Arial" font-size="14.00" fill="#666666">[varchar(255)]</text>
<polygon fill="none" stroke="black" points="671.2,-592.2 671.2,-623 917.65,-623 917.65,-592.2 671.2,-592.2"/>
<text text-anchor="start" x="678.2" y="-604.4" font-family="Arial" font-size="14.00">street </text>
<text text-anchor="start" x="717.1" y="-604.4" font-family="Arial" font-size="14.00" fill="#666666">[varchar(255)]</text>
<polygon fill="none" stroke="black" points="671.2,-561.4 671.2,-592.2 917.65,-592.2 917.65,-561.4 671.2,-561.4"/>
<text text-anchor="start" x="678.2" y="-573.6" font-family="Arial" font-size="14.00">created_at </text>
<text text-anchor="start" x="748.25" y="-573.6" font-family="Arial" font-size="14.00" fill="#666666">[timestamp]</text>
<polygon fill="none" stroke="black" points="671.2,-530.6 671.2,-561.4 917.65,-561.4 917.65,-530.6 671.2,-530.6"/>
<text text-anchor="start" x="678.2" y="-542.8" font-family="Arial" font-size="14.00">updated_at </text>
<text text-anchor="start" x="752.16" y="-542.8" font-family="Arial" font-size="14.00" fill="#666666">[timestamp]</text>
</g>
<!-- user_addresses&#45;&gt;users -->
<g id="edge3" class="edge">
<title>user_addresses:user_id&#45;&gt;users:id</title>
<path fill="none" stroke="black" d="M927.45,-756.25C965.99,-707.31 966.9,-338.8 923.04,-338.8"/>
<polygon fill="black" stroke="black" points="927.48,-756.23 916.6,-757.58 922.93,-759 919.22,-761.25 919.22,-761.25 919.22,-761.25 922.93,-759 921.28,-765.27 927.48,-756.23"/>
<text text-anchor="start" x="685.5" y="-771.6" font-family="Arial" font-size="10.00">FOREIGN KEY (user_id) REFERENCES users (id)</text>
</g>
<!-- user_allergie -->
<g id="node5" class="node">
<title>user_allergie</title>
<polygon fill="#efefef" stroke="none" points="1021.7,-746.2 1021.7,-781.8 1253.15,-781.8 1253.15,-746.2 1021.7,-746.2"/>
<polygon fill="none" stroke="black" points="1021.7,-746.2 1021.7,-781.8 1253.15,-781.8 1253.15,-746.2 1021.7,-746.2"/>
<text text-anchor="start" x="1028.7" y="-759.6" font-family="Arial Bold" font-size="18.00">user_allergie</text>
<text text-anchor="start" x="1121.66" y="-759.6" font-family="Arial" font-size="14.00">    </text>
<text text-anchor="start" x="1152.78" y="-759.6" font-family="Arial" font-size="14.00" fill="#666666">[BASE TABLE]</text>
<polygon fill="none" stroke="black" points="1021.7,-715.4 1021.7,-746.2 1253.15,-746.2 1253.15,-715.4 1021.7,-715.4"/>
<text text-anchor="start" x="1028.7" y="-727.6" font-family="Arial" font-size="14.00">id </text>
<text text-anchor="start" x="1043.49" y="-727.6" font-family="Arial" font-size="14.00" fill="#666666">[bigint unsigned]</text>
<polygon fill="none" stroke="black" points="1021.7,-684.6 1021.7,-715.4 1253.15,-715.4 1253.15,-684.6 1021.7,-684.6"/>
<text text-anchor="start" x="1028.7" y="-696.8" font-family="Arial" font-size="14.00">user_id </text>
<text text-anchor="start" x="1078.51" y="-696.8" font-family="Arial" font-size="14.00" fill="#666666">[bigint unsigned]</text>
<polygon fill="none" stroke="black" points="1021.7,-653.8 1021.7,-684.6 1253.15,-684.6 1253.15,-653.8 1021.7,-653.8"/>
<text text-anchor="start" x="1028.7" y="-666" font-family="Arial" font-size="14.00">allergie_id </text>
<text text-anchor="start" x="1096.41" y="-666" font-family="Arial" font-size="14.00" fill="#666666">[bigint unsigned]</text>
<polygon fill="none" stroke="black" points="1021.7,-623 1021.7,-653.8 1253.15,-653.8 1253.15,-623 1021.7,-623"/>
<text text-anchor="start" x="1028.7" y="-635.2" font-family="Arial" font-size="14.00">created_at </text>
<text text-anchor="start" x="1098.75" y="-635.2" font-family="Arial" font-size="14.00" fill="#666666">[timestamp]</text>
<polygon fill="none" stroke="black" points="1021.7,-592.2 1021.7,-623 1253.15,-623 1253.15,-592.2 1021.7,-592.2"/>
<text text-anchor="start" x="1028.7" y="-604.4" font-family="Arial" font-size="14.00">updated_at </text>
<text text-anchor="start" x="1102.66" y="-604.4" font-family="Arial" font-size="14.00" fill="#666666">[timestamp]</text>
</g>
<!-- user_allergie&#45;&gt;users -->
<g id="edge4" class="edge">
<title>user_allergie:user_id&#45;&gt;users:id</title>
<path fill="none" stroke="black" d="M1010.8,-698.06C943.17,-669.63 1002.62,-338.8 923.04,-338.8"/>
<polygon fill="black" stroke="black" points="1010.56,-698.01 1019.51,-704.35 1015.8,-699.04 1020.05,-699.87 1020.05,-699.87 1020.05,-699.87 1015.8,-699.04 1021.24,-695.52 1010.56,-698.01"/>
<text text-anchor="start" x="787.55" y="-710" font-family="Arial" font-size="10.00">FOREIGN KEY (user_id) REFERENCES users (id)</text>
</g>
<!-- user_personal_infos -->
<g id="node6" class="node">
<title>user_personal_infos</title>
<polygon fill="#efefef" stroke="none" points="1357.7,-823.2 1357.7,-858.8 1641.15,-858.8 1641.15,-823.2 1357.7,-823.2"/>
<polygon fill="none" stroke="black" points="1357.7,-823.2 1357.7,-858.8 1641.15,-858.8 1641.15,-823.2 1357.7,-823.2"/>
<text text-anchor="start" x="1364.7" y="-836.6" font-family="Arial Bold" font-size="18.00">user_personal_infos</text>
<text text-anchor="start" x="1509.66" y="-836.6" font-family="Arial" font-size="14.00">    </text>
<text text-anchor="start" x="1540.78" y="-836.6" font-family="Arial" font-size="14.00" fill="#666666">[BASE TABLE]</text>
<polygon fill="none" stroke="black" points="1357.7,-792.4 1357.7,-823.2 1641.15,-823.2 1641.15,-792.4 1357.7,-792.4"/>
<text text-anchor="start" x="1364.7" y="-804.6" font-family="Arial" font-size="14.00">id </text>
<text text-anchor="start" x="1379.48" y="-804.6" font-family="Arial" font-size="14.00" fill="#666666">[bigint unsigned]</text>
<polygon fill="none" stroke="black" points="1357.7,-761.6 1357.7,-792.4 1641.15,-792.4 1641.15,-761.6 1357.7,-761.6"/>
<text text-anchor="start" x="1364.7" y="-773.8" font-family="Arial" font-size="14.00">user_id </text>
<text text-anchor="start" x="1414.5" y="-773.8" font-family="Arial" font-size="14.00" fill="#666666">[bigint unsigned]</text>
<polygon fill="none" stroke="black" points="1357.7,-730.8 1357.7,-761.6 1641.15,-761.6 1641.15,-730.8 1357.7,-730.8"/>
<text text-anchor="start" x="1364.7" y="-743" font-family="Arial" font-size="14.00">first_name </text>
<text text-anchor="start" x="1433.95" y="-743" font-family="Arial" font-size="14.00" fill="#666666">[varchar(255)]</text>
<polygon fill="none" stroke="black" points="1357.7,-700 1357.7,-730.8 1641.15,-730.8 1641.15,-700 1357.7,-700"/>
<text text-anchor="start" x="1364.7" y="-712.2" font-family="Arial" font-size="14.00">last_name </text>
<text text-anchor="start" x="1433.18" y="-712.2" font-family="Arial" font-size="14.00" fill="#666666">[varchar(255)]</text>
<polygon fill="none" stroke="black" points="1357.7,-669.2 1357.7,-700 1641.15,-700 1641.15,-669.2 1357.7,-669.2"/>
<text text-anchor="start" x="1364.7" y="-681.4" font-family="Arial" font-size="14.00">birthdate </text>
<text text-anchor="start" x="1423.07" y="-681.4" font-family="Arial" font-size="14.00" fill="#666666">[date]</text>
<polygon fill="none" stroke="black" points="1357.7,-638.4 1357.7,-669.2 1641.15,-669.2 1641.15,-638.4 1357.7,-638.4"/>
<text text-anchor="start" x="1364.7" y="-650.6" font-family="Arial" font-size="14.00">tel1 </text>
<text text-anchor="start" x="1391.16" y="-650.6" font-family="Arial" font-size="14.00" fill="#666666">[varchar(255)]</text>
<polygon fill="none" stroke="black" points="1357.7,-607.6 1357.7,-638.4 1641.15,-638.4 1641.15,-607.6 1357.7,-607.6"/>
<text text-anchor="start" x="1364.7" y="-619.8" font-family="Arial" font-size="14.00">tel2 </text>
<text text-anchor="start" x="1391.16" y="-619.8" font-family="Arial" font-size="14.00" fill="#666666">[varchar(255)]</text>
<polygon fill="none" stroke="black" points="1357.7,-576.8 1357.7,-607.6 1641.15,-607.6 1641.15,-576.8 1357.7,-576.8"/>
<text text-anchor="start" x="1364.7" y="-589" font-family="Arial" font-size="14.00">tel3 </text>
<text text-anchor="start" x="1391.16" y="-589" font-family="Arial" font-size="14.00" fill="#666666">[varchar(255)]</text>
<polygon fill="none" stroke="black" points="1357.7,-546 1357.7,-576.8 1641.15,-576.8 1641.15,-546 1357.7,-546"/>
<text text-anchor="start" x="1364.7" y="-558.2" font-family="Arial" font-size="14.00">created_at </text>
<text text-anchor="start" x="1434.75" y="-558.2" font-family="Arial" font-size="14.00" fill="#666666">[timestamp]</text>
<polygon fill="none" stroke="black" points="1357.7,-515.2 1357.7,-546 1641.15,-546 1641.15,-515.2 1357.7,-515.2"/>
<text text-anchor="start" x="1364.7" y="-527.4" font-family="Arial" font-size="14.00">updated_at </text>
<text text-anchor="start" x="1438.66" y="-527.4" font-family="Arial" font-size="14.00" fill="#666666">[timestamp]</text>
</g>
<!-- user_personal_infos&#45;&gt;users -->
<g id="edge5" class="edge">
<title>user_personal_infos:user_id&#45;&gt;users:id</title>
<path fill="none" stroke="black" d="M1346.55,-774.81C1294.41,-749.98 1347.33,-521.65 1305.43,-472 1247.38,-403.24 1013.02,-338.8 923.04,-338.8"/>
<polygon fill="black" stroke="black" points="1346.6,-774.82 1355.42,-781.33 1351.81,-775.94 1356.04,-776.86 1356.04,-776.86 1356.04,-776.86 1351.81,-775.94 1357.32,-772.53 1346.6,-774.82"/>
<text text-anchor="start" x="1123.54" y="-787" font-family="Arial" font-size="10.00">FOREIGN KEY (user_id) REFERENCES users (id)</text>
</g>
</g>
</svg>
