<?xml version="1.0" encoding="UTF-8" standalone="no"?>
<!DOCTYPE svg PUBLIC "-//W3C//DTD SVG 1.1//EN"
 "http://www.w3.org/Graphics/SVG/1.1/DTD/svg11.dtd">
<!-- Generated by graphviz version 12.1.2 (20240928.0832)
 -->
<!-- Title: user_addresses Pages: 1 -->
<svg width="543pt" height="879pt"
 viewBox="0.00 0.00 543.20 879.20" xmlns="http://www.w3.org/2000/svg" xmlns:xlink="http://www.w3.org/1999/xlink">
<g id="graph0" class="graph" transform="scale(1 1) rotate(0) translate(4 875.2)">
<title>user_addresses</title>
<polygon fill="white" stroke="none" points="-4,4 -4,-875.2 539.2,-875.2 539.2,4 -4,4"/>
<!-- user_addresses -->
<g id="node1" class="node">
<title>user_addresses</title>
<polygon fill="#efefef" stroke="none" points="47.59,-789.4 47.59,-825 294.04,-825 294.04,-789.4 47.59,-789.4"/>
<polygon fill="none" stroke="black" points="47.59,-789.4 47.59,-825 294.04,-825 294.04,-789.4 47.59,-789.4"/>
<text text-anchor="start" x="54.59" y="-802.8" font-family="Arial Bold" font-size="18.00">user_addresses</text>
<text text-anchor="start" x="162.55" y="-802.8" font-family="Arial" font-size="14.00">    </text>
<text text-anchor="start" x="193.67" y="-802.8" font-family="Arial" font-size="14.00" fill="#666666">[BASE TABLE]</text>
<polygon fill="none" stroke="black" points="47.59,-758.6 47.59,-789.4 294.04,-789.4 294.04,-758.6 47.59,-758.6"/>
<text text-anchor="start" x="54.59" y="-770.8" font-family="Arial" font-size="14.00">id </text>
<text text-anchor="start" x="69.37" y="-770.8" font-family="Arial" font-size="14.00" fill="#666666">[bigint unsigned]</text>
<polygon fill="none" stroke="black" points="47.59,-727.8 47.59,-758.6 294.04,-758.6 294.04,-727.8 47.59,-727.8"/>
<text text-anchor="start" x="54.59" y="-740" font-family="Arial" font-size="14.00">user_id </text>
<text text-anchor="start" x="104.39" y="-740" font-family="Arial" font-size="14.00" fill="#666666">[bigint unsigned]</text>
<polygon fill="none" stroke="black" points="47.59,-697 47.59,-727.8 294.04,-727.8 294.04,-697 47.59,-697"/>
<text text-anchor="start" x="54.59" y="-709.2" font-family="Arial" font-size="14.00">zip_code </text>
<text text-anchor="start" x="114.52" y="-709.2" font-family="Arial" font-size="14.00" fill="#666666">[varchar(255)]</text>
<polygon fill="none" stroke="black" points="47.59,-666.2 47.59,-697 294.04,-697 294.04,-666.2 47.59,-666.2"/>
<text text-anchor="start" x="54.59" y="-678.4" font-family="Arial" font-size="14.00">prefecture </text>
<text text-anchor="start" x="121.51" y="-678.4" font-family="Arial" font-size="14.00" fill="#666666">[varchar(255)]</text>
<polygon fill="none" stroke="black" points="47.59,-635.4 47.59,-666.2 294.04,-666.2 294.04,-635.4 47.59,-635.4"/>
<text text-anchor="start" x="54.59" y="-647.6" font-family="Arial" font-size="14.00">municipality </text>
<text text-anchor="start" x="131.61" y="-647.6" font-family="Arial" font-size="14.00" fill="#666666">[varchar(255)]</text>
<polygon fill="none" stroke="black" points="47.59,-604.6 47.59,-635.4 294.04,-635.4 294.04,-604.6 47.59,-604.6"/>
<text text-anchor="start" x="54.59" y="-616.8" font-family="Arial" font-size="14.00">town </text>
<text text-anchor="start" x="88.05" y="-616.8" font-family="Arial" font-size="14.00" fill="#666666">[varchar(255)]</text>
<polygon fill="none" stroke="black" points="47.59,-573.8 47.59,-604.6 294.04,-604.6 294.04,-573.8 47.59,-573.8"/>
<text text-anchor="start" x="54.59" y="-586" font-family="Arial" font-size="14.00">street </text>
<text text-anchor="start" x="93.49" y="-586" font-family="Arial" font-size="14.00" fill="#666666">[varchar(255)]</text>
<polygon fill="none" stroke="black" points="47.59,-543 47.59,-573.8 294.04,-573.8 294.04,-543 47.59,-543"/>
<text text-anchor="start" x="54.59" y="-555.2" font-family="Arial" font-size="14.00">created_at </text>
<text text-anchor="start" x="124.63" y="-555.2" font-family="Arial" font-size="14.00" fill="#666666">[timestamp]</text>
<polygon fill="none" stroke="black" points="47.59,-512.2 47.59,-543 294.04,-543 294.04,-512.2 47.59,-512.2"/>
<text text-anchor="start" x="54.59" y="-524.4" font-family="Arial" font-size="14.00">updated_at </text>
<text text-anchor="start" x="128.54" y="-524.4" font-family="Arial" font-size="14.00" fill="#666666">[timestamp]</text>
<polygon fill="none" stroke="black" stroke-width="3" points="46.09,-510.7 46.09,-826.5 295.54,-826.5 295.54,-510.7 46.09,-510.7"/>
</g>
<!-- users -->
<g id="node2" class="node">
<title>users</title>
<polygon fill="#efefef" stroke="none" points="43.2,-351.2 43.2,-386.8 298.43,-386.8 298.43,-351.2 43.2,-351.2"/>
<polygon fill="none" stroke="black" points="43.2,-351.2 43.2,-386.8 298.43,-386.8 298.43,-351.2 43.2,-351.2"/>
<text text-anchor="start" x="90.07" y="-364.6" font-family="Arial Bold" font-size="18.00">users</text>
<text text-anchor="start" x="127.07" y="-364.6" font-family="Arial" font-size="14.00">    </text>
<text text-anchor="start" x="158.18" y="-364.6" font-family="Arial" font-size="14.00" fill="#666666">[BASE TABLE]</text>
<polygon fill="none" stroke="black" points="43.2,-320.4 43.2,-351.2 298.43,-351.2 298.43,-320.4 43.2,-320.4"/>
<text text-anchor="start" x="50.2" y="-332.6" font-family="Arial" font-size="14.00">id </text>
<text text-anchor="start" x="64.99" y="-332.6" font-family="Arial" font-size="14.00" fill="#666666">[bigint unsigned]</text>
<polygon fill="none" stroke="black" points="43.2,-289.6 43.2,-320.4 298.43,-320.4 298.43,-289.6 43.2,-289.6"/>
<text text-anchor="start" x="50.2" y="-301.8" font-family="Arial" font-size="14.00">status </text>
<text text-anchor="start" x="91.44" y="-301.8" font-family="Arial" font-size="14.00" fill="#666666">[tinyint]</text>
<polygon fill="none" stroke="black" points="43.2,-258.8 43.2,-289.6 298.43,-289.6 298.43,-258.8 43.2,-258.8"/>
<text text-anchor="start" x="50.2" y="-271" font-family="Arial" font-size="14.00">email </text>
<text text-anchor="start" x="87.54" y="-271" font-family="Arial" font-size="14.00" fill="#666666">[varchar(255)]</text>
<polygon fill="none" stroke="black" points="43.2,-228 43.2,-258.8 298.43,-258.8 298.43,-228 43.2,-228"/>
<text text-anchor="start" x="50.2" y="-240.2" font-family="Arial" font-size="14.00">email_verified_at </text>
<text text-anchor="start" x="159.92" y="-240.2" font-family="Arial" font-size="14.00" fill="#666666">[timestamp]</text>
<polygon fill="none" stroke="black" points="43.2,-197.2 43.2,-228 298.43,-228 298.43,-197.2 43.2,-197.2"/>
<text text-anchor="start" x="50.2" y="-209.4" font-family="Arial" font-size="14.00">email_verification_token </text>
<text text-anchor="start" x="204.28" y="-209.4" font-family="Arial" font-size="14.00" fill="#666666">[varchar(255)]</text>
<polygon fill="none" stroke="black" points="43.2,-166.4 43.2,-197.2 298.43,-197.2 298.43,-166.4 43.2,-166.4"/>
<text text-anchor="start" x="50.2" y="-178.6" font-family="Arial" font-size="14.00">password </text>
<text text-anchor="start" x="114.01" y="-178.6" font-family="Arial" font-size="14.00" fill="#666666">[varchar(255)]</text>
<polygon fill="none" stroke="black" points="43.2,-135.6 43.2,-166.4 298.43,-166.4 298.43,-135.6 43.2,-135.6"/>
<text text-anchor="start" x="50.2" y="-147.8" font-family="Arial" font-size="14.00">remember_token </text>
<text text-anchor="start" x="159.92" y="-147.8" font-family="Arial" font-size="14.00" fill="#666666">[varchar(100)]</text>
<polygon fill="none" stroke="black" points="43.2,-104.8 43.2,-135.6 298.43,-135.6 298.43,-104.8 43.2,-104.8"/>
<text text-anchor="start" x="50.2" y="-117" font-family="Arial" font-size="14.00">created_at </text>
<text text-anchor="start" x="120.25" y="-117" font-family="Arial" font-size="14.00" fill="#666666">[timestamp]</text>
<polygon fill="none" stroke="black" points="43.2,-74 43.2,-104.8 298.43,-104.8 298.43,-74 43.2,-74"/>
<text text-anchor="start" x="50.2" y="-86.2" font-family="Arial" font-size="14.00">updated_at </text>
<text text-anchor="start" x="124.16" y="-86.2" font-family="Arial" font-size="14.00" fill="#666666">[timestamp]</text>
<polygon fill="none" stroke="black" points="43.2,-43.2 43.2,-74 298.43,-74 298.43,-43.2 43.2,-43.2"/>
<text text-anchor="start" x="50.2" y="-55.4" font-family="Arial" font-size="14.00">deleted_at </text>
<text text-anchor="start" x="119.48" y="-55.4" font-family="Arial" font-size="14.00" fill="#666666">[timestamp]</text>
</g>
<!-- user_addresses&#45;&gt;users -->
<g id="edge1" class="edge">
<title>user_addresses:user_id&#45;&gt;users:id</title>
<path fill="none" stroke="black" d="M305.26,-741.38C385.78,-711.99 386.43,-335.8 299.43,-335.8"/>
<polygon fill="black" stroke="black" points="305.22,-741.39 294.58,-738.71 299.96,-742.32 295.7,-743.08 295.7,-743.08 295.7,-743.08 299.96,-742.32 296.16,-747.57 305.22,-741.39"/>
<text text-anchor="start" x="302.04" y="-753.2" font-family="Arial" font-size="10.00">FOREIGN KEY (user_id) REFERENCES users (id)</text>
</g>
</g>
</svg>
