<?xml version="1.0" encoding="UTF-8" standalone="no"?>
<!DOCTYPE svg PUBLIC "-//W3C//DTD SVG 1.1//EN"
 "http://www.w3.org/Graphics/SVG/1.1/DTD/svg11.dtd">
<!-- Generated by graphviz version 12.1.2 (20240928.0832)
 -->
<!-- Title: allergies Pages: 1 -->
<svg width="686pt" height="602pt"
 viewBox="0.00 0.00 686.34 602.00" xmlns="http://www.w3.org/2000/svg" xmlns:xlink="http://www.w3.org/1999/xlink">
<g id="graph0" class="graph" transform="scale(1 1) rotate(0) translate(4 598)">
<title>allergies</title>
<polygon fill="white" stroke="none" points="-4,4 -4,-598 682.34,-598 682.34,4 -4,4"/>
<!-- allergies -->
<g id="node1" class="node">
<title>allergies</title>
<polygon fill="#efefef" stroke="none" points="245.69,-200.2 245.69,-235.8 445.15,-235.8 445.15,-200.2 245.69,-200.2"/>
<polygon fill="none" stroke="black" points="245.69,-200.2 245.69,-235.8 445.15,-235.8 445.15,-200.2 245.69,-200.2"/>
<text text-anchor="start" x="252.69" y="-213.6" font-family="Arial Bold" font-size="18.00">allergies</text>
<text text-anchor="start" x="313.66" y="-213.6" font-family="Arial" font-size="14.00">    </text>
<text text-anchor="start" x="344.78" y="-213.6" font-family="Arial" font-size="14.00" fill="#666666">[BASE TABLE]</text>
<polygon fill="none" stroke="black" points="245.69,-169.4 245.69,-200.2 445.15,-200.2 445.15,-169.4 245.69,-169.4"/>
<text text-anchor="start" x="252.69" y="-181.6" font-family="Arial" font-size="14.00">id </text>
<text text-anchor="start" x="267.48" y="-181.6" font-family="Arial" font-size="14.00" fill="#666666">[bigint unsigned]</text>
<polygon fill="none" stroke="black" points="245.69,-138.6 245.69,-169.4 445.15,-169.4 445.15,-138.6 245.69,-138.6"/>
<text text-anchor="start" x="252.69" y="-150.8" font-family="Arial" font-size="14.00">kind </text>
<text text-anchor="start" x="282.26" y="-150.8" font-family="Arial" font-size="14.00" fill="#666666">[tinyint]</text>
<polygon fill="none" stroke="black" points="245.69,-107.8 245.69,-138.6 445.15,-138.6 445.15,-107.8 245.69,-107.8"/>
<text text-anchor="start" x="252.69" y="-120" font-family="Arial" font-size="14.00">name </text>
<text text-anchor="start" x="291.6" y="-120" font-family="Arial" font-size="14.00" fill="#666666">[varchar(255)]</text>
<polygon fill="none" stroke="black" points="245.69,-77 245.69,-107.8 445.15,-107.8 445.15,-77 245.69,-77"/>
<text text-anchor="start" x="252.69" y="-89.2" font-family="Arial" font-size="14.00">created_at </text>
<text text-anchor="start" x="322.74" y="-89.2" font-family="Arial" font-size="14.00" fill="#666666">[timestamp]</text>
<polygon fill="none" stroke="black" points="245.69,-46.2 245.69,-77 445.15,-77 445.15,-46.2 245.69,-46.2"/>
<text text-anchor="start" x="252.69" y="-58.4" font-family="Arial" font-size="14.00">updated_at </text>
<text text-anchor="start" x="326.65" y="-58.4" font-family="Arial" font-size="14.00" fill="#666666">[timestamp]</text>
<polygon fill="none" stroke="black" stroke-width="3" points="244.19,-44.7 244.19,-237.3 446.65,-237.3 446.65,-44.7 244.19,-44.7"/>
</g>
<!-- allergie_product -->
<g id="node2" class="node">
<title>allergie_product</title>
<polygon fill="#efefef" stroke="none" points="43.2,-515.2 43.2,-550.8 299.64,-550.8 299.64,-515.2 43.2,-515.2"/>
<polygon fill="none" stroke="black" points="43.2,-515.2 43.2,-550.8 299.64,-550.8 299.64,-515.2 43.2,-515.2"/>
<text text-anchor="start" x="50.2" y="-528.6" font-family="Arial Bold" font-size="18.00">allergie_product</text>
<text text-anchor="start" x="168.15" y="-528.6" font-family="Arial" font-size="14.00">    </text>
<text text-anchor="start" x="199.27" y="-528.6" font-family="Arial" font-size="14.00" fill="#666666">[BASE TABLE]</text>
<polygon fill="none" stroke="black" points="43.2,-484.4 43.2,-515.2 299.64,-515.2 299.64,-484.4 43.2,-484.4"/>
<text text-anchor="start" x="50.2" y="-496.6" font-family="Arial" font-size="14.00">id </text>
<text text-anchor="start" x="64.99" y="-496.6" font-family="Arial" font-size="14.00" fill="#666666">[bigint unsigned]</text>
<polygon fill="none" stroke="black" points="43.2,-453.6 43.2,-484.4 299.64,-484.4 299.64,-453.6 43.2,-453.6"/>
<text text-anchor="start" x="50.2" y="-465.8" font-family="Arial" font-size="14.00">allergie_id </text>
<text text-anchor="start" x="117.91" y="-465.8" font-family="Arial" font-size="14.00" fill="#666666">[bigint unsigned]</text>
<polygon fill="none" stroke="black" points="43.2,-422.8 43.2,-453.6 299.64,-453.6 299.64,-422.8 43.2,-422.8"/>
<text text-anchor="start" x="50.2" y="-435" font-family="Arial" font-size="14.00">product_id </text>
<text text-anchor="start" x="119.47" y="-435" font-family="Arial" font-size="14.00" fill="#666666">[bigint unsigned]</text>
<polygon fill="none" stroke="black" points="43.2,-392 43.2,-422.8 299.64,-422.8 299.64,-392 43.2,-392"/>
<text text-anchor="start" x="50.2" y="-404.2" font-family="Arial" font-size="14.00">created_at </text>
<text text-anchor="start" x="120.25" y="-404.2" font-family="Arial" font-size="14.00" fill="#666666">[timestamp]</text>
<polygon fill="none" stroke="black" points="43.2,-361.2 43.2,-392 299.64,-392 299.64,-361.2 43.2,-361.2"/>
<text text-anchor="start" x="50.2" y="-373.4" font-family="Arial" font-size="14.00">updated_at </text>
<text text-anchor="start" x="124.16" y="-373.4" font-family="Arial" font-size="14.00" fill="#666666">[timestamp]</text>
</g>
<!-- allergie_product&#45;&gt;allergies -->
<g id="edge1" class="edge">
<title>allergie_product:allergie_id&#45;&gt;allergies:id</title>
<path fill="none" stroke="black" d="M310.74,-468.2C363.8,-459.04 329.75,-373.84 299.64,-318 285.96,-292.63 259.42,-307.35 245.69,-282 225.12,-244.01 201.49,-184.8 244.69,-184.8"/>
<polygon fill="black" stroke="black" points="310.94,-468.18 300.61,-464.49 305.62,-468.6 301.31,-468.95 301.31,-468.95 301.31,-468.95 305.62,-468.6 301.33,-473.46 310.94,-468.18"/>
<text text-anchor="start" x="307.64" y="-479" font-family="Arial" font-size="10.00">FOREIGN KEY (allergie_id) REFERENCES allergies (id)</text>
</g>
<!-- user_allergie -->
<g id="node3" class="node">
<title>user_allergie</title>
<polygon fill="#efefef" stroke="none" points="403.7,-515.2 403.7,-550.8 635.14,-550.8 635.14,-515.2 403.7,-515.2"/>
<polygon fill="none" stroke="black" points="403.7,-515.2 403.7,-550.8 635.14,-550.8 635.14,-515.2 403.7,-515.2"/>
<text text-anchor="start" x="410.7" y="-528.6" font-family="Arial Bold" font-size="18.00">user_allergie</text>
<text text-anchor="start" x="503.65" y="-528.6" font-family="Arial" font-size="14.00">    </text>
<text text-anchor="start" x="534.77" y="-528.6" font-family="Arial" font-size="14.00" fill="#666666">[BASE TABLE]</text>
<polygon fill="none" stroke="black" points="403.7,-484.4 403.7,-515.2 635.14,-515.2 635.14,-484.4 403.7,-484.4"/>
<text text-anchor="start" x="410.7" y="-496.6" font-family="Arial" font-size="14.00">id </text>
<text text-anchor="start" x="425.48" y="-496.6" font-family="Arial" font-size="14.00" fill="#666666">[bigint unsigned]</text>
<polygon fill="none" stroke="black" points="403.7,-453.6 403.7,-484.4 635.14,-484.4 635.14,-453.6 403.7,-453.6"/>
<text text-anchor="start" x="410.7" y="-465.8" font-family="Arial" font-size="14.00">user_id </text>
<text text-anchor="start" x="460.5" y="-465.8" font-family="Arial" font-size="14.00" fill="#666666">[bigint unsigned]</text>
<polygon fill="none" stroke="black" points="403.7,-422.8 403.7,-453.6 635.14,-453.6 635.14,-422.8 403.7,-422.8"/>
<text text-anchor="start" x="410.7" y="-435" font-family="Arial" font-size="14.00">allergie_id </text>
<text text-anchor="start" x="478.41" y="-435" font-family="Arial" font-size="14.00" fill="#666666">[bigint unsigned]</text>
<polygon fill="none" stroke="black" points="403.7,-392 403.7,-422.8 635.14,-422.8 635.14,-392 403.7,-392"/>
<text text-anchor="start" x="410.7" y="-404.2" font-family="Arial" font-size="14.00">created_at </text>
<text text-anchor="start" x="480.75" y="-404.2" font-family="Arial" font-size="14.00" fill="#666666">[timestamp]</text>
<polygon fill="none" stroke="black" points="403.7,-361.2 403.7,-392 635.14,-392 635.14,-361.2 403.7,-361.2"/>
<text text-anchor="start" x="410.7" y="-373.4" font-family="Arial" font-size="14.00">updated_at </text>
<text text-anchor="start" x="484.66" y="-373.4" font-family="Arial" font-size="14.00" fill="#666666">[timestamp]</text>
</g>
<!-- user_allergie&#45;&gt;allergies -->
<g id="edge2" class="edge">
<title>user_allergie:allergie_id&#45;&gt;allergies:id</title>
<path fill="none" stroke="black" d="M392.66,-437.17C353.73,-428.23 382.9,-363.1 403.7,-318 413.91,-295.84 434.91,-304.15 445.15,-282 463.28,-242.78 489.35,-184.8 446.15,-184.8"/>
<polygon fill="black" stroke="black" points="392.42,-437.14 401.91,-442.64 397.72,-437.69 402.03,-438.13 402.03,-438.13 402.03,-438.13 397.72,-437.69 402.82,-433.69 392.42,-437.14"/>
<text text-anchor="start" x="409.7" y="-448.2" font-family="Arial" font-size="10.00">FOREIGN KEY (allergie_id) REFERENCES allergies (id)</text>
</g>
</g>
</svg>
