<?xml version="1.0" encoding="UTF-8" standalone="no"?>
<!DOCTYPE svg PUBLIC "-//W3C//DTD SVG 1.1//EN"
 "http://www.w3.org/Graphics/SVG/1.1/DTD/svg11.dtd">
<!-- Generated by graphviz version 12.1.2 (20240928.0832)
 -->
<!-- Title: order_product_stock Pages: 1 -->
<svg width="871pt" height="664pt"
 viewBox="0.00 0.00 871.15 663.60" xmlns="http://www.w3.org/2000/svg" xmlns:xlink="http://www.w3.org/1999/xlink">
<g id="graph0" class="graph" transform="scale(1 1) rotate(0) translate(4 659.6)">
<title>order_product_stock</title>
<polygon fill="white" stroke="none" points="-4,4 -4,-659.6 867.15,-659.6 867.15,4 -4,4"/>
<!-- order_product_stock -->
<g id="node1" class="node">
<title>order_product_stock</title>
<polygon fill="#efefef" stroke="none" points="248.94,-573.8 248.94,-609.4 536.39,-609.4 536.39,-573.8 248.94,-573.8"/>
<polygon fill="none" stroke="black" points="248.94,-573.8 248.94,-609.4 536.39,-609.4 536.39,-573.8 248.94,-573.8"/>
<text text-anchor="start" x="255.94" y="-587.2" font-family="Arial Bold" font-size="18.00">order_product_stock</text>
<text text-anchor="start" x="404.9" y="-587.2" font-family="Arial" font-size="14.00">    </text>
<text text-anchor="start" x="436.01" y="-587.2" font-family="Arial" font-size="14.00" fill="#666666">[BASE TABLE]</text>
<polygon fill="none" stroke="black" points="248.94,-543 248.94,-573.8 536.39,-573.8 536.39,-543 248.94,-543"/>
<text text-anchor="start" x="255.94" y="-555.2" font-family="Arial" font-size="14.00">id </text>
<text text-anchor="start" x="270.73" y="-555.2" font-family="Arial" font-size="14.00" fill="#666666">[bigint unsigned]</text>
<polygon fill="none" stroke="black" points="248.94,-512.2 248.94,-543 536.39,-543 536.39,-512.2 248.94,-512.2"/>
<text text-anchor="start" x="255.94" y="-524.4" font-family="Arial" font-size="14.00">order_id </text>
<text text-anchor="start" x="311.2" y="-524.4" font-family="Arial" font-size="14.00" fill="#666666">[bigint unsigned]</text>
<polygon fill="none" stroke="black" points="248.94,-481.4 248.94,-512.2 536.39,-512.2 536.39,-481.4 248.94,-481.4"/>
<text text-anchor="start" x="255.94" y="-493.6" font-family="Arial" font-size="14.00">product_stock_id </text>
<text text-anchor="start" x="365.67" y="-493.6" font-family="Arial" font-size="14.00" fill="#666666">[bigint unsigned]</text>
<polygon fill="none" stroke="black" points="248.94,-450.6 248.94,-481.4 536.39,-481.4 536.39,-450.6 248.94,-450.6"/>
<text text-anchor="start" x="255.94" y="-462.8" font-family="Arial" font-size="14.00">created_at </text>
<text text-anchor="start" x="325.99" y="-462.8" font-family="Arial" font-size="14.00" fill="#666666">[timestamp]</text>
<polygon fill="none" stroke="black" points="248.94,-419.8 248.94,-450.6 536.39,-450.6 536.39,-419.8 248.94,-419.8"/>
<text text-anchor="start" x="255.94" y="-432" font-family="Arial" font-size="14.00">updated_at </text>
<text text-anchor="start" x="329.9" y="-432" font-family="Arial" font-size="14.00" fill="#666666">[timestamp]</text>
<polygon fill="none" stroke="black" stroke-width="3" points="247.44,-418.3 247.44,-610.9 537.89,-610.9 537.89,-418.3 247.44,-418.3"/>
</g>
<!-- orders -->
<g id="node2" class="node">
<title>orders</title>
<polygon fill="#efefef" stroke="none" points="140.93,-258.8 140.93,-294.4 324.4,-294.4 324.4,-258.8 140.93,-258.8"/>
<polygon fill="none" stroke="black" points="140.93,-258.8 140.93,-294.4 324.4,-294.4 324.4,-258.8 140.93,-258.8"/>
<text text-anchor="start" x="147.93" y="-272.2" font-family="Arial Bold" font-size="18.00">orders</text>
<text text-anchor="start" x="192.91" y="-272.2" font-family="Arial" font-size="14.00">    </text>
<text text-anchor="start" x="224.03" y="-272.2" font-family="Arial" font-size="14.00" fill="#666666">[BASE TABLE]</text>
<polygon fill="none" stroke="black" points="140.93,-228 140.93,-258.8 324.4,-258.8 324.4,-228 140.93,-228"/>
<text text-anchor="start" x="147.93" y="-240.2" font-family="Arial" font-size="14.00">id </text>
<text text-anchor="start" x="162.71" y="-240.2" font-family="Arial" font-size="14.00" fill="#666666">[bigint unsigned]</text>
<polygon fill="none" stroke="black" points="140.93,-197.2 140.93,-228 324.4,-228 324.4,-197.2 140.93,-197.2"/>
<text text-anchor="start" x="147.93" y="-209.4" font-family="Arial" font-size="14.00">user_id </text>
<text text-anchor="start" x="197.73" y="-209.4" font-family="Arial" font-size="14.00" fill="#666666">[bigint unsigned]</text>
<polygon fill="none" stroke="black" points="140.93,-166.4 140.93,-197.2 324.4,-197.2 324.4,-166.4 140.93,-166.4"/>
<text text-anchor="start" x="147.93" y="-178.6" font-family="Arial" font-size="14.00">status </text>
<text text-anchor="start" x="189.17" y="-178.6" font-family="Arial" font-size="14.00" fill="#666666">[tinyint]</text>
<polygon fill="none" stroke="black" points="140.93,-135.6 140.93,-166.4 324.4,-166.4 324.4,-135.6 140.93,-135.6"/>
<text text-anchor="start" x="147.93" y="-147.8" font-family="Arial" font-size="14.00">order_at </text>
<text text-anchor="start" x="203.96" y="-147.8" font-family="Arial" font-size="14.00" fill="#666666">[datetime]</text>
<polygon fill="none" stroke="black" points="140.93,-104.8 140.93,-135.6 324.4,-135.6 324.4,-104.8 140.93,-104.8"/>
<text text-anchor="start" x="147.93" y="-117" font-family="Arial" font-size="14.00">note </text>
<text text-anchor="start" x="179.07" y="-117" font-family="Arial" font-size="14.00" fill="#666666">[text]</text>
<polygon fill="none" stroke="black" points="140.93,-74 140.93,-104.8 324.4,-104.8 324.4,-74 140.93,-74"/>
<text text-anchor="start" x="147.93" y="-86.2" font-family="Arial" font-size="14.00">created_at </text>
<text text-anchor="start" x="217.98" y="-86.2" font-family="Arial" font-size="14.00" fill="#666666">[timestamp]</text>
<polygon fill="none" stroke="black" points="140.93,-43.2 140.93,-74 324.4,-74 324.4,-43.2 140.93,-43.2"/>
<text text-anchor="start" x="147.93" y="-55.4" font-family="Arial" font-size="14.00">updated_at </text>
<text text-anchor="start" x="221.89" y="-55.4" font-family="Arial" font-size="14.00" fill="#666666">[timestamp]</text>
</g>
<!-- order_product_stock&#45;&gt;orders -->
<g id="edge1" class="edge">
<title>order_product_stock:order_id&#45;&gt;orders:id</title>
<path fill="none" stroke="black" d="M237.6,-526.76C183.09,-517.19 214.24,-428.21 248.94,-373.6 268.87,-342.24 304.41,-368.92 324.4,-337.6 346.93,-302.31 367.27,-243.4 325.4,-243.4"/>
<polygon fill="black" stroke="black" points="237.64,-526.76 247.24,-532.06 242.96,-527.19 247.27,-527.55 247.27,-527.55 247.27,-527.55 242.96,-527.19 247.97,-523.09 237.64,-526.76"/>
<text text-anchor="start" x="7" y="-537.6" font-family="Arial" font-size="10.00">FOREIGN KEY (order_id) REFERENCES orders (id)</text>
</g>
<!-- product_stocks -->
<g id="node3" class="node">
<title>product_stocks</title>
<polygon fill="#efefef" stroke="none" points="428.93,-212.6 428.93,-248.2 676.4,-248.2 676.4,-212.6 428.93,-212.6"/>
<polygon fill="none" stroke="black" points="428.93,-212.6 428.93,-248.2 676.4,-248.2 676.4,-212.6 428.93,-212.6"/>
<text text-anchor="start" x="435.93" y="-226" font-family="Arial Bold" font-size="18.00">product_stocks</text>
<text text-anchor="start" x="544.91" y="-226" font-family="Arial" font-size="14.00">    </text>
<text text-anchor="start" x="576.03" y="-226" font-family="Arial" font-size="14.00" fill="#666666">[BASE TABLE]</text>
<polygon fill="none" stroke="black" points="428.93,-181.8 428.93,-212.6 676.4,-212.6 676.4,-181.8 428.93,-181.8"/>
<text text-anchor="start" x="435.93" y="-194" font-family="Arial" font-size="14.00">id </text>
<text text-anchor="start" x="450.71" y="-194" font-family="Arial" font-size="14.00" fill="#666666">[bigint unsigned]</text>
<polygon fill="none" stroke="black" points="428.93,-151 428.93,-181.8 676.4,-181.8 676.4,-151 428.93,-151"/>
<text text-anchor="start" x="435.93" y="-163.2" font-family="Arial" font-size="14.00">product_id </text>
<text text-anchor="start" x="505.2" y="-163.2" font-family="Arial" font-size="14.00" fill="#666666">[bigint unsigned]</text>
<polygon fill="none" stroke="black" points="428.93,-120.2 428.93,-151 676.4,-151 676.4,-120.2 428.93,-120.2"/>
<text text-anchor="start" x="435.93" y="-132.4" font-family="Arial" font-size="14.00">created_at </text>
<text text-anchor="start" x="505.97" y="-132.4" font-family="Arial" font-size="14.00" fill="#666666">[timestamp]</text>
<polygon fill="none" stroke="black" points="428.93,-89.4 428.93,-120.2 676.4,-120.2 676.4,-89.4 428.93,-89.4"/>
<text text-anchor="start" x="435.93" y="-101.6" font-family="Arial" font-size="14.00">updated_at </text>
<text text-anchor="start" x="509.88" y="-101.6" font-family="Arial" font-size="14.00" fill="#666666">[timestamp]</text>
</g>
<!-- order_product_stock&#45;&gt;product_stocks -->
<g id="edge2" class="edge">
<title>order_product_stock:product_stock_id&#45;&gt;product_stocks:id</title>
<path fill="none" stroke="black" d="M547.69,-495.73C587.78,-486.49 559.12,-419.15 536.39,-373.6 509.53,-319.8 455.85,-345.17 428.93,-291.4 410.18,-253.96 386.06,-197.2 427.93,-197.2"/>
<polygon fill="black" stroke="black" points="547.67,-495.74 537.26,-492.29 542.36,-496.29 538.05,-496.73 538.05,-496.73 538.05,-496.73 542.36,-496.29 538.18,-501.24 547.67,-495.74"/>
<text text-anchor="start" x="544.39" y="-506.8" font-family="Arial" font-size="10.00">FOREIGN KEY (product_stock_id) REFERENCES product_stocks (id)</text>
</g>
</g>
</svg>
