<?xml version="1.0" encoding="UTF-8" standalone="no"?>
<!DOCTYPE svg PUBLIC "-//W3C//DTD SVG 1.1//EN"
 "http://www.w3.org/Graphics/SVG/1.1/DTD/svg11.dtd">
<!-- Generated by graphviz version 12.1.2 (20240928.0832)
 -->
<!-- Title: products Pages: 1 -->
<svg width="2392pt" height="787pt"
 viewBox="0.00 0.00 2391.86 786.80" xmlns="http://www.w3.org/2000/svg" xmlns:xlink="http://www.w3.org/1999/xlink">
<g id="graph0" class="graph" transform="scale(1 1) rotate(0) translate(4 782.8)">
<title>products</title>
<polygon fill="white" stroke="none" points="-4,4 -4,-782.8 2387.86,-782.8 2387.86,4 -4,4"/>
<!-- products -->
<g id="node1" class="node">
<title>products</title>
<polygon fill="#efefef" stroke="none" points="1092.18,-323.4 1092.18,-359 1292.66,-359 1292.66,-323.4 1092.18,-323.4"/>
<polygon fill="none" stroke="black" points="1092.18,-323.4 1092.18,-359 1292.66,-359 1292.66,-323.4 1092.18,-323.4"/>
<text text-anchor="start" x="1099.18" y="-336.8" font-family="Arial Bold" font-size="18.00">products</text>
<text text-anchor="start" x="1161.17" y="-336.8" font-family="Arial" font-size="14.00">    </text>
<text text-anchor="start" x="1192.29" y="-336.8" font-family="Arial" font-size="14.00" fill="#666666">[BASE TABLE]</text>
<polygon fill="none" stroke="black" points="1092.18,-292.6 1092.18,-323.4 1292.66,-323.4 1292.66,-292.6 1092.18,-292.6"/>
<text text-anchor="start" x="1099.18" y="-304.8" font-family="Arial" font-size="14.00">id </text>
<text text-anchor="start" x="1113.97" y="-304.8" font-family="Arial" font-size="14.00" fill="#666666">[bigint unsigned]</text>
<polygon fill="none" stroke="black" points="1092.18,-261.8 1092.18,-292.6 1292.66,-292.6 1292.66,-261.8 1092.18,-261.8"/>
<text text-anchor="start" x="1099.18" y="-274" font-family="Arial" font-size="14.00">kind </text>
<text text-anchor="start" x="1128.75" y="-274" font-family="Arial" font-size="14.00" fill="#666666">[tinyint]</text>
<polygon fill="none" stroke="black" points="1092.18,-231 1092.18,-261.8 1292.66,-261.8 1292.66,-231 1092.18,-231"/>
<text text-anchor="start" x="1099.18" y="-243.2" font-family="Arial" font-size="14.00">name </text>
<text text-anchor="start" x="1138.09" y="-243.2" font-family="Arial" font-size="14.00" fill="#666666">[varchar(255)]</text>
<polygon fill="none" stroke="black" points="1092.18,-200.2 1092.18,-231 1292.66,-231 1292.66,-200.2 1092.18,-200.2"/>
<text text-anchor="start" x="1099.18" y="-212.4" font-family="Arial" font-size="14.00">status </text>
<text text-anchor="start" x="1140.42" y="-212.4" font-family="Arial" font-size="14.00" fill="#666666">[tinyint]</text>
<polygon fill="none" stroke="black" points="1092.18,-169.4 1092.18,-200.2 1292.66,-200.2 1292.66,-169.4 1092.18,-169.4"/>
<text text-anchor="start" x="1099.18" y="-181.6" font-family="Arial" font-size="14.00">base_price </text>
<text text-anchor="start" x="1171.56" y="-181.6" font-family="Arial" font-size="14.00" fill="#666666">[decimal(8,2)]</text>
<polygon fill="none" stroke="black" points="1092.18,-138.6 1092.18,-169.4 1292.66,-169.4 1292.66,-138.6 1092.18,-138.6"/>
<text text-anchor="start" x="1099.18" y="-150.8" font-family="Arial" font-size="14.00">size </text>
<text text-anchor="start" x="1127.97" y="-150.8" font-family="Arial" font-size="14.00" fill="#666666">[decimal(5,2)]</text>
<polygon fill="none" stroke="black" points="1092.18,-107.8 1092.18,-138.6 1292.66,-138.6 1292.66,-107.8 1092.18,-107.8"/>
<text text-anchor="start" x="1099.18" y="-120" font-family="Arial" font-size="14.00">created_at </text>
<text text-anchor="start" x="1169.23" y="-120" font-family="Arial" font-size="14.00" fill="#666666">[timestamp]</text>
<polygon fill="none" stroke="black" points="1092.18,-77 1092.18,-107.8 1292.66,-107.8 1292.66,-77 1092.18,-77"/>
<text text-anchor="start" x="1099.18" y="-89.2" font-family="Arial" font-size="14.00">updated_at </text>
<text text-anchor="start" x="1173.14" y="-89.2" font-family="Arial" font-size="14.00" fill="#666666">[timestamp]</text>
<polygon fill="none" stroke="black" points="1092.18,-46.2 1092.18,-77 1292.66,-77 1292.66,-46.2 1092.18,-46.2"/>
<text text-anchor="start" x="1099.18" y="-58.4" font-family="Arial" font-size="14.00">deleted_at </text>
<text text-anchor="start" x="1168.46" y="-58.4" font-family="Arial" font-size="14.00" fill="#666666">[timestamp]</text>
<polygon fill="none" stroke="black" stroke-width="3" points="1090.68,-44.7 1090.68,-360.5 1294.16,-360.5 1294.16,-44.7 1090.68,-44.7"/>
</g>
<!-- allergie_product -->
<g id="node2" class="node">
<title>allergie_product</title>
<polygon fill="#efefef" stroke="none" points="43.2,-669.2 43.2,-704.8 299.64,-704.8 299.64,-669.2 43.2,-669.2"/>
<polygon fill="none" stroke="black" points="43.2,-669.2 43.2,-704.8 299.64,-704.8 299.64,-669.2 43.2,-669.2"/>
<text text-anchor="start" x="50.2" y="-682.6" font-family="Arial Bold" font-size="18.00">allergie_product</text>
<text text-anchor="start" x="168.15" y="-682.6" font-family="Arial" font-size="14.00">    </text>
<text text-anchor="start" x="199.27" y="-682.6" font-family="Arial" font-size="14.00" fill="#666666">[BASE TABLE]</text>
<polygon fill="none" stroke="black" points="43.2,-638.4 43.2,-669.2 299.64,-669.2 299.64,-638.4 43.2,-638.4"/>
<text text-anchor="start" x="50.2" y="-650.6" font-family="Arial" font-size="14.00">id </text>
<text text-anchor="start" x="64.99" y="-650.6" font-family="Arial" font-size="14.00" fill="#666666">[bigint unsigned]</text>
<polygon fill="none" stroke="black" points="43.2,-607.6 43.2,-638.4 299.64,-638.4 299.64,-607.6 43.2,-607.6"/>
<text text-anchor="start" x="50.2" y="-619.8" font-family="Arial" font-size="14.00">allergie_id </text>
<text text-anchor="start" x="117.91" y="-619.8" font-family="Arial" font-size="14.00" fill="#666666">[bigint unsigned]</text>
<polygon fill="none" stroke="black" points="43.2,-576.8 43.2,-607.6 299.64,-607.6 299.64,-576.8 43.2,-576.8"/>
<text text-anchor="start" x="50.2" y="-589" font-family="Arial" font-size="14.00">product_id </text>
<text text-anchor="start" x="119.47" y="-589" font-family="Arial" font-size="14.00" fill="#666666">[bigint unsigned]</text>
<polygon fill="none" stroke="black" points="43.2,-546 43.2,-576.8 299.64,-576.8 299.64,-546 43.2,-546"/>
<text text-anchor="start" x="50.2" y="-558.2" font-family="Arial" font-size="14.00">created_at </text>
<text text-anchor="start" x="120.25" y="-558.2" font-family="Arial" font-size="14.00" fill="#666666">[timestamp]</text>
<polygon fill="none" stroke="black" points="43.2,-515.2 43.2,-546 299.64,-546 299.64,-515.2 43.2,-515.2"/>
<text text-anchor="start" x="50.2" y="-527.4" font-family="Arial" font-size="14.00">updated_at </text>
<text text-anchor="start" x="124.16" y="-527.4" font-family="Arial" font-size="14.00" fill="#666666">[timestamp]</text>
</g>
<!-- allergie_product&#45;&gt;products -->
<g id="edge1" class="edge">
<title>allergie_product:product_id&#45;&gt;products:id</title>
<path fill="none" stroke="black" d="M311.03,-591.29C363.98,-580.91 301.53,-484.89 352.42,-441.2 478.99,-332.54 924.36,-308 1091.18,-308"/>
<polygon fill="black" stroke="black" points="310.93,-591.3 300.58,-587.69 305.62,-591.76 301.3,-592.14 301.3,-592.14 301.3,-592.14 305.62,-591.76 301.37,-596.65 310.93,-591.3"/>
<text text-anchor="start" x="173.66" y="-576.2" font-family="Arial" font-size="10.00">FOREIGN KEY (product_id) REFERENCES products (id)</text>
</g>
<!-- cake_infos -->
<g id="node3" class="node">
<title>cake_infos</title>
<polygon fill="#efefef" stroke="none" points="404.19,-700 404.19,-735.6 620.65,-735.6 620.65,-700 404.19,-700"/>
<polygon fill="none" stroke="black" points="404.19,-700 404.19,-735.6 620.65,-735.6 620.65,-700 404.19,-700"/>
<text text-anchor="start" x="411.19" y="-713.4" font-family="Arial Bold" font-size="18.00">cake_infos</text>
<text text-anchor="start" x="489.16" y="-713.4" font-family="Arial" font-size="14.00">    </text>
<text text-anchor="start" x="520.28" y="-713.4" font-family="Arial" font-size="14.00" fill="#666666">[BASE TABLE]</text>
<polygon fill="none" stroke="black" points="404.19,-669.2 404.19,-700 620.65,-700 620.65,-669.2 404.19,-669.2"/>
<text text-anchor="start" x="411.19" y="-681.4" font-family="Arial" font-size="14.00">id </text>
<text text-anchor="start" x="425.98" y="-681.4" font-family="Arial" font-size="14.00" fill="#666666">[bigint unsigned]</text>
<polygon fill="none" stroke="black" points="404.19,-638.4 404.19,-669.2 620.65,-669.2 620.65,-638.4 404.19,-638.4"/>
<text text-anchor="start" x="411.19" y="-650.6" font-family="Arial" font-size="14.00">product_id </text>
<text text-anchor="start" x="480.46" y="-650.6" font-family="Arial" font-size="14.00" fill="#666666">[bigint unsigned]</text>
<polygon fill="none" stroke="black" points="404.19,-607.6 404.19,-638.4 620.65,-638.4 620.65,-607.6 404.19,-607.6"/>
<text text-anchor="start" x="411.19" y="-619.8" font-family="Arial" font-size="14.00">catchphrase </text>
<text text-anchor="start" x="491.35" y="-619.8" font-family="Arial" font-size="14.00" fill="#666666">[varchar(255)]</text>
<polygon fill="none" stroke="black" points="404.19,-576.8 404.19,-607.6 620.65,-607.6 620.65,-576.8 404.19,-576.8"/>
<text text-anchor="start" x="411.19" y="-589" font-family="Arial" font-size="14.00">calorie </text>
<text text-anchor="start" x="456.32" y="-589" font-family="Arial" font-size="14.00" fill="#666666">[decimal(6,2)]</text>
<polygon fill="none" stroke="black" points="404.19,-546 404.19,-576.8 620.65,-576.8 620.65,-546 404.19,-546"/>
<text text-anchor="start" x="411.19" y="-558.2" font-family="Arial" font-size="14.00">description </text>
<text text-anchor="start" x="482.78" y="-558.2" font-family="Arial" font-size="14.00" fill="#666666">[text]</text>
<polygon fill="none" stroke="black" points="404.19,-515.2 404.19,-546 620.65,-546 620.65,-515.2 404.19,-515.2"/>
<text text-anchor="start" x="411.19" y="-527.4" font-family="Arial" font-size="14.00">created_at </text>
<text text-anchor="start" x="481.24" y="-527.4" font-family="Arial" font-size="14.00" fill="#666666">[timestamp]</text>
<polygon fill="none" stroke="black" points="404.19,-484.4 404.19,-515.2 620.65,-515.2 620.65,-484.4 404.19,-484.4"/>
<text text-anchor="start" x="411.19" y="-496.6" font-family="Arial" font-size="14.00">updated_at </text>
<text text-anchor="start" x="485.15" y="-496.6" font-family="Arial" font-size="14.00" fill="#666666">[timestamp]</text>
</g>
<!-- cake_infos&#45;&gt;products -->
<g id="edge2" class="edge">
<title>cake_infos:product_id&#45;&gt;products:id</title>
<path fill="none" stroke="black" d="M631.63,-653.23C710.85,-643.4 609.56,-509.68 673.42,-441.2 739.87,-369.94 993.74,-308 1091.18,-308"/>
<polygon fill="black" stroke="black" points="631.97,-653.21 621.72,-649.29 626.64,-653.51 622.32,-653.76 622.32,-653.76 622.32,-653.76 626.64,-653.51 622.24,-658.27 631.97,-653.21"/>
<text text-anchor="start" x="628.65" y="-663.8" font-family="Arial" font-size="10.00">FOREIGN KEY (product_id) REFERENCES products (id)</text>
</g>
<!-- cart_products -->
<g id="node4" class="node">
<title>cart_products</title>
<polygon fill="#efefef" stroke="none" points="725.19,-669.2 725.19,-704.8 961.65,-704.8 961.65,-669.2 725.19,-669.2"/>
<polygon fill="none" stroke="black" points="725.19,-669.2 725.19,-704.8 961.65,-704.8 961.65,-669.2 725.19,-669.2"/>
<text text-anchor="start" x="732.19" y="-682.6" font-family="Arial Bold" font-size="18.00">cart_products</text>
<text text-anchor="start" x="830.16" y="-682.6" font-family="Arial" font-size="14.00">    </text>
<text text-anchor="start" x="861.27" y="-682.6" font-family="Arial" font-size="14.00" fill="#666666">[BASE TABLE]</text>
<polygon fill="none" stroke="black" points="725.19,-638.4 725.19,-669.2 961.65,-669.2 961.65,-638.4 725.19,-638.4"/>
<text text-anchor="start" x="732.19" y="-650.6" font-family="Arial" font-size="14.00">id </text>
<text text-anchor="start" x="746.98" y="-650.6" font-family="Arial" font-size="14.00" fill="#666666">[bigint unsigned]</text>
<polygon fill="none" stroke="black" points="725.19,-607.6 725.19,-638.4 961.65,-638.4 961.65,-607.6 725.19,-607.6"/>
<text text-anchor="start" x="732.19" y="-619.8" font-family="Arial" font-size="14.00">user_id </text>
<text text-anchor="start" x="782" y="-619.8" font-family="Arial" font-size="14.00" fill="#666666">[bigint unsigned]</text>
<polygon fill="none" stroke="black" points="725.19,-576.8 725.19,-607.6 961.65,-607.6 961.65,-576.8 725.19,-576.8"/>
<text text-anchor="start" x="732.19" y="-589" font-family="Arial" font-size="14.00">product_id </text>
<text text-anchor="start" x="801.46" y="-589" font-family="Arial" font-size="14.00" fill="#666666">[bigint unsigned]</text>
<polygon fill="none" stroke="black" points="725.19,-546 725.19,-576.8 961.65,-576.8 961.65,-546 725.19,-546"/>
<text text-anchor="start" x="732.19" y="-558.2" font-family="Arial" font-size="14.00">created_at </text>
<text text-anchor="start" x="802.24" y="-558.2" font-family="Arial" font-size="14.00" fill="#666666">[timestamp]</text>
<polygon fill="none" stroke="black" points="725.19,-515.2 725.19,-546 961.65,-546 961.65,-515.2 725.19,-515.2"/>
<text text-anchor="start" x="732.19" y="-527.4" font-family="Arial" font-size="14.00">updated_at </text>
<text text-anchor="start" x="806.15" y="-527.4" font-family="Arial" font-size="14.00" fill="#666666">[timestamp]</text>
</g>
<!-- cart_products&#45;&gt;products -->
<g id="edge3" class="edge">
<title>cart_products:product_id&#45;&gt;products:id</title>
<path fill="none" stroke="black" d="M972.87,-591.49C1028.47,-583.13 985.68,-502.26 1013.42,-441.2 1041.77,-378.79 1022.63,-308 1091.18,-308"/>
<polygon fill="black" stroke="black" points="972.96,-591.49 962.67,-587.69 967.63,-591.86 963.31,-592.15 963.31,-592.15 963.31,-592.15 967.63,-591.86 963.29,-596.67 972.96,-591.49"/>
<text text-anchor="start" x="969.65" y="-602.2" font-family="Arial" font-size="10.00">FOREIGN KEY (product_id) REFERENCES products (id)</text>
</g>
<!-- product_images -->
<g id="node5" class="node">
<title>product_images</title>
<polygon fill="#efefef" stroke="none" points="1065.69,-669.2 1065.69,-704.8 1319.15,-704.8 1319.15,-669.2 1065.69,-669.2"/>
<polygon fill="none" stroke="black" points="1065.69,-669.2 1065.69,-704.8 1319.15,-704.8 1319.15,-669.2 1065.69,-669.2"/>
<text text-anchor="start" x="1072.69" y="-682.6" font-family="Arial Bold" font-size="18.00">product_images</text>
<text text-anchor="start" x="1187.66" y="-682.6" font-family="Arial" font-size="14.00">    </text>
<text text-anchor="start" x="1218.78" y="-682.6" font-family="Arial" font-size="14.00" fill="#666666">[BASE TABLE]</text>
<polygon fill="none" stroke="black" points="1065.69,-638.4 1065.69,-669.2 1319.15,-669.2 1319.15,-638.4 1065.69,-638.4"/>
<text text-anchor="start" x="1072.69" y="-650.6" font-family="Arial" font-size="14.00">id </text>
<text text-anchor="start" x="1087.48" y="-650.6" font-family="Arial" font-size="14.00" fill="#666666">[bigint unsigned]</text>
<polygon fill="none" stroke="black" points="1065.69,-607.6 1065.69,-638.4 1319.15,-638.4 1319.15,-607.6 1065.69,-607.6"/>
<text text-anchor="start" x="1072.69" y="-619.8" font-family="Arial" font-size="14.00">product_id </text>
<text text-anchor="start" x="1141.96" y="-619.8" font-family="Arial" font-size="14.00" fill="#666666">[bigint unsigned]</text>
<polygon fill="none" stroke="black" points="1065.69,-576.8 1065.69,-607.6 1319.15,-607.6 1319.15,-576.8 1065.69,-576.8"/>
<text text-anchor="start" x="1072.69" y="-589" font-family="Arial" font-size="14.00">image </text>
<text text-anchor="start" x="1114.71" y="-589" font-family="Arial" font-size="14.00" fill="#666666">[varchar(255)]</text>
<polygon fill="none" stroke="black" points="1065.69,-546 1065.69,-576.8 1319.15,-576.8 1319.15,-546 1065.69,-546"/>
<text text-anchor="start" x="1072.69" y="-558.2" font-family="Arial" font-size="14.00">created_at </text>
<text text-anchor="start" x="1142.74" y="-558.2" font-family="Arial" font-size="14.00" fill="#666666">[timestamp]</text>
<polygon fill="none" stroke="black" points="1065.69,-515.2 1065.69,-546 1319.15,-546 1319.15,-515.2 1065.69,-515.2"/>
<text text-anchor="start" x="1072.69" y="-527.4" font-family="Arial" font-size="14.00">updated_at </text>
<text text-anchor="start" x="1146.65" y="-527.4" font-family="Arial" font-size="14.00" fill="#666666">[timestamp]</text>
</g>
<!-- product_images&#45;&gt;products -->
<g id="edge4" class="edge">
<title>product_images:product_id&#45;&gt;products:id</title>
<path fill="none" stroke="black" d="M1330.11,-620.65C1387.59,-591.82 1360.34,-308 1293.66,-308"/>
<polygon fill="black" stroke="black" points="1330.21,-620.62 1319.44,-618.54 1325.01,-621.85 1320.8,-622.85 1320.8,-622.85 1320.8,-622.85 1325.01,-621.85 1321.51,-627.3 1330.21,-620.62"/>
<text text-anchor="start" x="1327.15" y="-633" font-family="Arial" font-size="10.00">FOREIGN KEY (product_id) REFERENCES products (id)</text>
</g>
<!-- product_stocks -->
<g id="node6" class="node">
<title>product_stocks</title>
<polygon fill="#efefef" stroke="none" points="1423.68,-653.8 1423.68,-689.4 1671.16,-689.4 1671.16,-653.8 1423.68,-653.8"/>
<polygon fill="none" stroke="black" points="1423.68,-653.8 1423.68,-689.4 1671.16,-689.4 1671.16,-653.8 1423.68,-653.8"/>
<text text-anchor="start" x="1430.68" y="-667.2" font-family="Arial Bold" font-size="18.00">product_stocks</text>
<text text-anchor="start" x="1539.67" y="-667.2" font-family="Arial" font-size="14.00">    </text>
<text text-anchor="start" x="1570.78" y="-667.2" font-family="Arial" font-size="14.00" fill="#666666">[BASE TABLE]</text>
<polygon fill="none" stroke="black" points="1423.68,-623 1423.68,-653.8 1671.16,-653.8 1671.16,-623 1423.68,-623"/>
<text text-anchor="start" x="1430.68" y="-635.2" font-family="Arial" font-size="14.00">id </text>
<text text-anchor="start" x="1445.47" y="-635.2" font-family="Arial" font-size="14.00" fill="#666666">[bigint unsigned]</text>
<polygon fill="none" stroke="black" points="1423.68,-592.2 1423.68,-623 1671.16,-623 1671.16,-592.2 1423.68,-592.2"/>
<text text-anchor="start" x="1430.68" y="-604.4" font-family="Arial" font-size="14.00">product_id </text>
<text text-anchor="start" x="1499.95" y="-604.4" font-family="Arial" font-size="14.00" fill="#666666">[bigint unsigned]</text>
<polygon fill="none" stroke="black" points="1423.68,-561.4 1423.68,-592.2 1671.16,-592.2 1671.16,-561.4 1423.68,-561.4"/>
<text text-anchor="start" x="1430.68" y="-573.6" font-family="Arial" font-size="14.00">created_at </text>
<text text-anchor="start" x="1500.73" y="-573.6" font-family="Arial" font-size="14.00" fill="#666666">[timestamp]</text>
<polygon fill="none" stroke="black" points="1423.68,-530.6 1423.68,-561.4 1671.16,-561.4 1671.16,-530.6 1423.68,-530.6"/>
<text text-anchor="start" x="1430.68" y="-542.8" font-family="Arial" font-size="14.00">updated_at </text>
<text text-anchor="start" x="1504.64" y="-542.8" font-family="Arial" font-size="14.00" fill="#666666">[timestamp]</text>
</g>
<!-- product_stocks&#45;&gt;products -->
<g id="edge5" class="edge">
<title>product_stocks:product_id&#45;&gt;products:id</title>
<path fill="none" stroke="black" d="M1412.28,-606.93C1350.67,-598.33 1401,-508.6 1371.42,-441.2 1343.87,-378.43 1362.21,-308 1293.66,-308"/>
<polygon fill="black" stroke="black" points="1412.37,-606.94 1422.06,-612.07 1417.69,-607.28 1422.01,-607.56 1422.01,-607.56 1422.01,-607.56 1417.69,-607.28 1422.64,-603.09 1412.37,-606.94"/>
<text text-anchor="start" x="1429.68" y="-591.6" font-family="Arial" font-size="10.00">FOREIGN KEY (product_id) REFERENCES products (id)</text>
</g>
<!-- product_tag -->
<g id="node7" class="node">
<title>product_tag</title>
<polygon fill="#efefef" stroke="none" points="1775.19,-669.2 1775.19,-704.8 1999.65,-704.8 1999.65,-669.2 1775.19,-669.2"/>
<polygon fill="none" stroke="black" points="1775.19,-669.2 1775.19,-704.8 1999.65,-704.8 1999.65,-669.2 1775.19,-669.2"/>
<text text-anchor="start" x="1782.19" y="-682.6" font-family="Arial Bold" font-size="18.00">product_tag</text>
<text text-anchor="start" x="1868.16" y="-682.6" font-family="Arial" font-size="14.00">    </text>
<text text-anchor="start" x="1899.28" y="-682.6" font-family="Arial" font-size="14.00" fill="#666666">[BASE TABLE]</text>
<polygon fill="none" stroke="black" points="1775.19,-638.4 1775.19,-669.2 1999.65,-669.2 1999.65,-638.4 1775.19,-638.4"/>
<text text-anchor="start" x="1782.19" y="-650.6" font-family="Arial" font-size="14.00">id </text>
<text text-anchor="start" x="1796.97" y="-650.6" font-family="Arial" font-size="14.00" fill="#666666">[bigint unsigned]</text>
<polygon fill="none" stroke="black" points="1775.19,-607.6 1775.19,-638.4 1999.65,-638.4 1999.65,-607.6 1775.19,-607.6"/>
<text text-anchor="start" x="1782.19" y="-619.8" font-family="Arial" font-size="14.00">product_id </text>
<text text-anchor="start" x="1851.46" y="-619.8" font-family="Arial" font-size="14.00" fill="#666666">[bigint unsigned]</text>
<polygon fill="none" stroke="black" points="1775.19,-576.8 1775.19,-607.6 1999.65,-607.6 1999.65,-576.8 1775.19,-576.8"/>
<text text-anchor="start" x="1782.19" y="-589" font-family="Arial" font-size="14.00">tag_id </text>
<text text-anchor="start" x="1824.22" y="-589" font-family="Arial" font-size="14.00" fill="#666666">[bigint unsigned]</text>
<polygon fill="none" stroke="black" points="1775.19,-546 1775.19,-576.8 1999.65,-576.8 1999.65,-546 1775.19,-546"/>
<text text-anchor="start" x="1782.19" y="-558.2" font-family="Arial" font-size="14.00">created_at </text>
<text text-anchor="start" x="1852.24" y="-558.2" font-family="Arial" font-size="14.00" fill="#666666">[timestamp]</text>
<polygon fill="none" stroke="black" points="1775.19,-515.2 1775.19,-546 1999.65,-546 1999.65,-515.2 1775.19,-515.2"/>
<text text-anchor="start" x="1782.19" y="-527.4" font-family="Arial" font-size="14.00">updated_at </text>
<text text-anchor="start" x="1856.15" y="-527.4" font-family="Arial" font-size="14.00" fill="#666666">[timestamp]</text>
</g>
<!-- product_tag&#45;&gt;products -->
<g id="edge6" class="edge">
<title>product_tag:product_id&#45;&gt;products:id</title>
<path fill="none" stroke="black" d="M1763.91,-622.28C1698.22,-612.19 1779.27,-498.65 1723.42,-441.2 1653.72,-369.51 1393.64,-308 1293.66,-308"/>
<polygon fill="black" stroke="black" points="1763.88,-622.28 1773.54,-627.47 1769.2,-622.65 1773.52,-622.95 1773.52,-622.95 1773.52,-622.95 1769.2,-622.65 1774.17,-618.49 1763.88,-622.28"/>
<text text-anchor="start" x="1781.19" y="-633" font-family="Arial" font-size="10.00">FOREIGN KEY (product_id) REFERENCES products (id)</text>
</g>
<!-- shop_product -->
<g id="node8" class="node">
<title>shop_product</title>
<polygon fill="#efefef" stroke="none" points="2104.18,-669.2 2104.18,-704.8 2340.66,-704.8 2340.66,-669.2 2104.18,-669.2"/>
<polygon fill="none" stroke="black" points="2104.18,-669.2 2104.18,-704.8 2340.66,-704.8 2340.66,-669.2 2104.18,-669.2"/>
<text text-anchor="start" x="2111.18" y="-682.6" font-family="Arial Bold" font-size="18.00">shop_product</text>
<text text-anchor="start" x="2209.17" y="-682.6" font-family="Arial" font-size="14.00">    </text>
<text text-anchor="start" x="2240.29" y="-682.6" font-family="Arial" font-size="14.00" fill="#666666">[BASE TABLE]</text>
<polygon fill="none" stroke="black" points="2104.18,-638.4 2104.18,-669.2 2340.66,-669.2 2340.66,-638.4 2104.18,-638.4"/>
<text text-anchor="start" x="2111.18" y="-650.6" font-family="Arial" font-size="14.00">id </text>
<text text-anchor="start" x="2125.97" y="-650.6" font-family="Arial" font-size="14.00" fill="#666666">[bigint unsigned]</text>
<polygon fill="none" stroke="black" points="2104.18,-607.6 2104.18,-638.4 2340.66,-638.4 2340.66,-607.6 2104.18,-607.6"/>
<text text-anchor="start" x="2111.18" y="-619.8" font-family="Arial" font-size="14.00">shop_id </text>
<text text-anchor="start" x="2164.11" y="-619.8" font-family="Arial" font-size="14.00" fill="#666666">[bigint unsigned]</text>
<polygon fill="none" stroke="black" points="2104.18,-576.8 2104.18,-607.6 2340.66,-607.6 2340.66,-576.8 2104.18,-576.8"/>
<text text-anchor="start" x="2111.18" y="-589" font-family="Arial" font-size="14.00">product_id </text>
<text text-anchor="start" x="2180.45" y="-589" font-family="Arial" font-size="14.00" fill="#666666">[bigint unsigned]</text>
<polygon fill="none" stroke="black" points="2104.18,-546 2104.18,-576.8 2340.66,-576.8 2340.66,-546 2104.18,-546"/>
<text text-anchor="start" x="2111.18" y="-558.2" font-family="Arial" font-size="14.00">created_at </text>
<text text-anchor="start" x="2181.23" y="-558.2" font-family="Arial" font-size="14.00" fill="#666666">[timestamp]</text>
<polygon fill="none" stroke="black" points="2104.18,-515.2 2104.18,-546 2340.66,-546 2340.66,-515.2 2104.18,-515.2"/>
<text text-anchor="start" x="2111.18" y="-527.4" font-family="Arial" font-size="14.00">updated_at </text>
<text text-anchor="start" x="2185.14" y="-527.4" font-family="Arial" font-size="14.00" fill="#666666">[timestamp]</text>
</g>
<!-- shop_product&#45;&gt;products -->
<g id="edge7" class="edge">
<title>shop_product:product_id&#45;&gt;products:id</title>
<path fill="none" stroke="black" d="M2092.79,-591.29C2039.85,-580.9 2102.4,-484.78 2051.42,-441.2 1921.46,-330.11 1464.63,-308 1293.66,-308"/>
<polygon fill="black" stroke="black" points="2092.89,-591.29 2102.45,-596.65 2098.2,-591.76 2102.51,-592.14 2102.51,-592.14 2102.51,-592.14 2098.2,-591.76 2103.24,-587.69 2092.89,-591.29"/>
<text text-anchor="start" x="1842.22" y="-602.2" font-family="Arial" font-size="10.00">FOREIGN KEY (product_id) REFERENCES products (id)</text>
</g>
</g>
</svg>
