<?xml version="1.0" encoding="UTF-8" standalone="no"?>
<!DOCTYPE svg PUBLIC "-//W3C//DTD SVG 1.1//EN"
 "http://www.w3.org/Graphics/SVG/1.1/DTD/svg11.dtd">
<!-- Generated by graphviz version 12.1.2 (20240928.0832)
 -->
<!-- Title: product_stocks Pages: 1 -->
<svg width="665pt" height="1006pt"
 viewBox="0.00 0.00 665.41 1006.40" xmlns="http://www.w3.org/2000/svg" xmlns:xlink="http://www.w3.org/1999/xlink">
<g id="graph0" class="graph" transform="scale(1 1) rotate(0) translate(4 1002.4)">
<title>product_stocks</title>
<polygon fill="white" stroke="none" points="-4,4 -4,-1002.4 661.41,-1002.4 661.41,4 -4,4"/>
<!-- product_stocks -->
<g id="node1" class="node">
<title>product_stocks</title>
<polygon fill="#efefef" stroke="none" points="63.19,-604.6 63.19,-640.2 310.66,-640.2 310.66,-604.6 63.19,-604.6"/>
<polygon fill="none" stroke="black" points="63.19,-604.6 63.19,-640.2 310.66,-640.2 310.66,-604.6 63.19,-604.6"/>
<text text-anchor="start" x="70.19" y="-618" font-family="Arial Bold" font-size="18.00">product_stocks</text>
<text text-anchor="start" x="179.17" y="-618" font-family="Arial" font-size="14.00">    </text>
<text text-anchor="start" x="210.29" y="-618" font-family="Arial" font-size="14.00" fill="#666666">[BASE TABLE]</text>
<polygon fill="none" stroke="black" points="63.19,-573.8 63.19,-604.6 310.66,-604.6 310.66,-573.8 63.19,-573.8"/>
<text text-anchor="start" x="70.19" y="-586" font-family="Arial" font-size="14.00">id </text>
<text text-anchor="start" x="84.97" y="-586" font-family="Arial" font-size="14.00" fill="#666666">[bigint unsigned]</text>
<polygon fill="none" stroke="black" points="63.19,-543 63.19,-573.8 310.66,-573.8 310.66,-543 63.19,-543"/>
<text text-anchor="start" x="70.19" y="-555.2" font-family="Arial" font-size="14.00">product_id </text>
<text text-anchor="start" x="139.45" y="-555.2" font-family="Arial" font-size="14.00" fill="#666666">[bigint unsigned]</text>
<polygon fill="none" stroke="black" points="63.19,-512.2 63.19,-543 310.66,-543 310.66,-512.2 63.19,-512.2"/>
<text text-anchor="start" x="70.19" y="-524.4" font-family="Arial" font-size="14.00">created_at </text>
<text text-anchor="start" x="140.23" y="-524.4" font-family="Arial" font-size="14.00" fill="#666666">[timestamp]</text>
<polygon fill="none" stroke="black" points="63.19,-481.4 63.19,-512.2 310.66,-512.2 310.66,-481.4 63.19,-481.4"/>
<text text-anchor="start" x="70.19" y="-493.6" font-family="Arial" font-size="14.00">updated_at </text>
<text text-anchor="start" x="144.14" y="-493.6" font-family="Arial" font-size="14.00" fill="#666666">[timestamp]</text>
<polygon fill="none" stroke="black" stroke-width="3" points="61.69,-479.9 61.69,-641.7 312.16,-641.7 312.16,-479.9 61.69,-479.9"/>
</g>
<!-- products -->
<g id="node3" class="node">
<title>products</title>
<polygon fill="#efefef" stroke="none" points="86.68,-320.4 86.68,-356 287.16,-356 287.16,-320.4 86.68,-320.4"/>
<polygon fill="none" stroke="black" points="86.68,-320.4 86.68,-356 287.16,-356 287.16,-320.4 86.68,-320.4"/>
<text text-anchor="start" x="93.68" y="-333.8" font-family="Arial Bold" font-size="18.00">products</text>
<text text-anchor="start" x="155.67" y="-333.8" font-family="Arial" font-size="14.00">    </text>
<text text-anchor="start" x="186.79" y="-333.8" font-family="Arial" font-size="14.00" fill="#666666">[BASE TABLE]</text>
<polygon fill="none" stroke="black" points="86.68,-289.6 86.68,-320.4 287.16,-320.4 287.16,-289.6 86.68,-289.6"/>
<text text-anchor="start" x="93.68" y="-301.8" font-family="Arial" font-size="14.00">id </text>
<text text-anchor="start" x="108.47" y="-301.8" font-family="Arial" font-size="14.00" fill="#666666">[bigint unsigned]</text>
<polygon fill="none" stroke="black" points="86.68,-258.8 86.68,-289.6 287.16,-289.6 287.16,-258.8 86.68,-258.8"/>
<text text-anchor="start" x="93.68" y="-271" font-family="Arial" font-size="14.00">kind </text>
<text text-anchor="start" x="123.26" y="-271" font-family="Arial" font-size="14.00" fill="#666666">[tinyint]</text>
<polygon fill="none" stroke="black" points="86.68,-228 86.68,-258.8 287.16,-258.8 287.16,-228 86.68,-228"/>
<text text-anchor="start" x="93.68" y="-240.2" font-family="Arial" font-size="14.00">name </text>
<text text-anchor="start" x="132.59" y="-240.2" font-family="Arial" font-size="14.00" fill="#666666">[varchar(255)]</text>
<polygon fill="none" stroke="black" points="86.68,-197.2 86.68,-228 287.16,-228 287.16,-197.2 86.68,-197.2"/>
<text text-anchor="start" x="93.68" y="-209.4" font-family="Arial" font-size="14.00">status </text>
<text text-anchor="start" x="134.93" y="-209.4" font-family="Arial" font-size="14.00" fill="#666666">[tinyint]</text>
<polygon fill="none" stroke="black" points="86.68,-166.4 86.68,-197.2 287.16,-197.2 287.16,-166.4 86.68,-166.4"/>
<text text-anchor="start" x="93.68" y="-178.6" font-family="Arial" font-size="14.00">base_price </text>
<text text-anchor="start" x="166.06" y="-178.6" font-family="Arial" font-size="14.00" fill="#666666">[decimal(8,2)]</text>
<polygon fill="none" stroke="black" points="86.68,-135.6 86.68,-166.4 287.16,-166.4 287.16,-135.6 86.68,-135.6"/>
<text text-anchor="start" x="93.68" y="-147.8" font-family="Arial" font-size="14.00">size </text>
<text text-anchor="start" x="122.47" y="-147.8" font-family="Arial" font-size="14.00" fill="#666666">[decimal(5,2)]</text>
<polygon fill="none" stroke="black" points="86.68,-104.8 86.68,-135.6 287.16,-135.6 287.16,-104.8 86.68,-104.8"/>
<text text-anchor="start" x="93.68" y="-117" font-family="Arial" font-size="14.00">created_at </text>
<text text-anchor="start" x="163.73" y="-117" font-family="Arial" font-size="14.00" fill="#666666">[timestamp]</text>
<polygon fill="none" stroke="black" points="86.68,-74 86.68,-104.8 287.16,-104.8 287.16,-74 86.68,-74"/>
<text text-anchor="start" x="93.68" y="-86.2" font-family="Arial" font-size="14.00">updated_at </text>
<text text-anchor="start" x="167.64" y="-86.2" font-family="Arial" font-size="14.00" fill="#666666">[timestamp]</text>
<polygon fill="none" stroke="black" points="86.68,-43.2 86.68,-74 287.16,-74 287.16,-43.2 86.68,-43.2"/>
<text text-anchor="start" x="93.68" y="-55.4" font-family="Arial" font-size="14.00">deleted_at </text>
<text text-anchor="start" x="162.97" y="-55.4" font-family="Arial" font-size="14.00" fill="#666666">[timestamp]</text>
</g>
<!-- product_stocks&#45;&gt;products -->
<g id="edge2" class="edge">
<title>product_stocks:product_id&#45;&gt;products:id</title>
<path fill="none" stroke="black" d="M321.86,-557.67C423.21,-542.81 397.73,-305 288.16,-305"/>
<polygon fill="black" stroke="black" points="321.97,-557.67 311.67,-553.89 316.65,-558.04 312.33,-558.35 312.33,-558.35 312.33,-558.35 316.65,-558.04 312.31,-562.86 321.97,-557.67"/>
<text text-anchor="start" x="318.66" y="-568.4" font-family="Arial" font-size="10.00">FOREIGN KEY (product_id) REFERENCES products (id)</text>
</g>
<!-- order_product_stock -->
<g id="node2" class="node">
<title>order_product_stock</title>
<polygon fill="#efefef" stroke="none" points="43.2,-919.6 43.2,-955.2 330.65,-955.2 330.65,-919.6 43.2,-919.6"/>
<polygon fill="none" stroke="black" points="43.2,-919.6 43.2,-955.2 330.65,-955.2 330.65,-919.6 43.2,-919.6"/>
<text text-anchor="start" x="50.2" y="-933" font-family="Arial Bold" font-size="18.00">order_product_stock</text>
<text text-anchor="start" x="199.16" y="-933" font-family="Arial" font-size="14.00">    </text>
<text text-anchor="start" x="230.27" y="-933" font-family="Arial" font-size="14.00" fill="#666666">[BASE TABLE]</text>
<polygon fill="none" stroke="black" points="43.2,-888.8 43.2,-919.6 330.65,-919.6 330.65,-888.8 43.2,-888.8"/>
<text text-anchor="start" x="50.2" y="-901" font-family="Arial" font-size="14.00">id </text>
<text text-anchor="start" x="64.99" y="-901" font-family="Arial" font-size="14.00" fill="#666666">[bigint unsigned]</text>
<polygon fill="none" stroke="black" points="43.2,-858 43.2,-888.8 330.65,-888.8 330.65,-858 43.2,-858"/>
<text text-anchor="start" x="50.2" y="-870.2" font-family="Arial" font-size="14.00">order_id </text>
<text text-anchor="start" x="105.45" y="-870.2" font-family="Arial" font-size="14.00" fill="#666666">[bigint unsigned]</text>
<polygon fill="none" stroke="black" points="43.2,-827.2 43.2,-858 330.65,-858 330.65,-827.2 43.2,-827.2"/>
<text text-anchor="start" x="50.2" y="-839.4" font-family="Arial" font-size="14.00">product_stock_id </text>
<text text-anchor="start" x="159.93" y="-839.4" font-family="Arial" font-size="14.00" fill="#666666">[bigint unsigned]</text>
<polygon fill="none" stroke="black" points="43.2,-796.4 43.2,-827.2 330.65,-827.2 330.65,-796.4 43.2,-796.4"/>
<text text-anchor="start" x="50.2" y="-808.6" font-family="Arial" font-size="14.00">created_at </text>
<text text-anchor="start" x="120.25" y="-808.6" font-family="Arial" font-size="14.00" fill="#666666">[timestamp]</text>
<polygon fill="none" stroke="black" points="43.2,-765.6 43.2,-796.4 330.65,-796.4 330.65,-765.6 43.2,-765.6"/>
<text text-anchor="start" x="50.2" y="-777.8" font-family="Arial" font-size="14.00">updated_at </text>
<text text-anchor="start" x="124.16" y="-777.8" font-family="Arial" font-size="14.00" fill="#666666">[timestamp]</text>
</g>
<!-- order_product_stock&#45;&gt;product_stocks -->
<g id="edge1" class="edge">
<title>order_product_stock:product_stock_id&#45;&gt;product_stocks:id</title>
<path fill="none" stroke="black" d="M341.85,-841.87C443.28,-827.01 421.1,-589.2 311.66,-589.2"/>
<polygon fill="black" stroke="black" points="341.95,-841.87 331.66,-838.09 336.63,-842.24 332.31,-842.55 332.31,-842.55 332.31,-842.55 336.63,-842.24 332.3,-847.06 341.95,-841.87"/>
<text text-anchor="start" x="338.65" y="-852.6" font-family="Arial" font-size="10.00">FOREIGN KEY (product_stock_id) REFERENCES product_stocks (id)</text>
</g>
</g>
</svg>
