<?xml version="1.0" encoding="UTF-8" standalone="no"?>
<!DOCTYPE svg PUBLIC "-//W3C//DTD SVG 1.1//EN"
 "http://www.w3.org/Graphics/SVG/1.1/DTD/svg11.dtd">
<!-- Generated by graphviz version 12.1.2 (20240928.0832)
 -->
<!-- Title: tags Pages: 1 -->
<svg width="506pt" height="571pt"
 viewBox="0.00 0.00 505.72 571.20" xmlns="http://www.w3.org/2000/svg" xmlns:xlink="http://www.w3.org/1999/xlink">
<g id="graph0" class="graph" transform="scale(1 1) rotate(0) translate(4 567.2)">
<title>tags</title>
<polygon fill="white" stroke="none" points="-4,4 -4,-567.2 501.72,-567.2 501.72,4 -4,4"/>
<!-- tags -->
<g id="node1" class="node">
<title>tags</title>
<polygon fill="#efefef" stroke="none" points="71.69,-169.4 71.69,-205 239.17,-205 239.17,-169.4 71.69,-169.4"/>
<polygon fill="none" stroke="black" points="71.69,-169.4 71.69,-205 239.17,-205 239.17,-169.4 71.69,-169.4"/>
<text text-anchor="start" x="78.69" y="-182.8" font-family="Arial Bold" font-size="18.00">tags</text>
<text text-anchor="start" x="107.68" y="-182.8" font-family="Arial" font-size="14.00">    </text>
<text text-anchor="start" x="138.8" y="-182.8" font-family="Arial" font-size="14.00" fill="#666666">[BASE TABLE]</text>
<polygon fill="none" stroke="black" points="71.69,-138.6 71.69,-169.4 239.17,-169.4 239.17,-138.6 71.69,-138.6"/>
<text text-anchor="start" x="78.69" y="-150.8" font-family="Arial" font-size="14.00">id </text>
<text text-anchor="start" x="93.48" y="-150.8" font-family="Arial" font-size="14.00" fill="#666666">[bigint unsigned]</text>
<polygon fill="none" stroke="black" points="71.69,-107.8 71.69,-138.6 239.17,-138.6 239.17,-107.8 71.69,-107.8"/>
<text text-anchor="start" x="78.69" y="-120" font-family="Arial" font-size="14.00">name </text>
<text text-anchor="start" x="117.6" y="-120" font-family="Arial" font-size="14.00" fill="#666666">[varchar(255)]</text>
<polygon fill="none" stroke="black" points="71.69,-77 71.69,-107.8 239.17,-107.8 239.17,-77 71.69,-77"/>
<text text-anchor="start" x="78.69" y="-89.2" font-family="Arial" font-size="14.00">created_at </text>
<text text-anchor="start" x="148.74" y="-89.2" font-family="Arial" font-size="14.00" fill="#666666">[timestamp]</text>
<polygon fill="none" stroke="black" points="71.69,-46.2 71.69,-77 239.17,-77 239.17,-46.2 71.69,-46.2"/>
<text text-anchor="start" x="78.69" y="-58.4" font-family="Arial" font-size="14.00">updated_at </text>
<text text-anchor="start" x="152.65" y="-58.4" font-family="Arial" font-size="14.00" fill="#666666">[timestamp]</text>
<polygon fill="none" stroke="black" stroke-width="3" points="70.19,-44.7 70.19,-206.5 240.67,-206.5 240.67,-44.7 70.19,-44.7"/>
</g>
<!-- product_tag -->
<g id="node2" class="node">
<title>product_tag</title>
<polygon fill="#efefef" stroke="none" points="43.2,-484.4 43.2,-520 267.66,-520 267.66,-484.4 43.2,-484.4"/>
<polygon fill="none" stroke="black" points="43.2,-484.4 43.2,-520 267.66,-520 267.66,-484.4 43.2,-484.4"/>
<text text-anchor="start" x="50.2" y="-497.8" font-family="Arial Bold" font-size="18.00">product_tag</text>
<text text-anchor="start" x="136.17" y="-497.8" font-family="Arial" font-size="14.00">    </text>
<text text-anchor="start" x="167.29" y="-497.8" font-family="Arial" font-size="14.00" fill="#666666">[BASE TABLE]</text>
<polygon fill="none" stroke="black" points="43.2,-453.6 43.2,-484.4 267.66,-484.4 267.66,-453.6 43.2,-453.6"/>
<text text-anchor="start" x="50.2" y="-465.8" font-family="Arial" font-size="14.00">id </text>
<text text-anchor="start" x="64.99" y="-465.8" font-family="Arial" font-size="14.00" fill="#666666">[bigint unsigned]</text>
<polygon fill="none" stroke="black" points="43.2,-422.8 43.2,-453.6 267.66,-453.6 267.66,-422.8 43.2,-422.8"/>
<text text-anchor="start" x="50.2" y="-435" font-family="Arial" font-size="14.00">product_id </text>
<text text-anchor="start" x="119.47" y="-435" font-family="Arial" font-size="14.00" fill="#666666">[bigint unsigned]</text>
<polygon fill="none" stroke="black" points="43.2,-392 43.2,-422.8 267.66,-422.8 267.66,-392 43.2,-392"/>
<text text-anchor="start" x="50.2" y="-404.2" font-family="Arial" font-size="14.00">tag_id </text>
<text text-anchor="start" x="92.23" y="-404.2" font-family="Arial" font-size="14.00" fill="#666666">[bigint unsigned]</text>
<polygon fill="none" stroke="black" points="43.2,-361.2 43.2,-392 267.66,-392 267.66,-361.2 43.2,-361.2"/>
<text text-anchor="start" x="50.2" y="-373.4" font-family="Arial" font-size="14.00">created_at </text>
<text text-anchor="start" x="120.25" y="-373.4" font-family="Arial" font-size="14.00" fill="#666666">[timestamp]</text>
<polygon fill="none" stroke="black" points="43.2,-330.4 43.2,-361.2 267.66,-361.2 267.66,-330.4 43.2,-330.4"/>
<text text-anchor="start" x="50.2" y="-342.6" font-family="Arial" font-size="14.00">updated_at </text>
<text text-anchor="start" x="124.16" y="-342.6" font-family="Arial" font-size="14.00" fill="#666666">[timestamp]</text>
</g>
<!-- product_tag&#45;&gt;tags -->
<g id="edge1" class="edge">
<title>product_tag:tag_id&#45;&gt;tags:id</title>
<path fill="none" stroke="black" d="M278.87,-406.67C380.13,-391.81 349.96,-154 240.17,-154"/>
<polygon fill="black" stroke="black" points="278.97,-406.67 268.68,-402.89 273.65,-407.04 269.33,-407.35 269.33,-407.35 269.33,-407.35 273.65,-407.04 269.32,-411.86 278.97,-406.67"/>
<text text-anchor="start" x="275.66" y="-417.4" font-family="Arial" font-size="10.00">FOREIGN KEY (tag_id) REFERENCES tags (id)</text>
</g>
</g>
</svg>
