<?xml version="1.0" encoding="UTF-8" standalone="no"?>
<!DOCTYPE svg PUBLIC "-//W3C//DTD SVG 1.1//EN"
 "http://www.w3.org/Graphics/SVG/1.1/DTD/svg11.dtd">
<!-- Generated by graphviz version 12.1.2 (20240928.0832)
 -->
<!-- Title: users Pages: 1 -->
<svg width="1342pt" height="910pt"
 viewBox="0.00 0.00 1342.35 910.00" xmlns="http://www.w3.org/2000/svg" xmlns:xlink="http://www.w3.org/1999/xlink">
<g id="graph0" class="graph" transform="scale(1 1) rotate(0) translate(4 906)">
<title>users</title>
<polygon fill="white" stroke="none" points="-4,4 -4,-906 1338.35,-906 1338.35,4 -4,4"/>
<!-- users -->
<g id="node1" class="node">
<title>users</title>
<polygon fill="#efefef" stroke="none" points="503.81,-354.2 503.81,-389.8 759.04,-389.8 759.04,-354.2 503.81,-354.2"/>
<polygon fill="none" stroke="black" points="503.81,-354.2 503.81,-389.8 759.04,-389.8 759.04,-354.2 503.81,-354.2"/>
<text text-anchor="start" x="550.68" y="-367.6" font-family="Arial Bold" font-size="18.00">users</text>
<text text-anchor="start" x="587.68" y="-367.6" font-family="Arial" font-size="14.00">    </text>
<text text-anchor="start" x="618.8" y="-367.6" font-family="Arial" font-size="14.00" fill="#666666">[BASE TABLE]</text>
<polygon fill="none" stroke="black" points="503.81,-323.4 503.81,-354.2 759.04,-354.2 759.04,-323.4 503.81,-323.4"/>
<text text-anchor="start" x="510.81" y="-335.6" font-family="Arial" font-size="14.00">id </text>
<text text-anchor="start" x="525.6" y="-335.6" font-family="Arial" font-size="14.00" fill="#666666">[bigint unsigned]</text>
<polygon fill="none" stroke="black" points="503.81,-292.6 503.81,-323.4 759.04,-323.4 759.04,-292.6 503.81,-292.6"/>
<text text-anchor="start" x="510.81" y="-304.8" font-family="Arial" font-size="14.00">status </text>
<text text-anchor="start" x="552.05" y="-304.8" font-family="Arial" font-size="14.00" fill="#666666">[tinyint]</text>
<polygon fill="none" stroke="black" points="503.81,-261.8 503.81,-292.6 759.04,-292.6 759.04,-261.8 503.81,-261.8"/>
<text text-anchor="start" x="510.81" y="-274" font-family="Arial" font-size="14.00">email </text>
<text text-anchor="start" x="548.16" y="-274" font-family="Arial" font-size="14.00" fill="#666666">[varchar(255)]</text>
<polygon fill="none" stroke="black" points="503.81,-231 503.81,-261.8 759.04,-261.8 759.04,-231 503.81,-231"/>
<text text-anchor="start" x="510.81" y="-243.2" font-family="Arial" font-size="14.00">email_verified_at </text>
<text text-anchor="start" x="620.54" y="-243.2" font-family="Arial" font-size="14.00" fill="#666666">[timestamp]</text>
<polygon fill="none" stroke="black" points="503.81,-200.2 503.81,-231 759.04,-231 759.04,-200.2 503.81,-200.2"/>
<text text-anchor="start" x="510.81" y="-212.4" font-family="Arial" font-size="14.00">email_verification_token </text>
<text text-anchor="start" x="664.89" y="-212.4" font-family="Arial" font-size="14.00" fill="#666666">[varchar(255)]</text>
<polygon fill="none" stroke="black" points="503.81,-169.4 503.81,-200.2 759.04,-200.2 759.04,-169.4 503.81,-169.4"/>
<text text-anchor="start" x="510.81" y="-181.6" font-family="Arial" font-size="14.00">password </text>
<text text-anchor="start" x="574.62" y="-181.6" font-family="Arial" font-size="14.00" fill="#666666">[varchar(255)]</text>
<polygon fill="none" stroke="black" points="503.81,-138.6 503.81,-169.4 759.04,-169.4 759.04,-138.6 503.81,-138.6"/>
<text text-anchor="start" x="510.81" y="-150.8" font-family="Arial" font-size="14.00">remember_token </text>
<text text-anchor="start" x="620.53" y="-150.8" font-family="Arial" font-size="14.00" fill="#666666">[varchar(100)]</text>
<polygon fill="none" stroke="black" points="503.81,-107.8 503.81,-138.6 759.04,-138.6 759.04,-107.8 503.81,-107.8"/>
<text text-anchor="start" x="510.81" y="-120" font-family="Arial" font-size="14.00">created_at </text>
<text text-anchor="start" x="580.86" y="-120" font-family="Arial" font-size="14.00" fill="#666666">[timestamp]</text>
<polygon fill="none" stroke="black" points="503.81,-77 503.81,-107.8 759.04,-107.8 759.04,-77 503.81,-77"/>
<text text-anchor="start" x="510.81" y="-89.2" font-family="Arial" font-size="14.00">updated_at </text>
<text text-anchor="start" x="584.77" y="-89.2" font-family="Arial" font-size="14.00" fill="#666666">[timestamp]</text>
<polygon fill="none" stroke="black" points="503.81,-46.2 503.81,-77 759.04,-77 759.04,-46.2 503.81,-46.2"/>
<text text-anchor="start" x="510.81" y="-58.4" font-family="Arial" font-size="14.00">deleted_at </text>
<text text-anchor="start" x="580.1" y="-58.4" font-family="Arial" font-size="14.00" fill="#666666">[timestamp]</text>
<polygon fill="none" stroke="black" stroke-width="3" points="502.31,-44.7 502.31,-391.3 760.54,-391.3 760.54,-44.7 502.31,-44.7"/>
</g>
<!-- cart_products -->
<g id="node2" class="node">
<title>cart_products</title>
<polygon fill="#efefef" stroke="none" points="43.2,-746.2 43.2,-781.8 279.65,-781.8 279.65,-746.2 43.2,-746.2"/>
<polygon fill="none" stroke="black" points="43.2,-746.2 43.2,-781.8 279.65,-781.8 279.65,-746.2 43.2,-746.2"/>
<text text-anchor="start" x="50.2" y="-759.6" font-family="Arial Bold" font-size="18.00">cart_products</text>
<text text-anchor="start" x="148.16" y="-759.6" font-family="Arial" font-size="14.00">    </text>
<text text-anchor="start" x="179.28" y="-759.6" font-family="Arial" font-size="14.00" fill="#666666">[BASE TABLE]</text>
<polygon fill="none" stroke="black" points="43.2,-715.4 43.2,-746.2 279.65,-746.2 279.65,-715.4 43.2,-715.4"/>
<text text-anchor="start" x="50.2" y="-727.6" font-family="Arial" font-size="14.00">id </text>
<text text-anchor="start" x="64.99" y="-727.6" font-family="Arial" font-size="14.00" fill="#666666">[bigint unsigned]</text>
<polygon fill="none" stroke="black" points="43.2,-684.6 43.2,-715.4 279.65,-715.4 279.65,-684.6 43.2,-684.6"/>
<text text-anchor="start" x="50.2" y="-696.8" font-family="Arial" font-size="14.00">user_id </text>
<text text-anchor="start" x="100.01" y="-696.8" font-family="Arial" font-size="14.00" fill="#666666">[bigint unsigned]</text>
<polygon fill="none" stroke="black" points="43.2,-653.8 43.2,-684.6 279.65,-684.6 279.65,-653.8 43.2,-653.8"/>
<text text-anchor="start" x="50.2" y="-666" font-family="Arial" font-size="14.00">product_id </text>
<text text-anchor="start" x="119.47" y="-666" font-family="Arial" font-size="14.00" fill="#666666">[bigint unsigned]</text>
<polygon fill="none" stroke="black" points="43.2,-623 43.2,-653.8 279.65,-653.8 279.65,-623 43.2,-623"/>
<text text-anchor="start" x="50.2" y="-635.2" font-family="Arial" font-size="14.00">created_at </text>
<text text-anchor="start" x="120.25" y="-635.2" font-family="Arial" font-size="14.00" fill="#666666">[timestamp]</text>
<polygon fill="none" stroke="black" points="43.2,-592.2 43.2,-623 279.65,-623 279.65,-592.2 43.2,-592.2"/>
<text text-anchor="start" x="50.2" y="-604.4" font-family="Arial" font-size="14.00">updated_at </text>
<text text-anchor="start" x="124.16" y="-604.4" font-family="Arial" font-size="14.00" fill="#666666">[timestamp]</text>
</g>
<!-- cart_products&#45;&gt;users -->
<g id="edge1" class="edge">
<title>cart_products:user_id&#45;&gt;users:id</title>
<path fill="none" stroke="black" d="M290.83,-699.49C377.04,-690.2 277.83,-556.62 331.43,-472 383.05,-390.5 406.34,-338.8 502.81,-338.8"/>
<polygon fill="black" stroke="black" points="290.97,-699.48 280.76,-695.49 285.65,-699.75 281.32,-699.97 281.32,-699.97 281.32,-699.97 285.65,-699.75 281.21,-704.48 290.97,-699.48"/>
<text text-anchor="start" x="167.57" y="-684" font-family="Arial" font-size="10.00">FOREIGN KEY (user_id) REFERENCES users (id)</text>
</g>
<!-- orders -->
<g id="node3" class="node">
<title>orders</title>
<polygon fill="#efefef" stroke="none" points="383.69,-777 383.69,-812.6 567.16,-812.6 567.16,-777 383.69,-777"/>
<polygon fill="none" stroke="black" points="383.69,-777 383.69,-812.6 567.16,-812.6 567.16,-777 383.69,-777"/>
<text text-anchor="start" x="390.69" y="-790.4" font-family="Arial Bold" font-size="18.00">orders</text>
<text text-anchor="start" x="435.67" y="-790.4" font-family="Arial" font-size="14.00">    </text>
<text text-anchor="start" x="466.79" y="-790.4" font-family="Arial" font-size="14.00" fill="#666666">[BASE TABLE]</text>
<polygon fill="none" stroke="black" points="383.69,-746.2 383.69,-777 567.16,-777 567.16,-746.2 383.69,-746.2"/>
<text text-anchor="start" x="390.69" y="-758.4" font-family="Arial" font-size="14.00">id </text>
<text text-anchor="start" x="405.48" y="-758.4" font-family="Arial" font-size="14.00" fill="#666666">[bigint unsigned]</text>
<polygon fill="none" stroke="black" points="383.69,-715.4 383.69,-746.2 567.16,-746.2 567.16,-715.4 383.69,-715.4"/>
<text text-anchor="start" x="390.69" y="-727.6" font-family="Arial" font-size="14.00">user_id </text>
<text text-anchor="start" x="440.5" y="-727.6" font-family="Arial" font-size="14.00" fill="#666666">[bigint unsigned]</text>
<polygon fill="none" stroke="black" points="383.69,-684.6 383.69,-715.4 567.16,-715.4 567.16,-684.6 383.69,-684.6"/>
<text text-anchor="start" x="390.69" y="-696.8" font-family="Arial" font-size="14.00">status </text>
<text text-anchor="start" x="431.93" y="-696.8" font-family="Arial" font-size="14.00" fill="#666666">[tinyint]</text>
<polygon fill="none" stroke="black" points="383.69,-653.8 383.69,-684.6 567.16,-684.6 567.16,-653.8 383.69,-653.8"/>
<text text-anchor="start" x="390.69" y="-666" font-family="Arial" font-size="14.00">order_at </text>
<text text-anchor="start" x="446.72" y="-666" font-family="Arial" font-size="14.00" fill="#666666">[datetime]</text>
<polygon fill="none" stroke="black" points="383.69,-623 383.69,-653.8 567.16,-653.8 567.16,-623 383.69,-623"/>
<text text-anchor="start" x="390.69" y="-635.2" font-family="Arial" font-size="14.00">note </text>
<text text-anchor="start" x="421.83" y="-635.2" font-family="Arial" font-size="14.00" fill="#666666">[text]</text>
<polygon fill="none" stroke="black" points="383.69,-592.2 383.69,-623 567.16,-623 567.16,-592.2 383.69,-592.2"/>
<text text-anchor="start" x="390.69" y="-604.4" font-family="Arial" font-size="14.00">created_at </text>
<text text-anchor="start" x="460.74" y="-604.4" font-family="Arial" font-size="14.00" fill="#666666">[timestamp]</text>
<polygon fill="none" stroke="black" points="383.69,-561.4 383.69,-592.2 567.16,-592.2 567.16,-561.4 383.69,-561.4"/>
<text text-anchor="start" x="390.69" y="-573.6" font-family="Arial" font-size="14.00">updated_at </text>
<text text-anchor="start" x="464.65" y="-573.6" font-family="Arial" font-size="14.00" fill="#666666">[timestamp]</text>
</g>
<!-- orders&#45;&gt;users -->
<g id="edge2" class="edge">
<title>orders:user_id&#45;&gt;users:id</title>
<path fill="none" stroke="black" d="M578.52,-730.25C657.64,-721.22 596.64,-604.08 567.16,-518.2 552.19,-474.57 518.91,-479.58 503.81,-436 489.67,-395.18 459.61,-338.8 502.81,-338.8"/>
<polygon fill="black" stroke="black" points="578.48,-730.25 568.26,-726.29 573.15,-730.53 568.83,-730.76 568.83,-730.76 568.83,-730.76 573.15,-730.53 568.74,-735.28 578.48,-730.25"/>
<text text-anchor="start" x="575.16" y="-740.8" font-family="Arial" font-size="10.00">FOREIGN KEY (user_id) REFERENCES users (id)</text>
</g>
<!-- user_allergie -->
<g id="node4" class="node">
<title>user_allergie</title>
<polygon fill="#efefef" stroke="none" points="671.7,-746.2 671.7,-781.8 903.15,-781.8 903.15,-746.2 671.7,-746.2"/>
<polygon fill="none" stroke="black" points="671.7,-746.2 671.7,-781.8 903.15,-781.8 903.15,-746.2 671.7,-746.2"/>
<text text-anchor="start" x="678.7" y="-759.6" font-family="Arial Bold" font-size="18.00">user_allergie</text>
<text text-anchor="start" x="771.66" y="-759.6" font-family="Arial" font-size="14.00">    </text>
<text text-anchor="start" x="802.78" y="-759.6" font-family="Arial" font-size="14.00" fill="#666666">[BASE TABLE]</text>
<polygon fill="none" stroke="black" points="671.7,-715.4 671.7,-746.2 903.15,-746.2 903.15,-715.4 671.7,-715.4"/>
<text text-anchor="start" x="678.7" y="-727.6" font-family="Arial" font-size="14.00">id </text>
<text text-anchor="start" x="693.49" y="-727.6" font-family="Arial" font-size="14.00" fill="#666666">[bigint unsigned]</text>
<polygon fill="none" stroke="black" points="671.7,-684.6 671.7,-715.4 903.15,-715.4 903.15,-684.6 671.7,-684.6"/>
<text text-anchor="start" x="678.7" y="-696.8" font-family="Arial" font-size="14.00">user_id </text>
<text text-anchor="start" x="728.51" y="-696.8" font-family="Arial" font-size="14.00" fill="#666666">[bigint unsigned]</text>
<polygon fill="none" stroke="black" points="671.7,-653.8 671.7,-684.6 903.15,-684.6 903.15,-653.8 671.7,-653.8"/>
<text text-anchor="start" x="678.7" y="-666" font-family="Arial" font-size="14.00">allergie_id </text>
<text text-anchor="start" x="746.41" y="-666" font-family="Arial" font-size="14.00" fill="#666666">[bigint unsigned]</text>
<polygon fill="none" stroke="black" points="671.7,-623 671.7,-653.8 903.15,-653.8 903.15,-623 671.7,-623"/>
<text text-anchor="start" x="678.7" y="-635.2" font-family="Arial" font-size="14.00">created_at </text>
<text text-anchor="start" x="748.75" y="-635.2" font-family="Arial" font-size="14.00" fill="#666666">[timestamp]</text>
<polygon fill="none" stroke="black" points="671.7,-592.2 671.7,-623 903.15,-623 903.15,-592.2 671.7,-592.2"/>
<text text-anchor="start" x="678.7" y="-604.4" font-family="Arial" font-size="14.00">updated_at </text>
<text text-anchor="start" x="752.66" y="-604.4" font-family="Arial" font-size="14.00" fill="#666666">[timestamp]</text>
</g>
<!-- user_allergie&#45;&gt;users -->
<g id="edge3" class="edge">
<title>user_allergie:user_id&#45;&gt;users:id</title>
<path fill="none" stroke="black" d="M660.37,-699.18C608.75,-690.16 651.05,-608.85 671.7,-549 692.41,-489 738.22,-495.96 759.04,-436 773.21,-395.19 803.24,-338.8 760.04,-338.8"/>
<polygon fill="black" stroke="black" points="660.4,-699.18 670.01,-704.46 665.72,-699.6 670.04,-699.95 670.04,-699.95 670.04,-699.95 665.72,-699.6 670.73,-695.49 660.4,-699.18"/>
<text text-anchor="start" x="617.67" y="-684" font-family="Arial" font-size="10.00">FOREIGN KEY (user_id) REFERENCES users (id)</text>
</g>
<!-- user_personal_infos -->
<g id="node5" class="node">
<title>user_personal_infos</title>
<polygon fill="#efefef" stroke="none" points="1007.7,-823.2 1007.7,-858.8 1291.15,-858.8 1291.15,-823.2 1007.7,-823.2"/>
<polygon fill="none" stroke="black" points="1007.7,-823.2 1007.7,-858.8 1291.15,-858.8 1291.15,-823.2 1007.7,-823.2"/>
<text text-anchor="start" x="1014.7" y="-836.6" font-family="Arial Bold" font-size="18.00">user_personal_infos</text>
<text text-anchor="start" x="1159.66" y="-836.6" font-family="Arial" font-size="14.00">    </text>
<text text-anchor="start" x="1190.78" y="-836.6" font-family="Arial" font-size="14.00" fill="#666666">[BASE TABLE]</text>
<polygon fill="none" stroke="black" points="1007.7,-792.4 1007.7,-823.2 1291.15,-823.2 1291.15,-792.4 1007.7,-792.4"/>
<text text-anchor="start" x="1014.7" y="-804.6" font-family="Arial" font-size="14.00">id </text>
<text text-anchor="start" x="1029.48" y="-804.6" font-family="Arial" font-size="14.00" fill="#666666">[bigint unsigned]</text>
<polygon fill="none" stroke="black" points="1007.7,-761.6 1007.7,-792.4 1291.15,-792.4 1291.15,-761.6 1007.7,-761.6"/>
<text text-anchor="start" x="1014.7" y="-773.8" font-family="Arial" font-size="14.00">user_id </text>
<text text-anchor="start" x="1064.5" y="-773.8" font-family="Arial" font-size="14.00" fill="#666666">[bigint unsigned]</text>
<polygon fill="none" stroke="black" points="1007.7,-730.8 1007.7,-761.6 1291.15,-761.6 1291.15,-730.8 1007.7,-730.8"/>
<text text-anchor="start" x="1014.7" y="-743" font-family="Arial" font-size="14.00">first_name </text>
<text text-anchor="start" x="1083.95" y="-743" font-family="Arial" font-size="14.00" fill="#666666">[varchar(255)]</text>
<polygon fill="none" stroke="black" points="1007.7,-700 1007.7,-730.8 1291.15,-730.8 1291.15,-700 1007.7,-700"/>
<text text-anchor="start" x="1014.7" y="-712.2" font-family="Arial" font-size="14.00">last_name </text>
<text text-anchor="start" x="1083.18" y="-712.2" font-family="Arial" font-size="14.00" fill="#666666">[varchar(255)]</text>
<polygon fill="none" stroke="black" points="1007.7,-669.2 1007.7,-700 1291.15,-700 1291.15,-669.2 1007.7,-669.2"/>
<text text-anchor="start" x="1014.7" y="-681.4" font-family="Arial" font-size="14.00">birthdate </text>
<text text-anchor="start" x="1073.07" y="-681.4" font-family="Arial" font-size="14.00" fill="#666666">[date]</text>
<polygon fill="none" stroke="black" points="1007.7,-638.4 1007.7,-669.2 1291.15,-669.2 1291.15,-638.4 1007.7,-638.4"/>
<text text-anchor="start" x="1014.7" y="-650.6" font-family="Arial" font-size="14.00">tel1 </text>
<text text-anchor="start" x="1041.16" y="-650.6" font-family="Arial" font-size="14.00" fill="#666666">[varchar(255)]</text>
<polygon fill="none" stroke="black" points="1007.7,-607.6 1007.7,-638.4 1291.15,-638.4 1291.15,-607.6 1007.7,-607.6"/>
<text text-anchor="start" x="1014.7" y="-619.8" font-family="Arial" font-size="14.00">tel2 </text>
<text text-anchor="start" x="1041.16" y="-619.8" font-family="Arial" font-size="14.00" fill="#666666">[varchar(255)]</text>
<polygon fill="none" stroke="black" points="1007.7,-576.8 1007.7,-607.6 1291.15,-607.6 1291.15,-576.8 1007.7,-576.8"/>
<text text-anchor="start" x="1014.7" y="-589" font-family="Arial" font-size="14.00">tel3 </text>
<text text-anchor="start" x="1041.16" y="-589" font-family="Arial" font-size="14.00" fill="#666666">[varchar(255)]</text>
<polygon fill="none" stroke="black" points="1007.7,-546 1007.7,-576.8 1291.15,-576.8 1291.15,-546 1007.7,-546"/>
<text text-anchor="start" x="1014.7" y="-558.2" font-family="Arial" font-size="14.00">created_at </text>
<text text-anchor="start" x="1084.75" y="-558.2" font-family="Arial" font-size="14.00" fill="#666666">[timestamp]</text>
<polygon fill="none" stroke="black" points="1007.7,-515.2 1007.7,-546 1291.15,-546 1291.15,-515.2 1007.7,-515.2"/>
<text text-anchor="start" x="1014.7" y="-527.4" font-family="Arial" font-size="14.00">updated_at </text>
<text text-anchor="start" x="1088.66" y="-527.4" font-family="Arial" font-size="14.00" fill="#666666">[timestamp]</text>
</g>
<!-- user_personal_infos&#45;&gt;users -->
<g id="edge4" class="edge">
<title>user_personal_infos:user_id&#45;&gt;users:id</title>
<path fill="none" stroke="black" d="M996.49,-774.85C943.66,-750.54 990.46,-526.72 955.43,-472 898.76,-383.49 865.14,-338.8 760.04,-338.8"/>
<polygon fill="black" stroke="black" points="996.58,-774.87 1005.44,-781.33 1001.81,-775.97 1006.04,-776.86 1006.04,-776.86 1006.04,-776.86 1001.81,-775.97 1007.3,-772.53 996.58,-774.87"/>
<text text-anchor="start" x="773.54" y="-787" font-family="Arial" font-size="10.00">FOREIGN KEY (user_id) REFERENCES users (id)</text>
</g>
</g>
</svg>
