<?xml version="1.0" encoding="UTF-8" standalone="no"?>
<!DOCTYPE svg PUBLIC "-//W3C//DTD SVG 1.1//EN"
 "http://www.w3.org/Graphics/SVG/1.1/DTD/svg11.dtd">
<!-- Generated by graphviz version 12.1.2 (20240928.0832)
 -->
<!-- Title: user_allergie Pages: 1 -->
<svg width="747pt" height="756pt"
 viewBox="0.00 0.00 747.33 756.00" xmlns="http://www.w3.org/2000/svg" xmlns:xlink="http://www.w3.org/1999/xlink">
<g id="graph0" class="graph" transform="scale(1 1) rotate(0) translate(4 752)">
<title>user_allergie</title>
<polygon fill="white" stroke="none" points="-4,4 -4,-752 743.33,-752 743.33,4 -4,4"/>
<!-- user_allergie -->
<g id="node1" class="node">
<title>user_allergie</title>
<polygon fill="#efefef" stroke="none" points="241.16,-666.2 241.16,-701.8 472.6,-701.8 472.6,-666.2 241.16,-666.2"/>
<polygon fill="none" stroke="black" points="241.16,-666.2 241.16,-701.8 472.6,-701.8 472.6,-666.2 241.16,-666.2"/>
<text text-anchor="start" x="248.16" y="-679.6" font-family="Arial Bold" font-size="18.00">user_allergie</text>
<text text-anchor="start" x="341.11" y="-679.6" font-family="Arial" font-size="14.00">    </text>
<text text-anchor="start" x="372.23" y="-679.6" font-family="Arial" font-size="14.00" fill="#666666">[BASE TABLE]</text>
<polygon fill="none" stroke="black" points="241.16,-635.4 241.16,-666.2 472.6,-666.2 472.6,-635.4 241.16,-635.4"/>
<text text-anchor="start" x="248.16" y="-647.6" font-family="Arial" font-size="14.00">id </text>
<text text-anchor="start" x="262.94" y="-647.6" font-family="Arial" font-size="14.00" fill="#666666">[bigint unsigned]</text>
<polygon fill="none" stroke="black" points="241.16,-604.6 241.16,-635.4 472.6,-635.4 472.6,-604.6 241.16,-604.6"/>
<text text-anchor="start" x="248.16" y="-616.8" font-family="Arial" font-size="14.00">user_id </text>
<text text-anchor="start" x="297.96" y="-616.8" font-family="Arial" font-size="14.00" fill="#666666">[bigint unsigned]</text>
<polygon fill="none" stroke="black" points="241.16,-573.8 241.16,-604.6 472.6,-604.6 472.6,-573.8 241.16,-573.8"/>
<text text-anchor="start" x="248.16" y="-586" font-family="Arial" font-size="14.00">allergie_id </text>
<text text-anchor="start" x="315.87" y="-586" font-family="Arial" font-size="14.00" fill="#666666">[bigint unsigned]</text>
<polygon fill="none" stroke="black" points="241.16,-543 241.16,-573.8 472.6,-573.8 472.6,-543 241.16,-543"/>
<text text-anchor="start" x="248.16" y="-555.2" font-family="Arial" font-size="14.00">created_at </text>
<text text-anchor="start" x="318.21" y="-555.2" font-family="Arial" font-size="14.00" fill="#666666">[timestamp]</text>
<polygon fill="none" stroke="black" points="241.16,-512.2 241.16,-543 472.6,-543 472.6,-512.2 241.16,-512.2"/>
<text text-anchor="start" x="248.16" y="-524.4" font-family="Arial" font-size="14.00">updated_at </text>
<text text-anchor="start" x="322.12" y="-524.4" font-family="Arial" font-size="14.00" fill="#666666">[timestamp]</text>
<polygon fill="none" stroke="black" stroke-width="3" points="239.66,-510.7 239.66,-703.3 474.1,-703.3 474.1,-510.7 239.66,-510.7"/>
</g>
<!-- users -->
<g id="node2" class="node">
<title>users</title>
<polygon fill="#efefef" stroke="none" points="63.27,-351.2 63.27,-386.8 318.49,-386.8 318.49,-351.2 63.27,-351.2"/>
<polygon fill="none" stroke="black" points="63.27,-351.2 63.27,-386.8 318.49,-386.8 318.49,-351.2 63.27,-351.2"/>
<text text-anchor="start" x="110.14" y="-364.6" font-family="Arial Bold" font-size="18.00">users</text>
<text text-anchor="start" x="147.13" y="-364.6" font-family="Arial" font-size="14.00">    </text>
<text text-anchor="start" x="178.25" y="-364.6" font-family="Arial" font-size="14.00" fill="#666666">[BASE TABLE]</text>
<polygon fill="none" stroke="black" points="63.27,-320.4 63.27,-351.2 318.49,-351.2 318.49,-320.4 63.27,-320.4"/>
<text text-anchor="start" x="70.27" y="-332.6" font-family="Arial" font-size="14.00">id </text>
<text text-anchor="start" x="85.05" y="-332.6" font-family="Arial" font-size="14.00" fill="#666666">[bigint unsigned]</text>
<polygon fill="none" stroke="black" points="63.27,-289.6 63.27,-320.4 318.49,-320.4 318.49,-289.6 63.27,-289.6"/>
<text text-anchor="start" x="70.27" y="-301.8" font-family="Arial" font-size="14.00">status </text>
<text text-anchor="start" x="111.51" y="-301.8" font-family="Arial" font-size="14.00" fill="#666666">[tinyint]</text>
<polygon fill="none" stroke="black" points="63.27,-258.8 63.27,-289.6 318.49,-289.6 318.49,-258.8 63.27,-258.8"/>
<text text-anchor="start" x="70.27" y="-271" font-family="Arial" font-size="14.00">email </text>
<text text-anchor="start" x="107.61" y="-271" font-family="Arial" font-size="14.00" fill="#666666">[varchar(255)]</text>
<polygon fill="none" stroke="black" points="63.27,-228 63.27,-258.8 318.49,-258.8 318.49,-228 63.27,-228"/>
<text text-anchor="start" x="70.27" y="-240.2" font-family="Arial" font-size="14.00">email_verified_at </text>
<text text-anchor="start" x="179.99" y="-240.2" font-family="Arial" font-size="14.00" fill="#666666">[timestamp]</text>
<polygon fill="none" stroke="black" points="63.27,-197.2 63.27,-228 318.49,-228 318.49,-197.2 63.27,-197.2"/>
<text text-anchor="start" x="70.27" y="-209.4" font-family="Arial" font-size="14.00">email_verification_token </text>
<text text-anchor="start" x="224.35" y="-209.4" font-family="Arial" font-size="14.00" fill="#666666">[varchar(255)]</text>
<polygon fill="none" stroke="black" points="63.27,-166.4 63.27,-197.2 318.49,-197.2 318.49,-166.4 63.27,-166.4"/>
<text text-anchor="start" x="70.27" y="-178.6" font-family="Arial" font-size="14.00">password </text>
<text text-anchor="start" x="134.07" y="-178.6" font-family="Arial" font-size="14.00" fill="#666666">[varchar(255)]</text>
<polygon fill="none" stroke="black" points="63.27,-135.6 63.27,-166.4 318.49,-166.4 318.49,-135.6 63.27,-135.6"/>
<text text-anchor="start" x="70.27" y="-147.8" font-family="Arial" font-size="14.00">remember_token </text>
<text text-anchor="start" x="179.98" y="-147.8" font-family="Arial" font-size="14.00" fill="#666666">[varchar(100)]</text>
<polygon fill="none" stroke="black" points="63.27,-104.8 63.27,-135.6 318.49,-135.6 318.49,-104.8 63.27,-104.8"/>
<text text-anchor="start" x="70.27" y="-117" font-family="Arial" font-size="14.00">created_at </text>
<text text-anchor="start" x="140.31" y="-117" font-family="Arial" font-size="14.00" fill="#666666">[timestamp]</text>
<polygon fill="none" stroke="black" points="63.27,-74 63.27,-104.8 318.49,-104.8 318.49,-74 63.27,-74"/>
<text text-anchor="start" x="70.27" y="-86.2" font-family="Arial" font-size="14.00">updated_at </text>
<text text-anchor="start" x="144.22" y="-86.2" font-family="Arial" font-size="14.00" fill="#666666">[timestamp]</text>
<polygon fill="none" stroke="black" points="63.27,-43.2 63.27,-74 318.49,-74 318.49,-43.2 63.27,-43.2"/>
<text text-anchor="start" x="70.27" y="-55.4" font-family="Arial" font-size="14.00">deleted_at </text>
<text text-anchor="start" x="139.55" y="-55.4" font-family="Arial" font-size="14.00" fill="#666666">[timestamp]</text>
</g>
<!-- user_allergie&#45;&gt;users -->
<g id="edge1" class="edge">
<title>user_allergie:user_id&#45;&gt;users:id</title>
<path fill="none" stroke="black" d="M229.82,-619.16C175.28,-609.57 206.2,-520.45 241.16,-466 261.64,-434.1 297.94,-461.86 318.49,-430 341.19,-394.82 361.36,-335.8 319.49,-335.8"/>
<polygon fill="black" stroke="black" points="229.86,-619.16 239.46,-624.46 235.17,-619.59 239.49,-619.95 239.49,-619.95 239.49,-619.95 235.17,-619.59 240.19,-615.49 229.86,-619.16"/>
<text text-anchor="start" x="7" y="-630" font-family="Arial" font-size="10.00">FOREIGN KEY (user_id) REFERENCES users (id)</text>
</g>
<!-- allergies -->
<g id="node3" class="node">
<title>allergies</title>
<polygon fill="#efefef" stroke="none" points="423.15,-274.2 423.15,-309.8 622.61,-309.8 622.61,-274.2 423.15,-274.2"/>
<polygon fill="none" stroke="black" points="423.15,-274.2 423.15,-309.8 622.61,-309.8 622.61,-274.2 423.15,-274.2"/>
<text text-anchor="start" x="430.15" y="-287.6" font-family="Arial Bold" font-size="18.00">allergies</text>
<text text-anchor="start" x="491.12" y="-287.6" font-family="Arial" font-size="14.00">    </text>
<text text-anchor="start" x="522.24" y="-287.6" font-family="Arial" font-size="14.00" fill="#666666">[BASE TABLE]</text>
<polygon fill="none" stroke="black" points="423.15,-243.4 423.15,-274.2 622.61,-274.2 622.61,-243.4 423.15,-243.4"/>
<text text-anchor="start" x="430.15" y="-255.6" font-family="Arial" font-size="14.00">id </text>
<text text-anchor="start" x="444.94" y="-255.6" font-family="Arial" font-size="14.00" fill="#666666">[bigint unsigned]</text>
<polygon fill="none" stroke="black" points="423.15,-212.6 423.15,-243.4 622.61,-243.4 622.61,-212.6 423.15,-212.6"/>
<text text-anchor="start" x="430.15" y="-224.8" font-family="Arial" font-size="14.00">kind </text>
<text text-anchor="start" x="459.72" y="-224.8" font-family="Arial" font-size="14.00" fill="#666666">[tinyint]</text>
<polygon fill="none" stroke="black" points="423.15,-181.8 423.15,-212.6 622.61,-212.6 622.61,-181.8 423.15,-181.8"/>
<text text-anchor="start" x="430.15" y="-194" font-family="Arial" font-size="14.00">name </text>
<text text-anchor="start" x="469.06" y="-194" font-family="Arial" font-size="14.00" fill="#666666">[varchar(255)]</text>
<polygon fill="none" stroke="black" points="423.15,-151 423.15,-181.8 622.61,-181.8 622.61,-151 423.15,-151"/>
<text text-anchor="start" x="430.15" y="-163.2" font-family="Arial" font-size="14.00">created_at </text>
<text text-anchor="start" x="500.2" y="-163.2" font-family="Arial" font-size="14.00" fill="#666666">[timestamp]</text>
<polygon fill="none" stroke="black" points="423.15,-120.2 423.15,-151 622.61,-151 622.61,-120.2 423.15,-120.2"/>
<text text-anchor="start" x="430.15" y="-132.4" font-family="Arial" font-size="14.00">updated_at </text>
<text text-anchor="start" x="504.11" y="-132.4" font-family="Arial" font-size="14.00" fill="#666666">[timestamp]</text>
</g>
<!-- user_allergie&#45;&gt;allergies -->
<g id="edge2" class="edge">
<title>user_allergie:allergie_id&#45;&gt;allergies:id</title>
<path fill="none" stroke="black" d="M483.97,-588.57C604.83,-572.63 277.31,-258.8 422.15,-258.8"/>
<polygon fill="black" stroke="black" points="483.92,-588.58 473.66,-584.69 478.59,-588.9 474.27,-589.16 474.27,-589.16 474.27,-589.16 478.59,-588.9 474.21,-593.67 483.92,-588.58"/>
<text text-anchor="start" x="480.6" y="-599.2" font-family="Arial" font-size="10.00">FOREIGN KEY (allergie_id) REFERENCES allergies (id)</text>
</g>
</g>
</svg>
