<?xml version="1.0" encoding="UTF-8" standalone="no"?>
<!DOCTYPE svg PUBLIC "-//W3C//DTD SVG 1.1//EN"
 "http://www.w3.org/Graphics/SVG/1.1/DTD/svg11.dtd">
<!-- Generated by graphviz version 12.1.2 (20240928.0832)
 -->
<!-- Title: user_personal_infos Pages: 1 -->
<svg width="579pt" height="910pt"
 viewBox="0.00 0.00 578.81 910.00" xmlns="http://www.w3.org/2000/svg" xmlns:xlink="http://www.w3.org/1999/xlink">
<g id="graph0" class="graph" transform="scale(1 1) rotate(0) translate(4 906)">
<title>user_personal_infos</title>
<polygon fill="white" stroke="none" points="-4,4 -4,-906 574.81,-906 574.81,4 -4,4"/>
<!-- user_personal_infos -->
<g id="node1" class="node">
<title>user_personal_infos</title>
<polygon fill="#efefef" stroke="none" points="46.2,-820.2 46.2,-855.8 329.66,-855.8 329.66,-820.2 46.2,-820.2"/>
<polygon fill="none" stroke="black" points="46.2,-820.2 46.2,-855.8 329.66,-855.8 329.66,-820.2 46.2,-820.2"/>
<text text-anchor="start" x="53.2" y="-833.6" font-family="Arial Bold" font-size="18.00">user_personal_infos</text>
<text text-anchor="start" x="198.17" y="-833.6" font-family="Arial" font-size="14.00">    </text>
<text text-anchor="start" x="229.28" y="-833.6" font-family="Arial" font-size="14.00" fill="#666666">[BASE TABLE]</text>
<polygon fill="none" stroke="black" points="46.2,-789.4 46.2,-820.2 329.66,-820.2 329.66,-789.4 46.2,-789.4"/>
<text text-anchor="start" x="53.2" y="-801.6" font-family="Arial" font-size="14.00">id </text>
<text text-anchor="start" x="67.99" y="-801.6" font-family="Arial" font-size="14.00" fill="#666666">[bigint unsigned]</text>
<polygon fill="none" stroke="black" points="46.2,-758.6 46.2,-789.4 329.66,-789.4 329.66,-758.6 46.2,-758.6"/>
<text text-anchor="start" x="53.2" y="-770.8" font-family="Arial" font-size="14.00">user_id </text>
<text text-anchor="start" x="103.01" y="-770.8" font-family="Arial" font-size="14.00" fill="#666666">[bigint unsigned]</text>
<polygon fill="none" stroke="black" points="46.2,-727.8 46.2,-758.6 329.66,-758.6 329.66,-727.8 46.2,-727.8"/>
<text text-anchor="start" x="53.2" y="-740" font-family="Arial" font-size="14.00">first_name </text>
<text text-anchor="start" x="122.45" y="-740" font-family="Arial" font-size="14.00" fill="#666666">[varchar(255)]</text>
<polygon fill="none" stroke="black" points="46.2,-697 46.2,-727.8 329.66,-727.8 329.66,-697 46.2,-697"/>
<text text-anchor="start" x="53.2" y="-709.2" font-family="Arial" font-size="14.00">last_name </text>
<text text-anchor="start" x="121.68" y="-709.2" font-family="Arial" font-size="14.00" fill="#666666">[varchar(255)]</text>
<polygon fill="none" stroke="black" points="46.2,-666.2 46.2,-697 329.66,-697 329.66,-666.2 46.2,-666.2"/>
<text text-anchor="start" x="53.2" y="-678.4" font-family="Arial" font-size="14.00">birthdate </text>
<text text-anchor="start" x="111.57" y="-678.4" font-family="Arial" font-size="14.00" fill="#666666">[date]</text>
<polygon fill="none" stroke="black" points="46.2,-635.4 46.2,-666.2 329.66,-666.2 329.66,-635.4 46.2,-635.4"/>
<text text-anchor="start" x="53.2" y="-647.6" font-family="Arial" font-size="14.00">tel1 </text>
<text text-anchor="start" x="79.66" y="-647.6" font-family="Arial" font-size="14.00" fill="#666666">[varchar(255)]</text>
<polygon fill="none" stroke="black" points="46.2,-604.6 46.2,-635.4 329.66,-635.4 329.66,-604.6 46.2,-604.6"/>
<text text-anchor="start" x="53.2" y="-616.8" font-family="Arial" font-size="14.00">tel2 </text>
<text text-anchor="start" x="79.66" y="-616.8" font-family="Arial" font-size="14.00" fill="#666666">[varchar(255)]</text>
<polygon fill="none" stroke="black" points="46.2,-573.8 46.2,-604.6 329.66,-604.6 329.66,-573.8 46.2,-573.8"/>
<text text-anchor="start" x="53.2" y="-586" font-family="Arial" font-size="14.00">tel3 </text>
<text text-anchor="start" x="79.66" y="-586" font-family="Arial" font-size="14.00" fill="#666666">[varchar(255)]</text>
<polygon fill="none" stroke="black" points="46.2,-543 46.2,-573.8 329.66,-573.8 329.66,-543 46.2,-543"/>
<text text-anchor="start" x="53.2" y="-555.2" font-family="Arial" font-size="14.00">created_at </text>
<text text-anchor="start" x="123.25" y="-555.2" font-family="Arial" font-size="14.00" fill="#666666">[timestamp]</text>
<polygon fill="none" stroke="black" points="46.2,-512.2 46.2,-543 329.66,-543 329.66,-512.2 46.2,-512.2"/>
<text text-anchor="start" x="53.2" y="-524.4" font-family="Arial" font-size="14.00">updated_at </text>
<text text-anchor="start" x="127.16" y="-524.4" font-family="Arial" font-size="14.00" fill="#666666">[timestamp]</text>
<polygon fill="none" stroke="black" stroke-width="3" points="44.7,-510.7 44.7,-857.3 331.16,-857.3 331.16,-510.7 44.7,-510.7"/>
</g>
<!-- users -->
<g id="node2" class="node">
<title>users</title>
<polygon fill="#efefef" stroke="none" points="60.31,-351.2 60.31,-386.8 315.54,-386.8 315.54,-351.2 60.31,-351.2"/>
<polygon fill="none" stroke="black" points="60.31,-351.2 60.31,-386.8 315.54,-386.8 315.54,-351.2 60.31,-351.2"/>
<text text-anchor="start" x="107.19" y="-364.6" font-family="Arial Bold" font-size="18.00">users</text>
<text text-anchor="start" x="144.18" y="-364.6" font-family="Arial" font-size="14.00">    </text>
<text text-anchor="start" x="175.3" y="-364.6" font-family="Arial" font-size="14.00" fill="#666666">[BASE TABLE]</text>
<polygon fill="none" stroke="black" points="60.31,-320.4 60.31,-351.2 315.54,-351.2 315.54,-320.4 60.31,-320.4"/>
<text text-anchor="start" x="67.31" y="-332.6" font-family="Arial" font-size="14.00">id </text>
<text text-anchor="start" x="82.1" y="-332.6" font-family="Arial" font-size="14.00" fill="#666666">[bigint unsigned]</text>
<polygon fill="none" stroke="black" points="60.31,-289.6 60.31,-320.4 315.54,-320.4 315.54,-289.6 60.31,-289.6"/>
<text text-anchor="start" x="67.31" y="-301.8" font-family="Arial" font-size="14.00">status </text>
<text text-anchor="start" x="108.56" y="-301.8" font-family="Arial" font-size="14.00" fill="#666666">[tinyint]</text>
<polygon fill="none" stroke="black" points="60.31,-258.8 60.31,-289.6 315.54,-289.6 315.54,-258.8 60.31,-258.8"/>
<text text-anchor="start" x="67.31" y="-271" font-family="Arial" font-size="14.00">email </text>
<text text-anchor="start" x="104.66" y="-271" font-family="Arial" font-size="14.00" fill="#666666">[varchar(255)]</text>
<polygon fill="none" stroke="black" points="60.31,-228 60.31,-258.8 315.54,-258.8 315.54,-228 60.31,-228"/>
<text text-anchor="start" x="67.31" y="-240.2" font-family="Arial" font-size="14.00">email_verified_at </text>
<text text-anchor="start" x="177.04" y="-240.2" font-family="Arial" font-size="14.00" fill="#666666">[timestamp]</text>
<polygon fill="none" stroke="black" points="60.31,-197.2 60.31,-228 315.54,-228 315.54,-197.2 60.31,-197.2"/>
<text text-anchor="start" x="67.31" y="-209.4" font-family="Arial" font-size="14.00">email_verification_token </text>
<text text-anchor="start" x="221.4" y="-209.4" font-family="Arial" font-size="14.00" fill="#666666">[varchar(255)]</text>
<polygon fill="none" stroke="black" points="60.31,-166.4 60.31,-197.2 315.54,-197.2 315.54,-166.4 60.31,-166.4"/>
<text text-anchor="start" x="67.31" y="-178.6" font-family="Arial" font-size="14.00">password </text>
<text text-anchor="start" x="131.12" y="-178.6" font-family="Arial" font-size="14.00" fill="#666666">[varchar(255)]</text>
<polygon fill="none" stroke="black" points="60.31,-135.6 60.31,-166.4 315.54,-166.4 315.54,-135.6 60.31,-135.6"/>
<text text-anchor="start" x="67.31" y="-147.8" font-family="Arial" font-size="14.00">remember_token </text>
<text text-anchor="start" x="177.03" y="-147.8" font-family="Arial" font-size="14.00" fill="#666666">[varchar(100)]</text>
<polygon fill="none" stroke="black" points="60.31,-104.8 60.31,-135.6 315.54,-135.6 315.54,-104.8 60.31,-104.8"/>
<text text-anchor="start" x="67.31" y="-117" font-family="Arial" font-size="14.00">created_at </text>
<text text-anchor="start" x="137.36" y="-117" font-family="Arial" font-size="14.00" fill="#666666">[timestamp]</text>
<polygon fill="none" stroke="black" points="60.31,-74 60.31,-104.8 315.54,-104.8 315.54,-74 60.31,-74"/>
<text text-anchor="start" x="67.31" y="-86.2" font-family="Arial" font-size="14.00">updated_at </text>
<text text-anchor="start" x="141.27" y="-86.2" font-family="Arial" font-size="14.00" fill="#666666">[timestamp]</text>
<polygon fill="none" stroke="black" points="60.31,-43.2 60.31,-74 315.54,-74 315.54,-43.2 60.31,-43.2"/>
<text text-anchor="start" x="67.31" y="-55.4" font-family="Arial" font-size="14.00">deleted_at </text>
<text text-anchor="start" x="136.6" y="-55.4" font-family="Arial" font-size="14.00" fill="#666666">[timestamp]</text>
</g>
<!-- user_personal_infos&#45;&gt;users -->
<g id="edge1" class="edge">
<title>user_personal_infos:user_id&#45;&gt;users:id</title>
<path fill="none" stroke="black" d="M340.78,-772.33C426.96,-742.91 410.45,-335.8 316.54,-335.8"/>
<polygon fill="black" stroke="black" points="340.85,-772.31 330.25,-769.51 335.59,-773.18 331.32,-773.89 331.32,-773.89 331.32,-773.89 335.59,-773.18 331.72,-778.39 340.85,-772.31"/>
<text text-anchor="start" x="337.66" y="-784" font-family="Arial" font-size="10.00">FOREIGN KEY (user_id) REFERENCES users (id)</text>
</g>
</g>
</svg>
